Sarala-Regular.ufo
<glyph name="parenleft" format="1">
  <advance width="279"/>
  <unicode hex="0028"/>
  <outline>
    <contour>
      <point x="206" y="792" type="line"/>
      <point x="89" y="605"/>
      <point x="42" y="460"/>
      <point x="42" y="285" type="curve" smooth="yes"/>
      <point x="42" y="107"/>
      <point x="90" y="-40"/>
      <point x="206" y="-222" type="curve"/>
      <point x="262" y="-186" type="line"/>
      <point x="168" y="-8"/>
      <point x="132" y="122"/>
      <point x="132" y="285" type="curve" smooth="yes"/>
      <point x="132" y="451"/>
      <point x="169" y="584"/>
      <point x="262" y="756" type="curve"/>
    </contour>
  </outline>
</glyph>
<glyph name="one" format="1">
  <advance width="398"/>
  <unicode hex="0031"/>
  <outline>
    <contour>
      <point x="35" y="556" type="line"/>
      <point x="206" y="609" type="line"/>
      <point x="206" y="0" type="line"/>
      <point x="300" y="0" type="line"/>
      <point x="300" y="700" type="line"/>
      <point x="229" y="712" type="line"/>
      <point x="12" y="615" type="line"/>
    </contour>
  </outline>
</glyph>
<glyph name="five" format="1">
  <advance width="544"/>
  <unicode hex="0035"/>
  <outline>
    <contour>
      <point x="247" y="432"/>
      <point x="204" y="424"/>
      <point x="165" y="410" type="curve"/>
      <point x="188" y="628" type="line"/>
      <point x="468" y="628" type="line"/>
      <point x="468" y="708" type="line"/>
      <point x="104" y="708" type="line"/>
      <point x="70" y="357" type="line"/>
      <point x="130" y="316" type="line"/>
      <point x="170" y="338"/>
      <point x="222" y="352"/>
      <point x="267" y="352" type="curve" smooth="yes"/>
      <point x="353" y="352"/>
      <point x="401" y="308"/>
      <point x="401" y="231" type="curve" smooth="yes"/>
      <point x="401" y="133"/>
      <point x="345" y="80"/>
      <point x="241" y="80" type="curve" smooth="yes"/>
      <point x="191" y="80"/>
      <point x="124" y="94"/>
      <point x="66" y="116" type="curve"/>
      <point x="48" y="34" type="line"/>
      <point x="110" y="9"/>
      <point x="184" y="-5"/>
      <point x="252" y="-5" type="curve" smooth="yes"/>
      <point x="408" y="-5"/>
      <point x="497" y="81"/>
      <point x="497" y="231" type="curve" smooth="yes"/>
      <point x="497" y="350"/>
      <point x="411" y="432"/>
      <point x="287" y="432" type="curve" smooth="yes"/>
    </contour>
  </outline>
</glyph>
<glyph name="underscore" format="1">
  <advance width="600"/>
  <unicode hex="005F"/>
  <outline>
    <contour>
      <point x="525" y="-50" type="line"/>
      <point x="75" y="-50" type="line"/>
      <point x="75" y="-132" type="line"/>
      <point x="525" y="-132" type="line"/>
    </contour>
  </outline>
</glyph>
<glyph name="grave" format="1">
  <advance width="293"/>
  <unicode hex="0060"/>
  <outline>
    <contour>
      <point x="243" y="601" type="line"/>
      <point x="110" y="765" type="line"/>
      <point x="50" y="703" type="line"/>
      <point x="206" y="567" type="line"/>
    </contour>
  </outline>
</glyph>
<glyph name="q" format="1">
  <advance width="575"/>
  <unicode hex="0071"/>
  <outline>
    <contour>
      <point x="148" y="523"/>
      <point x="43" y="414"/>
      <point x="43" y="243" type="curve" smooth="yes"/>
      <point x="43" y="87"/>
      <point x="127" y="-8"/>
      <point x="265" y="-8" type="curve" smooth="yes"/>
      <point x="319" y="-8"/>
      <point x="370" y="14"/>
      <point x="410" y="52" type="curve"/>
      <point x="410" y="-236" type="line"/>
      <point x="504" y="-236" type="line"/>
      <point x="504" y="485" type="line"/>
      <point x="447" y="510"/>
      <point x="381" y="523"/>
      <point x="311" y="523" type="curve" smooth="yes"/>
    </contour>
    <contour>
      <point x="188" y="75"/>
      <point x="138" y="138"/>
      <point x="138" y="243" type="curve" smooth="yes"/>
      <point x="138" y="363"/>
      <point x="206" y="440"/>
      <point x="311" y="440" type="curve" smooth="yes"/>
      <point x="345" y="440"/>
      <point x="378" y="435"/>
      <point x="410" y="425" type="curve"/>
      <point x="410" y="168" type="line"/>
      <point x="378" y="109"/>
      <point x="327" y="75"/>
      <point x="270" y="75" type="curve" smooth="yes"/>
    </contour>
  </outline>
</glyph>
<glyph name="registered" format="1">
  <advance width="607"/>
  <unicode hex="00AE"/>
  <outline>
    <contour>
      <point x="153" y="717"/>
      <point x="33" y="597"/>
      <point x="33" y="448" type="curve" smooth="yes"/>
      <point x="33" y="297"/>
      <point x="152" y="178"/>
      <point x="304" y="178" type="curve" smooth="yes"/>
      <point x="453" y="178"/>
      <point x="574" y="299"/>
      <point x="574" y="450" type="curve" smooth="yes"/>
      <point x="574" y="600"/>
      <point x="455" y="717"/>
      <point x="304" y="717" type="curve" smooth="yes"/>
    </contour>
    <contour>
      <point x="418" y="659"/>
      <point x="511" y="564"/>
      <point x="511" y="448" type="curve" smooth="yes"/>
      <point x="511" y="332"/>
      <point x="419" y="238"/>
      <point x="304" y="238" type="curve" smooth="yes"/>
      <point x="190" y="238"/>
      <point x="97" y="333"/>
      <point x="97" y="450" type="curve" smooth="yes"/>
      <point x="97" y="566"/>
      <point x="190" y="659"/>
      <point x="304" y="659" type="curve" smooth="yes"/>
    </contour>
    <contour>
      <point x="215" y="594" type="line"/>
      <point x="215" y="315" type="line"/>
      <point x="266" y="315" type="line"/>
      <point x="266" y="423" type="line"/>
      <point x="305" y="423" type="line"/>
      <point x="373" y="309" type="line"/>
      <point x="417" y="333" type="line"/>
      <point x="357" y="431" type="line"/>
      <point x="390" y="443"/>
      <point x="408" y="470"/>
      <point x="408" y="509" type="curve" smooth="yes"/>
      <point x="408" y="564"/>
      <point x="373" y="594"/>
      <point x="308" y="594" type="curve" smooth="yes"/>
    </contour>
    <contour>
      <point x="266" y="549" type="line"/>
      <point x="308" y="549" type="line" smooth="yes"/>
      <point x="338" y="549"/>
      <point x="355" y="535"/>
      <point x="355" y="509" type="curve" smooth="yes"/>
      <point x="355" y="482"/>
      <point x="338" y="468"/>
      <point x="308" y="468" type="curve" smooth="yes"/>
      <point x="266" y="468" type="line"/>
    </contour>
  </outline>
</glyph>
<glyph name="plusminus" format="1">
  <advance width="581"/>
  <unicode hex="00B1"/>
  <outline>
    <contour>
      <point x="57" y="320" type="line"/>
      <point x="246" y="320" type="line"/>
      <point x="246" y="130" type="line"/>
      <point x="330" y="130" type="line"/>
      <point x="330" y="320" type="line"/>
      <point x="524" y="320" type="line"/>
      <point x="524" y="392" type="line"/>
      <point x="330" y="392" type="line"/>
      <point x="330" y="581" type="line"/>
      <point x="246" y="581" type="line"/>
      <point x="246" y="392" type="line"/>
      <point x="57" y="392" type="line"/>
    </contour>
    <contour>
      <point x="524" y="72" type="line"/>
      <point x="57" y="72" type="line"/>
      <point x="57" y="0" type="line"/>
      <point x="524" y="0" type="line"/>
    </contour>
  </outline>
</glyph>
<glyph name="acute" format="1">
  <advance width="293"/>
  <unicode hex="00B4"/>
  <outline>
    <contour>
      <point x="183" y="765" type="line"/>
      <point x="50" y="601" type="line"/>
      <point x="87" y="567" type="line"/>
      <point x="243" y="703" type="line"/>
    </contour>
    <contour>
      <point x="121" y="514" type="move" name="_top"/>
    </contour>
  </outline>
</glyph>
<glyph name="periodcentered" format="1">
  <advance width="252"/>
  <unicode hex="00B7"/>
  <outline>
    <contour>
      <point x="176" y="351" type="line"/>
      <point x="76" y="351" type="line"/>
      <point x="76" y="251" type="line"/>
      <point x="176" y="251" type="line"/>
    </contour>
  </outline>
</glyph>
<glyph name="cedilla" format="1">
  <advance width="270"/>
  <unicode hex="00B8"/>
  <outline>
    <contour>
      <point x="169" y="0" type="line"/>
      <point x="127" y="0" type="line"/>
      <point x="89" y="-54" type="line"/>
      <point x="95" y="-75" type="line"/>
      <point x="135" y="-87"/>
      <point x="152" y="-102"/>
      <point x="152" y="-126" type="curve" smooth="yes"/>
      <point x="152" y="-149"/>
      <point x="138" y="-162"/>
      <point x="114" y="-162" type="curve" smooth="yes"/>
      <point x="97" y="-162"/>
      <point x="80" y="-157"/>
      <point x="68" y="-150" type="curve"/>
      <point x="50" y="-188" type="line"/>
      <point x="72" y="-201"/>
      <point x="103" y="-213"/>
      <point x="135" y="-213" type="curve" smooth="yes"/>
      <point x="181" y="-213"/>
      <point x="220" y="-184"/>
      <point x="220" y="-128" type="curve" smooth="yes"/>
      <point x="220" y="-94"/>
      <point x="191" y="-58"/>
      <point x="154" y="-45" type="curve"/>
    </contour>
  </outline>
</glyph>
<glyph name="questiondown" format="1">
  <advance width="409"/>
  <unicode hex="00BF"/>
  <outline>
    <contour>
      <point x="211" y="415" type="line"/>
      <point x="311" y="415" type="line"/>
      <point x="311" y="515" type="line"/>
      <point x="211" y="515" type="line"/>
    </contour>
    <contour>
      <point x="111" y="133"/>
      <point x="308" y="58"/>
      <point x="308" y="361" type="curve"/>
      <point x="216" y="361" type="line"/>
      <point x="216" y="106"/>
      <point x="15" y="188"/>
      <point x="15" y="-23" type="curve" smooth="yes"/>
      <point x="15" y="-139"/>
      <point x="95" y="-208"/>
      <point x="231" y="-208" type="curve" smooth="yes"/>
      <point x="288" y="-208"/>
      <point x="353" y="-192"/>
      <point x="413" y="-162" type="curve"/>
      <point x="381" y="-84" type="line"/>
      <point x="319" y="-110"/>
      <point x="271" y="-122"/>
      <point x="232" y="-122" type="curve" smooth="yes"/>
      <point x="157" y="-122"/>
      <point x="111" y="-84"/>
      <point x="111" y="-23" type="curve" smooth="yes"/>
    </contour>
  </outline>
</glyph>
<glyph name="Ntilde" format="1">
  <advance width="737"/>
  <unicode hex="00D1"/>
  <outline>
    <contour>
      <point x="355" y="843"/>
      <point x="367" y="784"/>
      <point x="443" y="784" type="curve" smooth="yes"/>
      <point x="508" y="784"/>
      <point x="551" y="831"/>
      <point x="551" y="903" type="curve"/>
      <point x="487" y="903" type="line"/>
      <point x="487" y="873"/>
      <point x="471" y="854"/>
      <point x="446" y="854" type="curve" smooth="yes"/>
      <point x="390" y="854"/>
      <point x="382" y="912"/>
      <point x="304" y="912" type="curve" smooth="yes"/>
      <point x="235" y="912"/>
      <point x="191" y="865"/>
      <point x="191" y="793" type="curve"/>
      <point x="255" y="793" type="line"/>
      <point x="255" y="824"/>
      <point x="274" y="843"/>
      <point x="303" y="843" type="curve" smooth="yes"/>
    </contour>
    <contour>
      <point x="644" y="708" type="line"/>
      <point x="553" y="708" type="line"/>
      <point x="553" y="154" type="line"/>
      <point x="515" y="216"/>
      <point x="478" y="277"/>
      <point x="436" y="336" type="curve" smooth="yes"/>
      <point x="174" y="708" type="line"/>
      <point x="93" y="708" type="line"/>
      <point x="93" y="0" type="line"/>
      <point x="184" y="0" type="line"/>
      <point x="184" y="556" type="line"/>
      <point x="219" y="497"/>
      <point x="255" y="438"/>
      <point x="294" y="382" type="curve" smooth="yes"/>
      <point x="563" y="0" type="line"/>
      <point x="644" y="0" type="line"/>
    </contour>
  </outline>
</glyph>
<glyph name="Ugrave" format="1">
  <advance width="709"/>
  <unicode hex="00D9"/>
  <outline>
    <contour>
      <point x="386" y="795" type="line"/>
      <point x="253" y="959" type="line"/>
      <point x="193" y="897" type="line"/>
      <point x="349" y="761" type="line"/>
    </contour>
    <contour>
      <point x="631" y="708" type="line"/>
      <point x="535" y="708" type="line"/>
      <point x="535" y="238" type="line" smooth="yes"/>
      <point x="535" y="132"/>
      <point x="475" y="80"/>
      <point x="354" y="80" type="curve" smooth="yes"/>
      <point x="233" y="80"/>
      <point x="174" y="132"/>
      <point x="174" y="238" type="curve" smooth="yes"/>
      <point x="174" y="708" type="line"/>
      <point x="78" y="708" type="line"/>
      <point x="78" y="238" type="line" smooth="yes"/>
      <point x="78" y="81"/>
      <point x="178" y="-9"/>
      <point x="354" y="-9" type="curve" smooth="yes"/>
      <point x="529" y="-9"/>
      <point x="631" y="82"/>
      <point x="631" y="238" type="curve" smooth="yes"/>
    </contour>
  </outline>
</glyph>
<glyph name="Udieresis" format="1">
  <advance width="709"/>
  <unicode hex="00DC"/>
  <outline>
    <contour>
      <point x="310" y="890" type="line"/>
      <point x="217" y="890" type="line"/>
      <point x="217" y="797" type="line"/>
      <point x="310" y="797" type="line"/>
    </contour>
    <contour>
      <point x="491" y="890" type="line"/>
      <point x="399" y="890" type="line"/>
      <point x="399" y="797" type="line"/>
      <point x="491" y="797" type="line"/>
    </contour>
    <contour>
      <point x="631" y="708" type="line"/>
      <point x="535" y="708" type="line"/>
      <point x="535" y="238" type="line" smooth="yes"/>
      <point x="535" y="132"/>
      <point x="475" y="80"/>
      <point x="354" y="80" type="curve" smooth="yes"/>
      <point x="233" y="80"/>
      <point x="174" y="132"/>
      <point x="174" y="238" type="curve" smooth="yes"/>
      <point x="174" y="708" type="line"/>
      <point x="78" y="708" type="line"/>
      <point x="78" y="238" type="line" smooth="yes"/>
      <point x="78" y="81"/>
      <point x="178" y="-9"/>
      <point x="354" y="-9" type="curve" smooth="yes"/>
      <point x="529" y="-9"/>
      <point x="631" y="82"/>
      <point x="631" y="238" type="curve" smooth="yes"/>
    </contour>
  </outline>
</glyph>
<glyph name="iacute" format="1">
  <advance width="258"/>
  <unicode hex="00ED"/>
  <outline>
    <contour>
      <point x="216" y="765" type="line"/>
      <point x="83" y="601" type="line"/>
      <point x="120" y="567" type="line"/>
      <point x="276" y="703" type="line"/>
    </contour>
    <contour>
      <point x="176" y="514" type="line"/>
      <point x="82" y="514" type="line"/>
      <point x="82" y="0" type="line"/>
      <point x="176" y="0" type="line"/>
    </contour>
  </outline>
</glyph>
<glyph name="Amacron" format="1">
  <advance width="644"/>
  <unicode hex="0100"/>
  <outline>
    <contour>
      <point x="473" y="878" type="line"/>
      <point x="169" y="878" type="line"/>
      <point x="169" y="808" type="line"/>
      <point x="473" y="808" type="line"/>
    </contour>
    <contour>
      <point x="631" y="0" type="line"/>
      <point x="378" y="708" type="line"/>
      <point x="258" y="708" type="line"/>
      <point x="14" y="0" type="line"/>
      <point x="111" y="0" type="line"/>
      <point x="181" y="205" type="line"/>
      <point x="464" y="205" type="line"/>
      <point x="537" y="0" type="line"/>
    </contour>
    <contour>
      <point x="210" y="290" type="line"/>
      <point x="317" y="609" type="line"/>
      <point x="323" y="609" type="line"/>
      <point x="434" y="290" type="line"/>
    </contour>
  </outline>
</glyph>
<glyph name="Emacron" format="1">
  <advance width="560"/>
  <unicode hex="0112"/>
  <outline>
    <contour>
      <point x="464" y="878" type="line"/>
      <point x="160" y="878" type="line"/>
      <point x="160" y="808" type="line"/>
      <point x="464" y="808" type="line"/>
    </contour>
    <contour>
      <point x="514" y="708" type="line"/>
      <point x="93" y="708" type="line"/>
      <point x="93" y="0" type="line"/>
      <point x="525" y="0" type="line"/>
      <point x="525" y="85" type="line"/>
      <point x="189" y="85" type="line"/>
      <point x="189" y="328" type="line"/>
      <point x="481" y="328" type="line"/>
      <point x="481" y="413" type="line"/>
      <point x="189" y="413" type="line"/>
      <point x="189" y="623" type="line"/>
      <point x="514" y="623" type="line"/>
    </contour>
  </outline>
</glyph>
<glyph name="eogonek" format="1">
  <advance width="536"/>
  <unicode hex="0119"/>
  <outline>
    <contour>
      <point x="287" y="-180"/>
      <point x="336" y="-208"/>
      <point x="383" y="-208" type="curve" smooth="yes"/>
      <point x="421" y="-208"/>
      <point x="448" y="-198"/>
      <point x="478" y="-182" type="curve"/>
      <point x="464" y="-142" type="line"/>
      <point x="449" y="-148"/>
      <point x="432" y="-152"/>
      <point x="416" y="-152" type="curve" smooth="yes"/>
      <point x="392" y="-152"/>
      <point x="370" y="-135"/>
      <point x="370" y="-99" type="curve" smooth="yes"/>
      <point x="370" y="-37"/>
      <point x="417" y="3"/>
      <point x="480" y="42" type="curve"/>
      <point x="450" y="112" type="line"/>
      <point x="389" y="86"/>
      <point x="344" y="75"/>
      <point x="292" y="75" type="curve" smooth="yes"/>
      <point x="186" y="75"/>
      <point x="139" y="150"/>
      <point x="139" y="235" type="curve" smooth="yes"/>
      <point x="139" y="240" type="line"/>
      <point x="498" y="240" type="line"/>
      <point x="498" y="261" type="line" smooth="yes"/>
      <point x="498" y="437"/>
      <point x="428" y="523"/>
      <point x="284" y="523" type="curve" smooth="yes"/>
      <point x="131" y="523"/>
      <point x="43" y="426"/>
      <point x="43" y="258" type="curve" smooth="yes"/>
      <point x="43" y="90"/>
      <point x="133" y="-8"/>
      <point x="287" y="-8" type="curve" smooth="yes"/>
      <point x="305" y="-8"/>
      <point x="325" y="-6"/>
      <point x="333" y="-5" type="curve"/>
      <point x="335" y="-9" type="line"/>
      <point x="306" y="-37"/>
      <point x="287" y="-74"/>
      <point x="287" y="-114" type="curve" smooth="yes"/>
    </contour>
    <contour>
      <point x="144" y="319" type="line"/>
      <point x="159" y="398"/>
      <point x="206" y="440"/>
      <point x="284" y="440" type="curve" smooth="yes"/>
      <point x="355" y="440"/>
      <point x="395" y="399"/>
      <point x="401" y="319" type="curve"/>
    </contour>
  </outline>
</glyph>
<glyph name="gbreve" format="1">
  <advance width="593"/>
  <unicode hex="011F"/>
  <outline>
    <contour>
      <point x="367" y="707" type="line"/>
      <point x="367" y="667"/>
      <point x="334" y="638"/>
      <point x="287" y="638" type="curve" smooth="yes"/>
      <point x="239" y="638"/>
      <point x="208" y="665"/>
      <point x="208" y="707" type="curve"/>
      <point x="144" y="707" type="line"/>
      <point x="144" y="627"/>
      <point x="201" y="573"/>
      <point x="287" y="573" type="curve" smooth="yes"/>
      <point x="373" y="573"/>
      <point x="431" y="627"/>
      <point x="431" y="707" type="curve"/>
    </contour>
    <contour>
      <point x="136" y="518"/>
      <point x="43" y="420"/>
      <point x="43" y="249" type="curve" smooth="yes"/>
      <point x="43" y="85"/>
      <point x="125" y="-8"/>
      <point x="269" y="-8" type="curve" smooth="yes"/>
      <point x="325" y="-8"/>
      <point x="375" y="14"/>
      <point x="416" y="58" type="curve"/>
      <point x="416" y="-16" type="line" smooth="yes"/>
      <point x="416" y="-104"/>
      <point x="364" y="-153"/>
      <point x="270" y="-153" type="curve" smooth="yes"/>
      <point x="213" y="-153"/>
      <point x="142" y="-135"/>
      <point x="94" y="-108" type="curve"/>
      <point x="59" y="-183" type="line"/>
      <point x="114" y="-217"/>
      <point x="189" y="-236"/>
      <point x="264" y="-236" type="curve" smooth="yes"/>
      <point x="416" y="-236"/>
      <point x="510" y="-151"/>
      <point x="510" y="-14" type="curve" smooth="yes"/>
      <point x="510" y="514" type="line"/>
      <point x="432" y="514" type="line"/>
      <point x="421" y="482" type="line"/>
      <point x="389" y="505"/>
      <point x="345" y="518"/>
      <point x="300" y="518" type="curve" smooth="yes"/>
    </contour>
    <contour>
      <point x="343" y="440"/>
      <point x="385" y="429"/>
      <point x="416" y="410" type="curve"/>
      <point x="416" y="178" type="line"/>
      <point x="395" y="114"/>
      <point x="342" y="75"/>
      <point x="275" y="75" type="curve" smooth="yes"/>
      <point x="188" y="75"/>
      <point x="139" y="138"/>
      <point x="139" y="249" type="curve" smooth="yes"/>
      <point x="139" y="367"/>
      <point x="202" y="440"/>
      <point x="305" y="440" type="curve" smooth="yes"/>
    </contour>
  </outline>
</glyph>
<glyph name="imacron" format="1">
  <advance width="258"/>
  <unicode hex="012B"/>
  <outline>
    <contour>
      <point x="284" y="684" type="line"/>
      <point x="-20" y="684" type="line"/>
      <point x="-20" y="614" type="line"/>
      <point x="284" y="614" type="line"/>
    </contour>
    <contour>
      <point x="176" y="514" type="line"/>
      <point x="82" y="514" type="line"/>
      <point x="82" y="0" type="line"/>
      <point x="176" y="0" type="line"/>
    </contour>
  </outline>
</glyph>
<glyph name="iogonek" format="1">
  <advance width="258"/>
  <unicode hex="012F"/>
  <outline>
    <contour>
      <point x="176" y="704" type="line"/>
      <point x="82" y="704" type="line"/>
      <point x="82" y="608" type="line"/>
      <point x="176" y="608" type="line"/>
    </contour>
    <contour>
      <point x="19" y="-183"/>
      <point x="63" y="-225"/>
      <point x="120" y="-225" type="curve" smooth="yes"/>
      <point x="158" y="-225"/>
      <point x="185" y="-215"/>
      <point x="215" y="-199" type="curve"/>
      <point x="201" y="-159" type="line"/>
      <point x="186" y="-165"/>
      <point x="169" y="-169"/>
      <point x="153" y="-169" type="curve" smooth="yes"/>
      <point x="116" y="-169"/>
      <point x="103" y="-142"/>
      <point x="103" y="-113" type="curve" smooth="yes"/>
      <point x="103" y="-62"/>
      <point x="137" y="-32"/>
      <point x="176" y="0" type="curve"/>
      <point x="176" y="514" type="line"/>
      <point x="82" y="514" type="line"/>
      <point x="82" y="0" type="line"/>
      <point x="98" y="0" type="line"/>
      <point x="63" y="-29"/>
      <point x="19" y="-74"/>
      <point x="19" y="-131" type="curve" smooth="yes"/>
    </contour>
  </outline>
</glyph>
<glyph name="Lacute" format="1">
  <advance width="523"/>
  <unicode hex="0139"/>
  <outline>
    <contour>
      <point x="230" y="941" type="line"/>
      <point x="97" y="777" type="line"/>
      <point x="134" y="743" type="line"/>
      <point x="290" y="879" type="line"/>
    </contour>
    <contour>
      <point x="189" y="708" type="line"/>
      <point x="93" y="708" type="line"/>
      <point x="93" y="0" type="line"/>
      <point x="512" y="0" type="line"/>
      <point x="512" y="85" type="line"/>
      <point x="189" y="85" type="line"/>
    </contour>
  </outline>
</glyph>
<glyph name="lcaron" format="1">
  <advance width="344"/>
  <unicode hex="013E"/>
  <outline>
    <contour>
      <point x="358" y="780" type="line"/>
      <point x="273" y="792" type="line"/>
      <point x="273" y="600" type="line"/>
      <point x="322" y="596" type="line"/>
    </contour>
    <contour>
      <point x="177" y="750" type="line"/>
      <point x="83" y="750" type="line"/>
      <point x="83" y="0" type="line"/>
      <point x="177" y="0" type="line"/>
    </contour>
  </outline>
</glyph>
<glyph name="Lslash" format="1">
  <advance width="523"/>
  <unicode hex="0141"/>
  <outline>
    <contour>
      <point x="512" y="85" type="line"/>
      <point x="189" y="85" type="line"/>
      <point x="189" y="358" type="line"/>
      <point x="379" y="468" type="line"/>
      <point x="379" y="561" type="line"/>
      <point x="189" y="451" type="line"/>
      <point x="189" y="708" type="line"/>
      <point x="93" y="708" type="line"/>
      <point x="93" y="396" type="line"/>
      <point x="20" y="354" type="line"/>
      <point x="20" y="261" type="line"/>
      <point x="93" y="303" type="line"/>
      <point x="93" y="0" type="line"/>
      <point x="512" y="0" type="line"/>
    </contour>
  </outline>
</glyph>
<glyph name="uni0145" format="1">
  <advance width="737"/>
  <unicode hex="0145"/>
  <outline>
    <contour>
      <point x="644" y="708" type="line"/>
      <point x="553" y="708" type="line"/>
      <point x="553" y="154" type="line"/>
      <point x="515" y="216"/>
      <point x="478" y="277"/>
      <point x="436" y="336" type="curve" smooth="yes"/>
      <point x="174" y="708" type="line"/>
      <point x="93" y="708" type="line"/>
      <point x="93" y="0" type="line"/>
      <point x="184" y="0" type="line"/>
      <point x="184" y="556" type="line"/>
      <point x="219" y="497"/>
      <point x="255" y="438"/>
      <point x="294" y="382" type="curve" smooth="yes"/>
      <point x="563" y="0" type="line"/>
      <point x="644" y="0" type="line"/>
    </contour>
    <contour>
      <point x="360" y="-215" type="line"/>
      <point x="402" y="-139"/>
      <point x="414" y="-105"/>
      <point x="424" y="-47" type="curve"/>
      <point x="330" y="-47" type="line"/>
      <point x="326" y="-107"/>
      <point x="318" y="-152"/>
      <point x="300" y="-215" type="curve"/>
    </contour>
  </outline>
</glyph>
<glyph name="ohungarumlaut" format="1">
  <advance width="574"/>
  <unicode hex="0151"/>
  <outline>
    <contour>
      <point x="293" y="765" type="line"/>
      <point x="159" y="601" type="line"/>
      <point x="196" y="567" type="line"/>
      <point x="353" y="703" type="line"/>
    </contour>
    <contour>
      <point x="463" y="765" type="line"/>
      <point x="329" y="601" type="line"/>
      <point x="366" y="567" type="line"/>
      <point x="523" y="703" type="line"/>
    </contour>
    <contour>
      <point x="132" y="524"/>
      <point x="43" y="426"/>
      <point x="43" y="258" type="curve" smooth="yes"/>
      <point x="43" y="90"/>
      <point x="132" y="-8"/>
      <point x="287" y="-8" type="curve" smooth="yes"/>
      <point x="442" y="-8"/>
      <point x="531" y="90"/>
      <point x="531" y="258" type="curve" smooth="yes"/>
      <point x="531" y="426"/>
      <point x="442" y="524"/>
      <point x="287" y="524" type="curve" smooth="yes"/>
    </contour>
    <contour>
      <point x="383" y="441"/>
      <point x="435" y="376"/>
      <point x="435" y="258" type="curve" smooth="yes"/>
      <point x="435" y="140"/>
      <point x="383" y="75"/>
      <point x="287" y="75" type="curve" smooth="yes"/>
      <point x="191" y="75"/>
      <point x="139" y="140"/>
      <point x="139" y="258" type="curve" smooth="yes"/>
      <point x="139" y="376"/>
      <point x="191" y="441"/>
      <point x="287" y="441" type="curve" smooth="yes"/>
    </contour>
  </outline>
</glyph>
<glyph name="uni0156" format="1">
  <advance width="612"/>
  <unicode hex="0156"/>
  <outline>
    <contour>
      <point x="581" y="0" type="line"/>
      <point x="420" y="308" type="line"/>
      <point x="507" y="338"/>
      <point x="555" y="404"/>
      <point x="555" y="500" type="curve" smooth="yes"/>
      <point x="555" y="635"/>
      <point x="467" y="708"/>
      <point x="302" y="708" type="curve" smooth="yes"/>
      <point x="93" y="708" type="line"/>
      <point x="93" y="0" type="line"/>
      <point x="189" y="0" type="line"/>
      <point x="189" y="291" type="line"/>
      <point x="302" y="291" type="line"/>
      <point x="320" y="291" type="line"/>
      <point x="470" y="0" type="line"/>
    </contour>
    <contour>
      <point x="189" y="376" type="line"/>
      <point x="189" y="623" type="line"/>
      <point x="302" y="623" type="line" smooth="yes"/>
      <point x="406" y="623"/>
      <point x="455" y="583"/>
      <point x="455" y="500" type="curve" smooth="yes"/>
      <point x="455" y="417"/>
      <point x="404" y="376"/>
      <point x="302" y="376" type="curve" smooth="yes"/>
    </contour>
    <contour>
      <point x="312" y="-215" type="line"/>
      <point x="354" y="-139"/>
      <point x="366" y="-105"/>
      <point x="376" y="-47" type="curve"/>
      <point x="282" y="-47" type="line"/>
      <point x="278" y="-107"/>
      <point x="270" y="-152"/>
      <point x="252" y="-215" type="curve"/>
    </contour>
  </outline>
</glyph>
<glyph name="rcaron" format="1">
  <advance width="381"/>
  <unicode hex="0159"/>
  <outline>
    <contour>
      <point x="386" y="711" type="line"/>
      <point x="349" y="745" type="line"/>
      <point x="234" y="657" type="line"/>
      <point x="120" y="745" type="line"/>
      <point x="83" y="711" type="line"/>
      <point x="216" y="577" type="line"/>
      <point x="253" y="577" type="line"/>
    </contour>
    <contour>
      <point x="157" y="514" type="line"/>
      <point x="82" y="514" type="line"/>
      <point x="82" y="0" type="line"/>
      <point x="176" y="0" type="line"/>
      <point x="176" y="362" type="line"/>
      <point x="203" y="410"/>
      <point x="238" y="430"/>
      <point x="295" y="430" type="curve" smooth="yes"/>
      <point x="311" y="430"/>
      <point x="327" y="427"/>
      <point x="361" y="420" type="curve"/>
      <point x="378" y="512" type="line"/>
      <point x="354" y="519"/>
      <point x="330" y="523"/>
      <point x="311" y="523" type="curve" smooth="yes"/>
      <point x="254" y="523"/>
      <point x="205" y="495"/>
      <point x="169" y="442" type="curve"/>
    </contour>
  </outline>
</glyph>
<glyph name="zdotaccent" format="1">
  <advance width="453"/>
  <unicode hex="017C"/>
  <outline>
    <contour>
      <point x="287" y="696" type="line"/>
      <point x="194" y="696" type="line"/>
      <point x="194" y="603" type="line"/>
      <point x="287" y="603" type="line"/>
    </contour>
    <contour>
      <point x="294" y="431" type="line"/>
      <point x="30" y="67" type="line"/>
      <point x="30" y="0" type="line"/>
      <point x="425" y="0" type="line"/>
      <point x="425" y="83" type="line"/>
      <point x="148" y="83" type="line"/>
      <point x="414" y="450" type="line"/>
      <point x="414" y="514" type="line"/>
      <point x="44" y="514" type="line"/>
      <point x="44" y="431" type="line"/>
    </contour>
  </outline>
</glyph>
<glyph name="florin" format="1">
  <advance width="469"/>
  <unicode hex="0192"/>
  <outline>
    <contour>
      <point x="-8" y="-176" type="line"/>
      <point x="105" y="-109"/>
      <point x="137" y="-66"/>
      <point x="157" y="43" type="curve" smooth="yes"/>
      <point x="228" y="442" type="line"/>
      <point x="388" y="442" type="line"/>
      <point x="401" y="514" type="line"/>
      <point x="241" y="514" type="line"/>
      <point x="250" y="567" type="line" smooth="yes"/>
      <point x="259" y="622"/>
      <point x="296" y="655"/>
      <point x="346" y="655" type="curve" smooth="yes"/>
      <point x="373" y="655"/>
      <point x="402" y="652"/>
      <point x="431" y="646" type="curve"/>
      <point x="458" y="716" type="line"/>
      <point x="417" y="726"/>
      <point x="382" y="730"/>
      <point x="347" y="730" type="curve" smooth="yes"/>
      <point x="246" y="730"/>
      <point x="175" y="666"/>
      <point x="157" y="560" type="curve" smooth="yes"/>
      <point x="149" y="514" type="line"/>
      <point x="53" y="514" type="line"/>
      <point x="40" y="442" type="line"/>
      <point x="136" y="442" type="line"/>
      <point x="66" y="47" type="line" smooth="yes"/>
      <point x="52" y="-30"/>
      <point x="29" y="-62"/>
      <point x="-53" y="-118" type="curve"/>
    </contour>
  </outline>
</glyph>
<glyph name="circumflex" format="1">
  <advance width="403"/>
  <unicode hex="02C6"/>
  <outline>
    <contour>
      <point x="353" y="601" type="line"/>
      <point x="220" y="735" type="line"/>
      <point x="183" y="735" type="line"/>
      <point x="50" y="601" type="line"/>
      <point x="87" y="567" type="line"/>
      <point x="201" y="655" type="line"/>
      <point x="316" y="567" type="line"/>
    </contour>
  </outline>
</glyph>
<glyph name="tildecomb" format="1">
  <advance width="0"/>
  <unicode hex="0303"/>
  <outline>
    <contour>
      <point x="214" y="649"/>
      <point x="226" y="590"/>
      <point x="302" y="590" type="curve" smooth="yes"/>
      <point x="367" y="590"/>
      <point x="410" y="637"/>
      <point x="410" y="709" type="curve"/>
      <point x="346" y="709" type="line"/>
      <point x="346" y="679"/>
      <point x="330" y="660"/>
      <point x="305" y="660" type="curve" smooth="yes"/>
      <point x="249" y="660"/>
      <point x="241" y="718"/>
      <point x="163" y="718" type="curve" smooth="yes"/>
      <point x="94" y="718"/>
      <point x="50" y="671"/>
      <point x="50" y="599" type="curve"/>
      <point x="114" y="599" type="line"/>
      <point x="114" y="630"/>
      <point x="133" y="649"/>
      <point x="162" y="649" type="curve" smooth="yes"/>
    </contour>
  </outline>
</glyph>
<glyph name="candraBindu-deva" format="1">
  <advance width="422"/>
  <unicode hex="0901"/>
  <outline>
    <component base="eCandraMatra-deva"/>
    <component base="nukta-deva" xOffset="143" yOffset="1025"/>
    <contour>
      <point x="211" y="658" type="move" name="_top"/>
    </contour>
  </outline>
</glyph>
<glyph name="anusvara-deva" format="1">
  <advance width="142"/>
  <unicode hex="0902"/>
  <outline>
    <component base="nukta-deva" yOffset="869"/>
    <contour>
      <point x="65" y="658" type="move" name="_top"/>
    </contour>
  </outline>
</glyph>
<glyph name="aShort-deva" format="1">
  <advance width="788"/>
  <unicode hex="0904"/>
  <outline>
    <component base="a-deva"/>
    <component base="eShortMatra-deva" xOffset="243"/>
    <contour>
      <point x="635" y="658" type="move" name="top"/>
    </contour>
    <contour>
      <point x="635" y="0" type="move" name="bottom"/>
    </contour>
  </outline>
</glyph>
<glyph name="u-deva" format="1">
  <advance width="495"/>
  <unicode hex="0909"/>
  <outline>
    <contour>
      <point x="257" y="344" type="line"/>
      <point x="316" y="312"/>
      <point x="352" y="270"/>
      <point x="352" y="213" type="curve" smooth="yes"/>
      <point x="352" y="155"/>
      <point x="315" y="106"/>
      <point x="237" y="106" type="curve"/>
      <point x="178" y="106"/>
      <point x="112" y="148"/>
      <point x="76" y="216" type="curve"/>
      <point x="15" y="182" type="line"/>
      <point x="64" y="85"/>
      <point x="148" y="32"/>
      <point x="237" y="32" type="curve"/>
      <point x="349" y="32"/>
      <point x="436" y="101"/>
      <point x="436" y="213" type="curve" smooth="yes"/>
      <point x="436" y="299"/>
      <point x="383" y="369"/>
      <point x="295" y="410" type="curve"/>
    </contour>
    <contour>
      <point x="258" y="596" type="line"/>
      <point x="297" y="570"/>
      <point x="317" y="538"/>
      <point x="317" y="501" type="curve"/>
      <point x="317" y="439"/>
      <point x="272" y="405"/>
      <point x="147" y="378" type="curve"/>
      <point x="165" y="309" type="line"/>
      <point x="326" y="344"/>
      <point x="401" y="406"/>
      <point x="401" y="501" type="curve"/>
      <point x="401" y="558"/>
      <point x="371" y="606"/>
      <point x="310" y="642" type="curve"/>
    </contour>
    <contour>
      <point x="-30" y="658" type="line"/>
      <point x="-30" y="583" type="line"/>
      <point x="525" y="583" type="line"/>
      <point x="525" y="658" type="line"/>
    </contour>
    <contour>
      <point x="301" y="658" type="move" name="top"/>
    </contour>
    <contour>
      <point x="262" y="0" type="move" name="bottom"/>
    </contour>
  </outline>
</glyph>
<glyph name="eCandra-deva" format="1">
  <advance width="541"/>
  <unicode hex="090D"/>
  <outline>
    <component base="e-deva"/>
    <component base="eCandraMatra-deva" xOffset="206"/>
    <contour>
      <point x="413" y="846" type="move" name="top"/>
    </contour>
    <contour>
      <point x="270" y="0" type="move" name="bottom"/>
    </contour>
  </outline>
</glyph>
<glyph name="e-deva" format="1">
  <advance width="541"/>
  <unicode hex="090F"/>
  <outline>
    <contour>
      <point x="76" y="609" type="line"/>
      <point x="76" y="288" type="line" smooth="yes"/>
      <point x="76" y="232"/>
      <point x="101" y="180"/>
      <point x="148" y="154" type="curve" smooth="yes"/>
      <point x="334" y="50" type="line" smooth="yes"/>
      <point x="359" y="36"/>
      <point x="373" y="12"/>
      <point x="373" y="-14" type="curve" smooth="yes"/>
      <point x="373" y="-36"/>
      <point x="363" y="-59"/>
      <point x="344" y="-78" type="curve"/>
      <point x="406" y="-135" type="line"/>
      <point x="441" y="-100"/>
      <point x="458" y="-57"/>
      <point x="458" y="-15" type="curve" smooth="yes"/>
      <point x="458" y="35"/>
      <point x="434" y="82"/>
      <point x="388" y="109" type="curve" smooth="yes"/>
      <point x="201" y="219" type="line" smooth="yes"/>
      <point x="172" y="236"/>
      <point x="161" y="266"/>
      <point x="161" y="308" type="curve" smooth="yes"/>
      <point x="161" y="609" type="line"/>
    </contour>
    <contour>
      <point x="373" y="609" type="line"/>
      <point x="373" y="381" type="line" smooth="yes"/>
      <point x="373" y="341"/>
      <point x="349" y="303"/>
      <point x="308" y="280" type="curve"/>
      <point x="364" y="225" type="line"/>
      <point x="423" y="256"/>
      <point x="458" y="311"/>
      <point x="458" y="372" type="curve" smooth="yes"/>
      <point x="458" y="609" type="line"/>
    </contour>
    <contour>
      <point x="-10" y="658" type="line"/>
      <point x="-10" y="583" type="line"/>
      <point x="551" y="583" type="line"/>
      <point x="551" y="658" type="line"/>
    </contour>
    <contour>
      <point x="417" y="658" type="move" name="top"/>
    </contour>
    <contour>
      <point x="264" y="0" type="move" name="bottom"/>
    </contour>
  </outline>
</glyph>
<glyph name="oCandra-deva" format="1">
  <advance width="1065"/>
  <unicode hex="0911"/>
  <outline>
    <component base="aa-deva"/>
    <component base="eCandraMatra-deva" xOffset="702"/>
    <contour>
      <point x="918" y="851" type="move" name="top"/>
    </contour>
    <contour>
      <point x="922" y="0" type="move" name="bottom"/>
    </contour>
  </outline>
</glyph>
<glyph name="au-deva" format="1">
  <advance width="1065"/>
  <unicode hex="0914"/>
  <outline>
    <component base="aa-deva"/>
    <component base="aiMatra-deva" xOffset="542"/>
    <contour>
      <point x="925" y="658" type="move" name="top"/>
    </contour>
    <contour>
      <point x="918" y="0" type="move" name="bottom"/>
    </contour>
  </outline>
</glyph>
<glyph name="ka-deva" format="1">
  <advance width="845"/>
  <unicode hex="0915"/>
  <outline>
    <contour>
      <point x="523" y="479"/>
      <point x="462" y="439"/>
      <point x="403" y="339" type="curve"/>
      <point x="461" y="301" type="line"/>
      <point x="504" y="376"/>
      <point x="543" y="404"/>
      <point x="605" y="404" type="curve" smooth="yes"/>
      <point x="668" y="404"/>
      <point x="710" y="362"/>
      <point x="710" y="299" type="curve" smooth="yes"/>
      <point x="710" y="223"/>
      <point x="658" y="188"/>
      <point x="582" y="188" type="curve" smooth="yes"/>
      <point x="557" y="188"/>
      <point x="533" y="193"/>
      <point x="516" y="201" type="curve"/>
      <point x="528" y="126" type="line"/>
      <point x="546" y="118"/>
      <point x="569" y="113"/>
      <point x="595" y="113" type="curve" smooth="yes"/>
      <point x="708" y="113"/>
      <point x="794" y="182"/>
      <point x="794" y="299" type="curve" smooth="yes"/>
      <point x="794" y="403"/>
      <point x="719" y="479"/>
      <point x="615" y="479" type="curve" smooth="yes"/>
    </contour>
    <contour>
      <point x="136" y="479"/>
      <point x="50" y="410"/>
      <point x="50" y="293" type="curve" smooth="yes"/>
      <point x="50" y="189"/>
      <point x="125" y="113"/>
      <point x="229" y="113" type="curve" smooth="yes"/>
      <point x="321" y="113"/>
      <point x="382" y="153"/>
      <point x="441" y="253" type="curve"/>
      <point x="383" y="291" type="line"/>
      <point x="340" y="216"/>
      <point x="301" y="188"/>
      <point x="239" y="188" type="curve" smooth="yes"/>
      <point x="176" y="188"/>
      <point x="134" y="230"/>
      <point x="134" y="293" type="curve" smooth="yes"/>
      <point x="134" y="369"/>
      <point x="186" y="404"/>
      <point x="262" y="404" type="curve" smooth="yes"/>
      <point x="287" y="404"/>
      <point x="311" y="399"/>
      <point x="328" y="391" type="curve"/>
      <point x="316" y="466" type="line"/>
      <point x="298" y="474"/>
      <point x="275" y="479"/>
      <point x="249" y="479" type="curve" smooth="yes"/>
    </contour>
    <contour>
      <point x="380" y="609" type="line"/>
      <point x="380" y="0" type="line"/>
      <point x="465" y="0" type="line"/>
      <point x="465" y="609" type="line"/>
    </contour>
    <contour>
      <point x="-20" y="658" type="line"/>
      <point x="-20" y="583" type="line"/>
      <point x="865" y="583" type="line"/>
      <point x="865" y="658" type="line"/>
    </contour>
    <contour>
      <point x="229" y="0" type="move" name="nukta"/>
    </contour>
    <contour>
      <point x="422" y="0" type="move" name="bottom"/>
    </contour>
    <contour>
      <point x="423" y="658" type="move" name="top"/>
    </contour>
  </outline>
</glyph>
<glyph name="kha-deva" format="1">
  <advance width="908"/>
  <unicode hex="0916"/>
  <outline>
    <component base="kh-deva"/>
    <component base="aaMatra-deva" xOffset="602"/>
    <contour>
      <point x="177" y="-50" type="move" name="nukta"/>
    </contour>
    <contour>
      <point x="755" y="0" type="move" name="bottom"/>
    </contour>
    <contour>
      <point x="755" y="658" type="move" name="top"/>
    </contour>
  </outline>
</glyph>
<glyph name="ga-deva" format="1">
  <advance width="588"/>
  <unicode hex="0917"/>
  <outline>
    <component base="g-deva"/>
    <component base="aaMatra-deva" xOffset="282"/>
    <contour>
      <point x="146" y="50" type="move" name="nukta"/>
    </contour>
    <contour>
      <point x="435" y="0" type="move" name="bottom"/>
    </contour>
    <contour>
      <point x="435" y="658" type="move" name="top"/>
    </contour>
  </outline>
</glyph>
<glyph name="gha-deva" format="1">
  <advance width="654"/>
  <unicode hex="0918"/>
  <outline>
    <component base="gh-deva"/>
    <component base="aaMatra-deva" xOffset="348"/>
    <contour>
      <point x="502" y="658" type="move" name="top"/>
    </contour>
    <contour>
      <point x="501" y="0" type="move" name="bottom"/>
    </contour>
  </outline>
</glyph>
<glyph name="nga-deva" format="1">
  <advance width="631"/>
  <unicode hex="0919"/>
  <outline>
    <contour>
      <point x="509" y="583" type="line"/>
      <point x="651" y="583" type="line"/>
      <point x="651" y="658" type="line"/>
      <point x="509" y="658" type="line"/>
    </contour>
    <component base="dda-deva"/>
    <component base="nukta-deva" xOffset="480" yOffset="490"/>
    <contour>
      <point x="403" y="658" type="move" name="top"/>
    </contour>
    <contour>
      <point x="322" y="0" type="move" name="bottom"/>
    </contour>
  </outline>
</glyph>
<glyph name="cha-deva" format="1">
  <advance width="743"/>
  <unicode hex="091B"/>
  <outline>
    <contour>
      <point x="495" y="606" type="line"/>
      <point x="495" y="484" type="line"/>
      <point x="580" y="484" type="line"/>
      <point x="580" y="606" type="line"/>
    </contour>
    <component base="ch-deva"/>
    <contour>
      <point x="539" y="658" type="move" name="top"/>
    </contour>
    <contour>
      <point x="380" y="0" type="move" name="bottom"/>
    </contour>
  </outline>
</glyph>
<glyph name="jha-deva" format="1">
  <advance width="789"/>
  <unicode hex="091D"/>
  <outline>
    <component base="jh-deva"/>
    <component base="aaMatra-deva" xOffset="483"/>
    <contour>
      <point x="636" y="658" type="move" name="top"/>
    </contour>
    <contour>
      <point x="636" y="-132" type="move" name="bottom"/>
    </contour>
  </outline>
</glyph>
<glyph name="nya-deva" format="1">
  <advance width="756"/>
  <unicode hex="091E"/>
  <outline>
    <component base="ny-deva"/>
    <component base="aaMatra-deva" xOffset="450"/>
    <contour>
      <point x="211" y="0" type="move" name="nukta"/>
    </contour>
    <contour>
      <point x="603" y="0" type="move" name="bottom"/>
    </contour>
    <contour>
      <point x="604" y="658" type="move" name="top"/>
    </contour>
  </outline>
</glyph>
<glyph name="nna-deva" format="1">
  <advance width="726"/>
  <unicode hex="0923"/>
  <outline>
    <component base="nn-deva"/>
    <component base="aaMatra-deva" xOffset="420"/>
    <contour>
      <point x="573" y="658" type="move" name="top"/>
    </contour>
    <contour>
      <point x="573" y="0" type="move" name="bottom"/>
    </contour>
  </outline>
</glyph>
<glyph name="ta-deva" format="1">
  <advance width="595"/>
  <unicode hex="0924"/>
  <outline>
    <component base="t-deva"/>
    <component base="aaMatra-deva" xOffset="289"/>
    <contour>
      <point x="443" y="658" type="move" name="top"/>
    </contour>
    <contour>
      <point x="442" y="0" type="move" name="bottom"/>
    </contour>
  </outline>
</glyph>
<glyph name="nnna-deva" format="1">
  <advance width="595"/>
  <unicode hex="0929"/>
  <outline>
    <component base="nnn-deva"/>
    <component base="aaMatra-deva" xOffset="289"/>
    <contour>
      <point x="453" y="657" type="move" name="top"/>
    </contour>
    <contour>
      <point x="451" y="0" type="move" name="bottom"/>
    </contour>
  </outline>
</glyph>
<glyph name="pa-deva" format="1">
  <advance width="555"/>
  <unicode hex="092A"/>
  <outline>
    <component base="p-deva"/>
    <component base="aaMatra-deva" xOffset="249"/>
    <contour>
      <point x="404" y="658" type="move" name="top"/>
    </contour>
    <contour>
      <point x="404" y="0" type="move" name="bottom"/>
    </contour>
  </outline>
</glyph>
<glyph name="pha-deva" format="1">
  <advance width="822"/>
  <unicode hex="092B"/>
  <outline>
    <contour>
      <point x="501" y="477"/>
      <point x="440" y="437"/>
      <point x="381" y="337" type="curve"/>
      <point x="439" y="299" type="line"/>
      <point x="482" y="375"/>
      <point x="521" y="403"/>
      <point x="583" y="403" type="curve" smooth="yes"/>
      <point x="647" y="403"/>
      <point x="688" y="361"/>
      <point x="688" y="297" type="curve" smooth="yes"/>
      <point x="688" y="233"/>
      <point x="641" y="188"/>
      <point x="574" y="188" type="curve" smooth="yes"/>
      <point x="562" y="188"/>
      <point x="558" y="188"/>
      <point x="555" y="189" type="curve"/>
      <point x="565" y="113" type="line"/>
      <point x="568" y="113"/>
      <point x="571" y="113"/>
      <point x="574" y="113" type="curve" smooth="yes"/>
      <point x="692" y="113"/>
      <point x="772" y="189"/>
      <point x="772" y="297" type="curve" smooth="yes"/>
      <point x="772" y="405"/>
      <point x="693" y="477"/>
      <point x="593" y="477" type="curve" smooth="yes"/>
    </contour>
    <contour>
      <point x="406" y="658" type="line"/>
      <point x="406" y="583" type="line"/>
      <point x="842" y="583" type="line"/>
      <point x="842" y="658" type="line"/>
    </contour>
    <component base="pa-deva" xOffset="2"/>
    <contour>
      <point x="215" y="73" type="move" name="nukta"/>
    </contour>
    <contour>
      <point x="411" y="0" type="move" name="bottom"/>
    </contour>
    <contour>
      <point x="411" y="658" type="move" name="top"/>
    </contour>
  </outline>
</glyph>
<glyph name="ba-deva" format="1">
  <advance width="580"/>
  <unicode hex="092C"/>
  <outline>
    <component base="b-deva"/>
    <component base="aaMatra-deva" xOffset="274"/>
    <contour>
      <point x="428" y="658" type="move" name="top"/>
    </contour>
    <contour>
      <point x="427" y="0" type="move" name="bottom"/>
    </contour>
  </outline>
</glyph>
<glyph name="la-deva" format="1">
  <advance width="733"/>
  <unicode hex="0932"/>
  <outline>
    <component base="l-deva"/>
    <component base="aaMatra-deva" xOffset="427"/>
    <contour>
      <point x="580" y="658" type="move" name="top"/>
    </contour>
    <contour>
      <point x="580" y="0" type="move" name="bottom"/>
    </contour>
  </outline>
</glyph>
<glyph name="llla-deva" format="1">
  <advance width="823"/>
  <unicode hex="0934"/>
  <outline>
    <component base="lla-deva"/>
    <component base="nukta-deva" xOffset="334" yOffset="103"/>
    <contour>
      <point x="580" y="658" type="move" name="top"/>
    </contour>
    <contour>
      <point x="412" y="0" type="move" name="bottom"/>
    </contour>
  </outline>
</glyph>
<glyph name="ssa-deva" format="1">
  <advance width="547"/>
  <unicode hex="0937"/>
  <outline>
    <component base="ss-deva"/>
    <component base="aaMatra-deva" xOffset="241"/>
    <contour>
      <point x="394" y="658" type="move" name="top"/>
    </contour>
    <contour>
      <point x="394" y="0" type="move" name="bottom"/>
    </contour>
  </outline>
</glyph>
<glyph name="sa-deva" format="1">
  <advance width="724"/>
  <unicode hex="0938"/>
  <outline>
    <component base="s-deva"/>
    <component base="aaMatra-deva" xOffset="418"/>
    <contour>
      <point x="69" y="0" type="move" name="nukta"/>
    </contour>
    <contour>
      <point x="571" y="0" type="move" name="bottom"/>
    </contour>
    <contour>
      <point x="571" y="658" type="move" name="top"/>
    </contour>
  </outline>
</glyph>
<glyph name="ha-deva" format="1">
  <advance width="532"/>
  <unicode hex="0939"/>
  <outline>
    <contour>
      <point x="175" y="309"/>
      <point x="94" y="238"/>
      <point x="94" y="131" type="curve" smooth="yes"/>
      <point x="94" y="8"/>
      <point x="185" y="-70"/>
      <point x="361" y="-93" type="curve"/>
      <point x="374" y="-19" type="line"/>
      <point x="245" y="-1"/>
      <point x="179" y="50"/>
      <point x="179" y="131" type="curve" smooth="yes"/>
      <point x="179" y="194"/>
      <point x="226" y="235"/>
      <point x="297" y="235" type="curve" smooth="yes"/>
      <point x="355" y="235"/>
      <point x="394" y="211"/>
      <point x="394" y="175" type="curve" smooth="yes"/>
      <point x="394" y="147"/>
      <point x="381" y="124"/>
      <point x="349" y="94" type="curve"/>
      <point x="397" y="41" type="line"/>
      <point x="453" y="77"/>
      <point x="479" y="122"/>
      <point x="479" y="178" type="curve" smooth="yes"/>
      <point x="479" y="257"/>
      <point x="406" y="309"/>
      <point x="297" y="309" type="curve" smooth="yes"/>
    </contour>
    <contour>
      <point x="175" y="478" type="line" smooth="yes"/>
      <point x="109" y="478"/>
      <point x="70" y="444"/>
      <point x="70" y="386" type="curve" smooth="yes"/>
      <point x="70" y="322"/>
      <point x="104" y="258"/>
      <point x="166" y="207" type="curve"/>
      <point x="222" y="258" type="line"/>
      <point x="178" y="288"/>
      <point x="154" y="329"/>
      <point x="154" y="369" type="curve" smooth="yes"/>
      <point x="154" y="391"/>
      <point x="166" y="403"/>
      <point x="190" y="403" type="curve" smooth="yes"/>
      <point x="410" y="403" type="line"/>
      <point x="326" y="478" type="line"/>
    </contour>
    <contour>
      <point x="326" y="599" type="line"/>
      <point x="326" y="435" type="line"/>
      <point x="410" y="403" type="line"/>
      <point x="410" y="599" type="line"/>
    </contour>
    <contour>
      <point x="-20" y="658" type="line"/>
      <point x="-20" y="583" type="line"/>
      <point x="552" y="583" type="line"/>
      <point x="552" y="658" type="line"/>
    </contour>
    <contour>
      <point x="369" y="658" type="move" name="top"/>
    </contour>
    <contour>
      <point x="266" y="-65" type="move" name="bottom"/>
    </contour>
  </outline>
</glyph>
<glyph name="ooeMatra-deva" format="1">
  <advance width="305"/>
  <unicode hex="093B"/>
  <outline>
    <contour>
      <point x="110" y="805" type="line"/>
      <point x="110" y="0" type="line"/>
      <point x="195" y="0" type="line"/>
      <point x="195" y="805" type="line"/>
    </contour>
    <contour>
      <point x="-3" y="658" type="line"/>
      <point x="-3" y="583" type="line"/>
      <point x="310" y="583" type="line"/>
      <point x="310" y="658" type="line"/>
    </contour>
    <contour>
      <point x="153" y="805" type="move" name="top"/>
    </contour>
    <contour>
      <point x="152" y="0" type="move" name="bottom"/>
    </contour>
  </outline>
</glyph>
<glyph name="aaMatra-deva" format="1">
  <advance width="306"/>
  <unicode hex="093E"/>
  <outline>
    <contour>
      <point x="110" y="606" type="line"/>
      <point x="110" y="0" type="line"/>
      <point x="195" y="0" type="line"/>
      <point x="195" y="606" type="line"/>
    </contour>
    <contour>
      <point x="-18" y="658" type="line"/>
      <point x="-18" y="583" type="line"/>
      <point x="324" y="583" type="line"/>
      <point x="324" y="658" type="line"/>
    </contour>
    <contour>
      <point x="154" y="658" type="move" name="top"/>
    </contour>
    <contour>
      <point x="153" y="0" type="move" name="bottom"/>
    </contour>
  </outline>
</glyph>
<glyph name="iiMatra-deva" format="1">
  <advance width="319"/>
  <unicode hex="0940"/>
  <outline>
    <contour>
      <point x="-220" y="915"/>
      <point x="-296" y="873"/>
      <point x="-296" y="803" type="curve" smooth="yes"/>
      <point x="-296" y="770"/>
      <point x="-287" y="742"/>
      <point x="-273" y="717" type="curve"/>
      <point x="-204" y="737" type="line"/>
      <point x="-211" y="752"/>
      <point x="-216" y="771"/>
      <point x="-216" y="785" type="curve" smooth="yes"/>
      <point x="-216" y="830"/>
      <point x="-170" y="841"/>
      <point x="-132" y="841" type="curve" smooth="yes"/>
      <point x="-68" y="841"/>
      <point x="-13" y="818"/>
      <point x="31" y="776" type="curve" smooth="yes"/>
      <point x="64" y="745"/>
      <point x="89" y="703"/>
      <point x="110" y="653" type="curve"/>
      <point x="191" y="653" type="line"/>
      <point x="163" y="723"/>
      <point x="133" y="774"/>
      <point x="93" y="816" type="curve" smooth="yes"/>
      <point x="33" y="880"/>
      <point x="-43" y="915"/>
      <point x="-146" y="915" type="curve" smooth="yes"/>
    </contour>
    <component base="aaMatra-deva"/>
    <contour>
      <point x="193" y="658" type="move" name="imatra"/>
    </contour>
    <contour>
      <point x="151" y="0" type="move" name="bottom"/>
    </contour>
    <contour>
      <point x="165" y="813" type="move" name="top"/>
    </contour>
  </outline>
</glyph>
<glyph name="uMatra-deva" format="1">
  <advance width="354"/>
  <unicode hex="0941"/>
  <outline>
    <contour>
      <point x="169" y="21"/>
      <point x="129" y="9"/>
      <point x="104" y="-10" type="curve"/>
      <point x="156" y="-70" type="line"/>
      <point x="173" y="-56"/>
      <point x="195" y="-48"/>
      <point x="216" y="-48" type="curve" smooth="yes"/>
      <point x="245" y="-48"/>
      <point x="257" y="-60"/>
      <point x="257" y="-84" type="curve" smooth="yes"/>
      <point x="257" y="-117"/>
      <point x="225" y="-145"/>
      <point x="180" y="-144" type="curve" smooth="yes"/>
      <point x="133" y="-145"/>
      <point x="94" y="-127"/>
      <point x="67" y="-94" type="curve"/>
      <point x="20" y="-137" type="line"/>
      <point x="66" y="-189"/>
      <point x="117" y="-212"/>
      <point x="189" y="-212" type="curve" smooth="yes"/>
      <point x="280" y="-213"/>
      <point x="334" y="-165"/>
      <point x="334" y="-90" type="curve" smooth="yes"/>
      <point x="334" y="-26"/>
      <point x="281" y="21"/>
      <point x="208" y="21" type="curve" smooth="yes"/>
    </contour>
    <contour>
      <point x="208" y="0" type="move" name="_bottom"/>
    </contour>
  </outline>
</glyph>
<glyph name="eCandraMatra-deva" format="1">
  <advance width="422"/>
  <unicode hex="0945"/>
  <outline>
    <contour>
      <point x="306" y="885" type="line"/>
      <point x="286" y="826"/>
      <point x="258" y="801"/>
      <point x="211" y="801" type="curve" smooth="yes"/>
      <point x="164" y="801"/>
      <point x="136" y="826"/>
      <point x="116" y="885" type="curve"/>
      <point x="50" y="865" type="line"/>
      <point x="76" y="775"/>
      <point x="129" y="731"/>
      <point x="211" y="731" type="curve" smooth="yes"/>
      <point x="293" y="731"/>
      <point x="346" y="775"/>
      <point x="372" y="865" type="curve"/>
    </contour>
    <contour>
      <point x="211" y="658" type="move" name="_top"/>
    </contour>
  </outline>
</glyph>
<glyph name="eShortMatra-deva" format="1">
  <advance width="452"/>
  <unicode hex="0946"/>
  <outline>
    <contour>
      <point x="10" y="891" type="line"/>
      <point x="55" y="798"/>
      <point x="105" y="776"/>
      <point x="199" y="760" type="curve" smooth="yes"/>
      <point x="284" y="744"/>
      <point x="329" y="731"/>
      <point x="352" y="648" type="curve"/>
      <point x="432" y="648" type="line"/>
      <point x="404" y="775"/>
      <point x="354" y="803"/>
      <point x="223" y="826" type="curve" smooth="yes"/>
      <point x="147" y="838"/>
      <point x="120" y="850"/>
      <point x="84" y="923" type="curve"/>
    </contour>
    <contour>
      <point x="392" y="658" type="move" name="_top"/>
    </contour>
  </outline>
</glyph>
<glyph name="eMatra-deva" format="1">
  <advance width="342"/>
  <unicode hex="0947"/>
  <outline>
    <contour>
      <point x="322" y="648" type="line"/>
      <point x="82" y="948" type="line"/>
      <point x="20" y="904" type="line"/>
      <point x="241" y="648" type="line"/>
    </contour>
    <contour>
      <point x="277" y="658" type="move" name="_top"/>
    </contour>
  </outline>
</glyph>
<glyph name="aiMatra-deva" format="1">
  <advance width="436"/>
  <unicode hex="0948"/>
  <outline>
    <contour>
      <point x="26" y="900" type="line"/>
      <point x="330" y="648" type="line"/>
      <point x="379" y="648" type="line"/>
      <point x="345" y="716" type="line"/>
      <point x="82" y="948" type="line"/>
    </contour>
    <contour>
      <point x="251" y="949" type="line"/>
      <point x="363" y="648" type="line"/>
      <point x="416" y="648" type="line"/>
      <point x="323" y="974" type="line"/>
    </contour>
    <contour>
      <point x="371" y="658" type="move" name="_top"/>
    </contour>
  </outline>
</glyph>
<glyph name="oCandraMatra-deva" format="1">
  <advance width="306"/>
  <unicode hex="0949"/>
  <outline>
    <component base="aaMatra-deva"/>
    <component base="eCandraMatra-deva" xOffset="-57"/>
    <contour>
      <point x="158" y="867" type="move" name="top"/>
    </contour>
  </outline>
</glyph>
<glyph name="oShortMatra-deva" format="1">
  <advance width="306"/>
  <unicode hex="094A"/>
  <outline>
    <component base="aaMatra-deva"/>
    <component base="eShortMatra-deva" xOffset="-238"/>
    <contour>
      <point x="147" y="822" type="move" name="top"/>
    </contour>
  </outline>
</glyph>
<glyph name="oMatra-deva" format="1">
  <advance width="306"/>
  <unicode hex="094B"/>
  <outline>
    <component base="aaMatra-deva"/>
    <component base="eMatra-deva" xOffset="-123"/>
    <contour>
      <point x="153" y="658" type="move" name="imatra"/>
    </contour>
    <contour>
      <point x="219" y="744" type="move" name="top"/>
    </contour>
  </outline>
</glyph>
<glyph name="auMatra-deva" format="1">
  <advance width="306"/>
  <unicode hex="094C"/>
  <outline>
    <component base="aaMatra-deva"/>
    <component base="aiMatra-deva" xOffset="-217"/>
    <contour>
      <point x="143" y="908" type="move" name="top"/>
    </contour>
  </outline>
</glyph>
<glyph name="om-deva" format="1">
  <advance width="987"/>
  <unicode hex="0950"/>
  <outline>
    <contour>
      <point x="584" y="231" type="line"/>
      <point x="621" y="171"/>
      <point x="674" y="133"/>
      <point x="761" y="133" type="curve" smooth="yes"/>
      <point x="870" y="133"/>
      <point x="937" y="204"/>
      <point x="937" y="306" type="curve" smooth="yes"/>
      <point x="937" y="408"/>
      <point x="868" y="477"/>
      <point x="756" y="477" type="curve" smooth="yes"/>
      <point x="606" y="477"/>
      <point x="577" y="348"/>
      <point x="473" y="348" type="curve" smooth="yes"/>
      <point x="435" y="348"/>
      <point x="389" y="370"/>
      <point x="319" y="418" type="curve"/>
      <point x="271" y="358" type="line"/>
      <point x="356" y="299"/>
      <point x="421" y="274"/>
      <point x="476" y="274" type="curve" smooth="yes"/>
      <point x="614" y="274"/>
      <point x="642" y="403"/>
      <point x="756" y="403" type="curve" smooth="yes"/>
      <point x="816" y="403"/>
      <point x="853" y="369"/>
      <point x="853" y="306" type="curve" smooth="yes"/>
      <point x="853" y="242"/>
      <point x="816" y="207"/>
      <point x="761" y="207" type="curve" smooth="yes"/>
      <point x="711" y="207"/>
      <point x="674" y="229"/>
      <point x="646" y="277" type="curve"/>
    </contour>
    <contour>
      <point x="259" y="344" type="line"/>
      <point x="324" y="312"/>
      <point x="364" y="270"/>
      <point x="364" y="213" type="curve" smooth="yes"/>
      <point x="364" y="155"/>
      <point x="327" y="106"/>
      <point x="249" y="106" type="curve"/>
      <point x="190" y="106"/>
      <point x="124" y="148"/>
      <point x="88" y="216" type="curve"/>
      <point x="27" y="182" type="line"/>
      <point x="76" y="85"/>
      <point x="160" y="32"/>
      <point x="249" y="32" type="curve"/>
      <point x="361" y="32"/>
      <point x="448" y="101"/>
      <point x="448" y="213" type="curve" smooth="yes"/>
      <point x="448" y="299"/>
      <point x="391" y="369"/>
      <point x="297" y="410" type="curve"/>
    </contour>
    <contour>
      <point x="178" y="659"/>
      <point x="123" y="645"/>
      <point x="69" y="625" type="curve" smooth="yes"/>
      <point x="93" y="554" type="line"/>
      <point x="136" y="571"/>
      <point x="182" y="583"/>
      <point x="220" y="583" type="curve" smooth="yes"/>
      <point x="270" y="583"/>
      <point x="307" y="563"/>
      <point x="307" y="508" type="curve"/>
      <point x="307" y="446"/>
      <point x="282" y="412"/>
      <point x="135" y="380" type="curve"/>
      <point x="155" y="309" type="line"/>
      <point x="358" y="354"/>
      <point x="391" y="429"/>
      <point x="391" y="510" type="curve"/>
      <point x="391" y="603"/>
      <point x="322" y="659"/>
      <point x="228" y="659" type="curve" smooth="yes"/>
    </contour>
    <component base="candraBindu-deva" xOffset="436" yOffset="-192"/>
    <contour>
      <point x="0" y="0" type="move" name="bottom"/>
    </contour>
  </outline>
</glyph>
<glyph name="anudatta-deva" format="1">
  <advance width="426"/>
  <unicode hex="0952"/>
  <outline>
    <contour>
      <point x="20" y="-168" type="line"/>
      <point x="406" y="-168" type="line"/>
      <point x="406" y="-98" type="line"/>
      <point x="20" y="-98" type="line"/>
    </contour>
    <contour>
      <point x="213" y="0" type="move" name="_bottom"/>
    </contour>
  </outline>
</glyph>
<glyph name="grave-deva" format="1">
  <advance width="273"/>
  <unicode hex="0953"/>
  <outline>
    <contour>
      <point x="253" y="734" type="line"/>
      <point x="82" y="948" type="line"/>
      <point x="20" y="904" type="line"/>
      <point x="198" y="698" type="line"/>
    </contour>
  </outline>
</glyph>
<glyph name="ueMatra-deva" format="1">
  <advance width="454"/>
  <unicode hex="0956"/>
  <outline>
    <contour>
      <point x="331" y="-35" type="line"/>
      <point x="311" y="-89"/>
      <point x="274" y="-119"/>
      <point x="227" y="-119" type="curve" smooth="yes"/>
      <point x="180" y="-119"/>
      <point x="143" y="-89"/>
      <point x="123" y="-35" type="curve"/>
      <point x="50" y="-55" type="line"/>
      <point x="78" y="-141"/>
      <point x="141" y="-189"/>
      <point x="227" y="-189" type="curve" smooth="yes"/>
      <point x="313" y="-189"/>
      <point x="376" y="-141"/>
      <point x="404" y="-55" type="curve"/>
    </contour>
    <contour>
      <point x="230" y="0" type="move" name="_bottom"/>
    </contour>
  </outline>
</glyph>
<glyph name="qa-deva" format="1">
  <advance width="845"/>
  <unicode hex="0958"/>
  <outline>
    <component base="ka-deva"/>
    <component base="nukta-deva" xOffset="159" yOffset="103"/>
    <contour>
      <point x="428" y="658" type="move" name="top"/>
    </contour>
    <contour>
      <point x="424" y="0" type="move" name="bottom"/>
    </contour>
  </outline>
</glyph>
<glyph name="fa-deva" format="1">
  <advance width="822"/>
  <unicode hex="095E"/>
  <outline>
    <component base="pha-deva"/>
    <component base="nukta-deva" xOffset="145" yOffset="176"/>
    <contour>
      <point x="411" y="658" type="move" name="top"/>
    </contour>
    <contour>
      <point x="411" y="0" type="move" name="bottom"/>
    </contour>
  </outline>
</glyph>
<glyph name="zero-deva" format="1">
  <advance width="530"/>
  <unicode hex="0966"/>
  <outline>
    <contour>
      <point x="389" y="115"/>
      <point x="488" y="216"/>
      <point x="488" y="336" type="curve" smooth="yes"/>
      <point x="488" y="457"/>
      <point x="390" y="557"/>
      <point x="265" y="557" type="curve" smooth="yes"/>
      <point x="139" y="557"/>
      <point x="41" y="457"/>
      <point x="41" y="336" type="curve" smooth="yes"/>
      <point x="41" y="216"/>
      <point x="139" y="115"/>
      <point x="265" y="115" type="curve" smooth="yes"/>
    </contour>
    <contour>
      <point x="189" y="189"/>
      <point x="125" y="255"/>
      <point x="125" y="336" type="curve" smooth="yes"/>
      <point x="125" y="417"/>
      <point x="189" y="483"/>
      <point x="265" y="483" type="curve" smooth="yes"/>
      <point x="340" y="483"/>
      <point x="404" y="417"/>
      <point x="404" y="336" type="curve" smooth="yes"/>
      <point x="404" y="256"/>
      <point x="339" y="189"/>
      <point x="265" y="189" type="curve" smooth="yes"/>
    </contour>
  </outline>
</glyph>
<glyph name="one-deva" format="1">
  <advance width="530"/>
  <unicode hex="0967"/>
  <outline>
    <contour>
      <point x="216" y="440" type="line"/>
      <point x="176" y="455"/>
      <point x="157" y="481"/>
      <point x="157" y="516" type="curve" smooth="yes"/>
      <point x="157" y="561"/>
      <point x="191" y="589"/>
      <point x="242" y="589" type="curve" smooth="yes"/>
      <point x="293" y="589"/>
      <point x="327" y="552"/>
      <point x="327" y="506" type="curve" smooth="yes"/>
      <point x="326" y="461"/>
      <point x="296" y="410"/>
      <point x="259" y="375" type="curve" smooth="yes"/>
      <point x="140" y="261" type="line"/>
      <point x="302" y="144" type="line" smooth="yes"/>
      <point x="334" y="121"/>
      <point x="348" y="98"/>
      <point x="348" y="67" type="curve" smooth="yes"/>
      <point x="348" y="51"/>
      <point x="344" y="34"/>
      <point x="339" y="13" type="curve"/>
      <point x="419" y="-15" type="line"/>
      <point x="426" y="18"/>
      <point x="431" y="47"/>
      <point x="431" y="72" type="curve" smooth="yes"/>
      <point x="431" y="119"/>
      <point x="415" y="157"/>
      <point x="364" y="194" type="curve" smooth="yes"/>
      <point x="262" y="267" type="line"/>
      <point x="351" y="340"/>
      <point x="411" y="437"/>
      <point x="411" y="506" type="curve" smooth="yes"/>
      <point x="411" y="596"/>
      <point x="343" y="663"/>
      <point x="247" y="663" type="curve" smooth="yes"/>
      <point x="146" y="663"/>
      <point x="73" y="611"/>
      <point x="73" y="516" type="curve" smooth="yes"/>
      <point x="73" y="454"/>
      <point x="114" y="401"/>
      <point x="172" y="374" type="curve"/>
    </contour>
  </outline>
</glyph>
<glyph name="three-deva" format="1">
  <advance width="530"/>
  <unicode hex="0969"/>
  <outline>
    <contour>
      <point x="187" y="666"/>
      <point x="124" y="654"/>
      <point x="69" y="632" type="curve"/>
      <point x="91" y="560" type="line"/>
      <point x="143" y="580"/>
      <point x="198" y="591"/>
      <point x="243" y="591" type="curve" smooth="yes"/>
      <point x="308" y="591"/>
      <point x="340" y="571"/>
      <point x="340" y="530" type="curve"/>
      <point x="340" y="473"/>
      <point x="295" y="434"/>
      <point x="148" y="419" type="curve"/>
      <point x="169" y="344" type="line"/>
      <point x="336" y="351"/>
      <point x="428" y="417"/>
      <point x="428" y="532" type="curve"/>
      <point x="428" y="618"/>
      <point x="363" y="666"/>
      <point x="245" y="666" type="curve" smooth="yes"/>
    </contour>
    <contour>
      <point x="71" y="257"/>
      <point x="48" y="236"/>
      <point x="48" y="197" type="curve" smooth="yes"/>
      <point x="48" y="142"/>
      <point x="103" y="110"/>
      <point x="198" y="110" type="curve" smooth="yes"/>
      <point x="231" y="110"/>
      <point x="207" y="110"/>
      <point x="239" y="110" type="curve"/>
      <point x="253" y="172" type="line"/>
      <point x="207" y="234"/>
      <point x="169" y="257"/>
      <point x="114" y="257" type="curve" smooth="yes"/>
    </contour>
    <contour>
      <point x="180" y="134" type="line"/>
      <point x="351" y="-59" type="line"/>
      <point x="413" y="-7" type="line"/>
      <point x="253" y="172" type="line"/>
    </contour>
    <contour>
      <point x="270" y="382" type="line"/>
      <point x="334" y="350"/>
      <point x="362" y="316"/>
      <point x="362" y="271" type="curve" smooth="yes"/>
      <point x="362" y="216"/>
      <point x="307" y="181"/>
      <point x="220" y="181" type="curve"/>
      <point x="220" y="106" type="line"/>
      <point x="368" y="106"/>
      <point x="450" y="165"/>
      <point x="450" y="271" type="curve" smooth="yes"/>
      <point x="450" y="344"/>
      <point x="398" y="407"/>
      <point x="305" y="446" type="curve"/>
    </contour>
  </outline>
</glyph>
<glyph name="four-deva" format="1">
  <advance width="530"/>
  <unicode hex="096A"/>
  <outline>
    <contour>
      <point x="405" y="652" type="line"/>
      <point x="405" y="624" type="line" smooth="yes"/>
      <point x="405" y="572"/>
      <point x="398" y="549"/>
      <point x="369" y="522" type="curve" smooth="yes"/>
      <point x="180" y="346" type="line" smooth="yes"/>
      <point x="115" y="281"/>
      <point x="99" y="253"/>
      <point x="99" y="205" type="curve" smooth="yes"/>
      <point x="99" y="126"/>
      <point x="171" y="66"/>
      <point x="265" y="66" type="curve"/>
      <point x="359" y="66"/>
      <point x="431" y="126"/>
      <point x="431" y="205" type="curve" smooth="yes"/>
      <point x="431" y="253"/>
      <point x="415" y="281"/>
      <point x="350" y="346" type="curve" smooth="yes"/>
      <point x="161" y="522" type="line" smooth="yes"/>
      <point x="132" y="549"/>
      <point x="125" y="572"/>
      <point x="125" y="624" type="curve" smooth="yes"/>
      <point x="125" y="652" type="line"/>
      <point x="41" y="662" type="line"/>
      <point x="41" y="626" type="line" smooth="yes"/>
      <point x="42" y="548"/>
      <point x="56" y="512"/>
      <point x="105" y="466" type="curve" smooth="yes"/>
      <point x="290" y="293" type="line" smooth="yes"/>
      <point x="334" y="253"/>
      <point x="347" y="232"/>
      <point x="347" y="205" type="curve" smooth="yes"/>
      <point x="347" y="169"/>
      <point x="311" y="140"/>
      <point x="265" y="140" type="curve"/>
      <point x="219" y="140"/>
      <point x="183" y="169"/>
      <point x="183" y="205" type="curve" smooth="yes"/>
      <point x="183" y="232"/>
      <point x="196" y="253"/>
      <point x="240" y="293" type="curve" smooth="yes"/>
      <point x="425" y="466" type="line" smooth="yes"/>
      <point x="474" y="512"/>
      <point x="488" y="548"/>
      <point x="489" y="626" type="curve" smooth="yes"/>
      <point x="489" y="662" type="line"/>
    </contour>
  </outline>
</glyph>
<glyph name="six-deva" format="1">
  <advance width="530"/>
  <unicode hex="096C"/>
  <outline>
    <contour>
      <point x="122" y="664"/>
      <point x="61" y="618"/>
      <point x="61" y="527" type="curve" smooth="yes"/>
      <point x="61" y="416"/>
      <point x="159" y="352"/>
      <point x="330" y="352" type="curve" smooth="yes"/>
      <point x="373" y="352" type="line"/>
      <point x="363" y="426" type="line"/>
      <point x="324" y="426" type="line" smooth="yes"/>
      <point x="197" y="426"/>
      <point x="145" y="453"/>
      <point x="145" y="519" type="curve" smooth="yes"/>
      <point x="145" y="567"/>
      <point x="176" y="590"/>
      <point x="242" y="590" type="curve" smooth="yes"/>
      <point x="279" y="590"/>
      <point x="320" y="583"/>
      <point x="366" y="570" type="curve"/>
      <point x="381" y="642" type="line"/>
      <point x="324" y="656"/>
      <point x="274" y="664"/>
      <point x="236" y="664" type="curve" smooth="yes"/>
    </contour>
    <contour>
      <point x="111" y="394"/>
      <point x="70" y="343"/>
      <point x="70" y="272" type="curve" smooth="yes"/>
      <point x="70" y="149"/>
      <point x="146" y="89"/>
      <point x="305" y="89" type="curve" smooth="yes"/>
      <point x="327" y="89"/>
      <point x="360" y="93"/>
      <point x="394" y="100" type="curve"/>
      <point x="359" y="170" type="line"/>
      <point x="335" y="166"/>
      <point x="313" y="163"/>
      <point x="297" y="163" type="curve" smooth="yes"/>
      <point x="200" y="163"/>
      <point x="152" y="197"/>
      <point x="154" y="267" type="curve" smooth="yes"/>
      <point x="154" y="312"/>
      <point x="185" y="343"/>
      <point x="250" y="366" type="curve"/>
      <point x="193" y="427" type="line"/>
    </contour>
    <contour>
      <point x="325" y="242"/>
      <point x="301" y="225"/>
      <point x="300" y="194" type="curve" smooth="yes"/>
      <point x="300" y="158"/>
      <point x="311" y="123"/>
      <point x="334" y="96" type="curve" smooth="yes"/>
      <point x="470" y="-84" type="line"/>
      <point x="533" y="-29" type="line"/>
      <point x="387" y="156" type="line"/>
      <point x="415" y="105" type="line"/>
      <point x="449" y="117"/>
      <point x="466" y="137"/>
      <point x="466" y="163" type="curve" smooth="yes"/>
      <point x="466" y="205"/>
      <point x="418" y="242"/>
      <point x="367" y="242" type="curve" smooth="yes"/>
    </contour>
  </outline>
</glyph>
<glyph name="abbreviation-deva" format="1">
  <advance width="479"/>
  <unicode hex="0970"/>
  <outline>
    <contour>
      <point x="130" y="488"/>
      <point x="52" y="411"/>
      <point x="52" y="301" type="curve" smooth="yes"/>
      <point x="52" y="191"/>
      <point x="130" y="113"/>
      <point x="240" y="113" type="curve" smooth="yes"/>
      <point x="350" y="113"/>
      <point x="427" y="191"/>
      <point x="427" y="301" type="curve" smooth="yes"/>
      <point x="427" y="411"/>
      <point x="350" y="488"/>
      <point x="240" y="488" type="curve" smooth="yes"/>
    </contour>
    <contour>
      <point x="307" y="416"/>
      <point x="355" y="368"/>
      <point x="355" y="301" type="curve" smooth="yes"/>
      <point x="355" y="233"/>
      <point x="307" y="185"/>
      <point x="240" y="185" type="curve" smooth="yes"/>
      <point x="172" y="185"/>
      <point x="124" y="233"/>
      <point x="124" y="301" type="curve" smooth="yes"/>
      <point x="124" y="368"/>
      <point x="172" y="416"/>
      <point x="240" y="416" type="curve" smooth="yes"/>
    </contour>
  </outline>
</glyph>
<glyph name="aCandra-deva" format="1">
  <advance width="788"/>
  <unicode hex="0972"/>
  <outline>
    <component base="a-deva"/>
    <component base="eCandraMatra-deva" xOffset="424"/>
    <contour>
      <point x="635" y="658" type="move" name="top"/>
    </contour>
    <contour>
      <point x="635" y="0" type="move" name="bottom"/>
    </contour>
  </outline>
</glyph>
<glyph name="oe-deva" format="1">
  <advance width="755"/>
  <unicode hex="0973"/>
  <outline>
    <component base="a_compo"/>
    <component base="ooeMatra-deva" xOffset="463"/>
    <contour>
      <point x="620" y="799" type="move" name="top"/>
    </contour>
    <contour>
      <point x="620" y="0" type="move" name="bottom"/>
    </contour>
  </outline>
</glyph>
<glyph name="ooe-deva" format="1">
  <advance width="1093"/>
  <unicode hex="0974"/>
  <outline>
    <component base="a-deva"/>
    <component base="ooeMatra-deva" xOffset="788"/>
    <contour>
      <point x="941" y="805" type="move" name="top"/>
    </contour>
    <contour>
      <point x="940" y="0" type="move" name="bottom"/>
    </contour>
  </outline>
</glyph>
<glyph name="aw-deva" format="1">
  <advance width="1093"/>
  <unicode hex="0975"/>
  <outline>
    <component base="a-deva"/>
    <component base="awMatra-deva" xOffset="788"/>
    <contour>
      <point x="935" y="842" type="move" name="top"/>
    </contour>
    <contour>
      <point x="941" y="0" type="move" name="bottom"/>
    </contour>
  </outline>
</glyph>
<glyph name="ue-deva" format="1">
  <advance width="788"/>
  <unicode hex="0976"/>
  <outline>
    <component base="a-deva"/>
    <component base="ueMatra-deva" xOffset="405"/>
    <contour>
      <point x="635" y="658" type="move" name="top"/>
    </contour>
    <contour>
      <point x="635" y="0" type="move" name="bottom"/>
    </contour>
  </outline>
</glyph>
<glyph name="uue-deva" format="1">
  <advance width="788"/>
  <unicode hex="0977"/>
  <outline>
    <component base="a-deva"/>
    <component base="uueMatra-deva" xOffset="407"/>
    <contour>
      <point x="635" y="658" type="move" name="top"/>
    </contour>
    <contour>
      <point x="635" y="0" type="move" name="bottom"/>
    </contour>
  </outline>
</glyph>
<glyph name="zha-deva" format="1">
  <advance width="771"/>
  <unicode hex="0979"/>
  <outline>
    <component base="ja-deva"/>
    <component base="anusvara-deva" xOffset="225" yOffset="-897"/>
    <component base="anusvara-deva" xOffset="134" yOffset="-763"/>
    <component base="anusvara-deva" xOffset="314" yOffset="-763"/>
    <contour>
      <point x="619" y="657" type="move" name="top"/>
    </contour>
    <contour>
      <point x="618" y="0" type="move" name="bottom"/>
    </contour>
  </outline>
</glyph>
<glyph name="glottalstop-deva" format="1">
  <advance width="476"/>
  <unicode hex="097D"/>
  <outline>
    <contour>
      <point x="179" y="657"/>
      <point x="102" y="635"/>
      <point x="40" y="603" type="curve"/>
      <point x="73" y="539" type="line"/>
      <point x="127" y="566"/>
      <point x="187" y="583"/>
      <point x="233" y="583" type="curve" smooth="yes"/>
      <point x="306" y="583"/>
      <point x="347" y="545"/>
      <point x="347" y="478" type="curve" smooth="yes"/>
      <point x="347" y="406"/>
      <point x="276" y="348"/>
      <point x="147" y="315" type="curve"/>
      <point x="147" y="0" type="line"/>
      <point x="231" y="0" type="line"/>
      <point x="231" y="262" type="line"/>
      <point x="360" y="308"/>
      <point x="431" y="385"/>
      <point x="431" y="478" type="curve" smooth="yes"/>
      <point x="431" y="593"/>
      <point x="360" y="657"/>
      <point x="233" y="657" type="curve" smooth="yes"/>
    </contour>
  </outline>
</glyph>
<glyph name="underscoredbl" format="1">
  <advance width="600"/>
  <unicode hex="2017"/>
  <outline>
    <contour>
      <point x="525" y="-50" type="line"/>
      <point x="75" y="-50" type="line"/>
      <point x="75" y="-132" type="line"/>
      <point x="525" y="-132" type="line"/>
    </contour>
    <contour>
      <point x="525" y="-180" type="line"/>
      <point x="75" y="-180" type="line"/>
      <point x="75" y="-262" type="line"/>
      <point x="525" y="-262" type="line"/>
    </contour>
  </outline>
</glyph>
<glyph name="quotedblright" format="1">
  <advance width="438"/>
  <unicode hex="201D"/>
  <outline>
    <contour>
      <point x="60" y="621" type="line"/>
      <point x="109" y="621" type="line"/>
      <point x="56" y="484" type="line"/>
      <point x="123" y="484" type="line"/>
      <point x="189" y="642" type="line"/>
      <point x="189" y="728" type="line"/>
      <point x="60" y="728" type="line"/>
    </contour>
    <contour>
      <point x="242" y="621" type="line"/>
      <point x="290" y="621" type="line"/>
      <point x="238" y="484" type="line"/>
      <point x="304" y="484" type="line"/>
      <point x="371" y="642" type="line"/>
      <point x="371" y="728" type="line"/>
      <point x="242" y="728" type="line"/>
    </contour>
  </outline>
</glyph>
<glyph name="lira" format="1">
  <advance width="533"/>
  <unicode hex="20A4"/>
  <outline>
    <contour>
      <point x="400" y="245" type="line"/>
      <point x="400" y="317" type="line"/>
      <point x="251" y="317" type="line"/>
      <point x="250" y="344"/>
      <point x="246" y="367"/>
      <point x="240" y="388" type="curve"/>
      <point x="400" y="388" type="line"/>
      <point x="400" y="460" type="line"/>
      <point x="218" y="460" type="line"/>
      <point x="211" y="479"/>
      <point x="207" y="498"/>
      <point x="207" y="519" type="curve" smooth="yes"/>
      <point x="207" y="591"/>
      <point x="255" y="636"/>
      <point x="332" y="636" type="curve" smooth="yes"/>
      <point x="386" y="636"/>
      <point x="425" y="614"/>
      <point x="438" y="575" type="curve"/>
      <point x="509" y="610" type="line"/>
      <point x="484" y="677"/>
      <point x="419" y="716"/>
      <point x="332" y="716" type="curve" smooth="yes"/>
      <point x="198" y="716"/>
      <point x="113" y="641"/>
      <point x="113" y="523" type="curve" smooth="yes"/>
      <point x="113" y="499"/>
      <point x="116" y="479"/>
      <point x="121" y="460" type="curve"/>
      <point x="53" y="460" type="line"/>
      <point x="53" y="388" type="line"/>
      <point x="141" y="388" type="line"/>
      <point x="146" y="368"/>
      <point x="150" y="345"/>
      <point x="152" y="317" type="curve"/>
      <point x="53" y="317" type="line"/>
      <point x="53" y="245" type="line"/>
      <point x="149" y="245" type="line"/>
      <point x="141" y="177"/>
      <point x="114" y="124"/>
      <point x="65" y="74" type="curve"/>
      <point x="65" y="0" type="line"/>
      <point x="504" y="0" type="line"/>
      <point x="504" y="80" type="line"/>
      <point x="155" y="80" type="line"/>
      <point x="198" y="114"/>
      <point x="234" y="179"/>
      <point x="247" y="245" type="curve"/>
    </contour>
  </outline>
</glyph>
<glyph name="afii61352" format="1">
  <advance width="1106"/>
  <unicode hex="2116"/>
  <outline>
    <contour>
      <point x="819" y="714"/>
      <point x="759" y="649"/>
      <point x="759" y="538" type="curve" smooth="yes"/>
      <point x="759" y="426"/>
      <point x="819" y="361"/>
      <point x="922" y="361" type="curve" smooth="yes"/>
      <point x="1024" y="361"/>
      <point x="1084" y="426"/>
      <point x="1084" y="538" type="curve" smooth="yes"/>
      <point x="1084" y="649"/>
      <point x="1025" y="714"/>
      <point x="922" y="714" type="curve" smooth="yes"/>
    </contour>
    <contour>
      <point x="553" y="708" type="line"/>
      <point x="553" y="154" type="line"/>
      <point x="515" y="216"/>
      <point x="478" y="277"/>
      <point x="436" y="336" type="curve" smooth="yes"/>
      <point x="174" y="708" type="line"/>
      <point x="93" y="708" type="line"/>
      <point x="93" y="0" type="line"/>
      <point x="184" y="0" type="line"/>
      <point x="184" y="556" type="line"/>
      <point x="219" y="497"/>
      <point x="255" y="438"/>
      <point x="294" y="382" type="curve" smooth="yes"/>
      <point x="563" y="0" type="line"/>
      <point x="644" y="0" type="line"/>
      <point x="644" y="708" type="line"/>
    </contour>
    <contour>
      <point x="865" y="422"/>
      <point x="833" y="463"/>
      <point x="833" y="538" type="curve" smooth="yes"/>
      <point x="833" y="613"/>
      <point x="864" y="653"/>
      <point x="922" y="653" type="curve" smooth="yes"/>
      <point x="980" y="653"/>
      <point x="1011" y="613"/>
      <point x="1011" y="538" type="curve" smooth="yes"/>
      <point x="1011" y="463"/>
      <point x="979" y="422"/>
      <point x="922" y="422" type="curve" smooth="yes"/>
    </contour>
  </outline>
</glyph>
<glyph name="arrowright" format="1">
  <advance width="557"/>
  <unicode hex="2192"/>
  <outline>
    <contour>
      <point x="540" y="377" type="line"/>
      <point x="267" y="650" type="line"/>
      <point x="211" y="593" type="line"/>
      <point x="404" y="400" type="line"/>
      <point x="18" y="400" type="line"/>
      <point x="18" y="320" type="line"/>
      <point x="404" y="320" type="line"/>
      <point x="211" y="127" type="line"/>
      <point x="267" y="70" type="line"/>
      <point x="540" y="343" type="line"/>
    </contour>
  </outline>
</glyph>
<glyph name="approxequal" format="1">
  <advance width="587"/>
  <unicode hex="2248"/>
  <outline>
    <contour>
      <point x="110" y="336" type="line"/>
      <point x="138" y="369"/>
      <point x="172" y="386"/>
      <point x="208" y="386" type="curve" smooth="yes"/>
      <point x="271" y="386"/>
      <point x="319" y="336"/>
      <point x="381" y="336" type="curve" smooth="yes"/>
      <point x="429" y="336"/>
      <point x="484" y="370"/>
      <point x="523" y="422" type="curve"/>
      <point x="477" y="470" type="line"/>
      <point x="448" y="437"/>
      <point x="415" y="420"/>
      <point x="379" y="420" type="curve" smooth="yes"/>
      <point x="316" y="420"/>
      <point x="275" y="470"/>
      <point x="206" y="470" type="curve" smooth="yes"/>
      <point x="158" y="470"/>
      <point x="102" y="436"/>
      <point x="64" y="384" type="curve"/>
    </contour>
    <contour>
      <point x="110" y="124" type="line"/>
      <point x="138" y="157"/>
      <point x="172" y="174"/>
      <point x="208" y="174" type="curve" smooth="yes"/>
      <point x="271" y="174"/>
      <point x="319" y="124"/>
      <point x="381" y="124" type="curve" smooth="yes"/>
      <point x="429" y="124"/>
      <point x="484" y="158"/>
      <point x="523" y="210" type="curve"/>
      <point x="477" y="258" type="line"/>
      <point x="448" y="225"/>
      <point x="415" y="208"/>
      <point x="379" y="208" type="curve" smooth="yes"/>
      <point x="316" y="208"/>
      <point x="275" y="258"/>
      <point x="206" y="258" type="curve" smooth="yes"/>
      <point x="158" y="258"/>
      <point x="102" y="224"/>
      <point x="64" y="172" type="curve"/>
    </contour>
  </outline>
</glyph>
<glyph name="zero-deva.comb" format="1">
  <advance width="239"/>
  <unicode hex="A8E0"/>
  <outline>
    <contour>
      <point x="56" y="913"/>
      <point x="9" y="868"/>
      <point x="9" y="805" type="curve" smooth="yes"/>
      <point x="9" y="742"/>
      <point x="56" y="697"/>
      <point x="120" y="697" type="curve" smooth="yes"/>
      <point x="185" y="697"/>
      <point x="230" y="742"/>
      <point x="230" y="805" type="curve" smooth="yes"/>
      <point x="230" y="868"/>
      <point x="185" y="913"/>
      <point x="120" y="913" type="curve" smooth="yes"/>
    </contour>
    <contour>
      <point x="150" y="861"/>
      <point x="173" y="838"/>
      <point x="173" y="805" type="curve" smooth="yes"/>
      <point x="173" y="773"/>
      <point x="150" y="750"/>
      <point x="120" y="750" type="curve" smooth="yes"/>
      <point x="89" y="750"/>
      <point x="67" y="773"/>
      <point x="67" y="805" type="curve" smooth="yes"/>
      <point x="67" y="838"/>
      <point x="89" y="861"/>
      <point x="120" y="861" type="curve" smooth="yes"/>
    </contour>
    <contour>
      <point x="119" y="657" type="move" name="_top"/>
    </contour>
  </outline>
</glyph>
<glyph name="four-deva.comb" format="1">
  <advance width="235"/>
  <unicode hex="A8E4"/>
  <outline>
    <contour>
      <point x="168" y="948" type="line"/>
      <point x="168" y="935" type="line" smooth="yes"/>
      <point x="168" y="916"/>
      <point x="163" y="899"/>
      <point x="153" y="890" type="curve" smooth="yes"/>
      <point x="118" y="859" type="line"/>
      <point x="82" y="890" type="line" smooth="yes"/>
      <point x="72" y="899"/>
      <point x="67" y="916"/>
      <point x="67" y="935" type="curve" smooth="yes"/>
      <point x="67" y="948" type="line"/>
      <point x="9" y="952" type="line"/>
      <point x="9" y="936" type="line" smooth="yes"/>
      <point x="10" y="904"/>
      <point x="16" y="884"/>
      <point x="32" y="869" type="curve" smooth="yes"/>
      <point x="80" y="827" type="line"/>
      <point x="62" y="812" type="line"/>
      <point x="38" y="790"/>
      <point x="31" y="769"/>
      <point x="31" y="750" type="curve" smooth="yes"/>
      <point x="31" y="705"/>
      <point x="68" y="676"/>
      <point x="118" y="676" type="curve" smooth="yes"/>
      <point x="167" y="676"/>
      <point x="204" y="705"/>
      <point x="204" y="750" type="curve" smooth="yes"/>
      <point x="204" y="769"/>
      <point x="197" y="790"/>
      <point x="173" y="812" type="curve"/>
      <point x="156" y="827" type="line"/>
      <point x="203" y="869" type="line" smooth="yes"/>
      <point x="219" y="884"/>
      <point x="226" y="904"/>
      <point x="226" y="936" type="curve" smooth="yes"/>
      <point x="226" y="952" type="line"/>
    </contour>
    <contour>
      <point x="132" y="779" type="line" smooth="yes"/>
      <point x="144" y="768"/>
      <point x="147" y="759"/>
      <point x="147" y="752" type="curve" smooth="yes"/>
      <point x="147" y="735"/>
      <point x="135" y="723"/>
      <point x="118" y="723" type="curve" smooth="yes"/>
      <point x="101" y="723"/>
      <point x="88" y="735"/>
      <point x="88" y="752" type="curve" smooth="yes"/>
      <point x="88" y="759"/>
      <point x="91" y="768"/>
      <point x="103" y="779" type="curve" smooth="yes"/>
      <point x="118" y="793" type="line"/>
    </contour>
    <contour>
      <point x="117" y="657" type="move" name="_top"/>
    </contour>
  </outline>
</glyph>
<glyph name="five-deva.comb" format="1">
  <advance width="261"/>
  <unicode hex="A8E5"/>
  <outline>
    <contour>
      <point x="36" y="936"/>
      <point x="9" y="893"/>
      <point x="9" y="852" type="curve" smooth="yes"/>
      <point x="9" y="791"/>
      <point x="51" y="754"/>
      <point x="116" y="754" type="curve" smooth="yes"/>
      <point x="130" y="754"/>
      <point x="144" y="756"/>
      <point x="156" y="759" type="curve"/>
      <point x="205" y="651" type="line"/>
      <point x="252" y="673" type="line"/>
      <point x="202" y="786" type="line"/>
      <point x="212" y="796"/>
      <point x="218" y="809"/>
      <point x="218" y="822" type="curve" smooth="yes"/>
      <point x="218" y="847"/>
      <point x="190" y="870"/>
      <point x="160" y="870" type="curve" smooth="yes"/>
      <point x="140" y="870"/>
      <point x="128" y="858"/>
      <point x="128" y="839" type="curve" smooth="yes"/>
      <point x="128" y="829"/>
      <point x="129" y="822"/>
      <point x="137" y="804" type="curve"/>
      <point x="129" y="802"/>
      <point x="122" y="801"/>
      <point x="114" y="801" type="curve" smooth="yes"/>
      <point x="85" y="801"/>
      <point x="67" y="820"/>
      <point x="67" y="852" type="curve" smooth="yes"/>
      <point x="67" y="881"/>
      <point x="87" y="913"/>
      <point x="120" y="938" type="curve"/>
      <point x="80" y="966" type="line"/>
    </contour>
    <contour>
      <point x="130" y="657" type="move" name="_top"/>
    </contour>
  </outline>
</glyph>
<glyph name="nine-deva.comb" format="1">
  <advance width="215"/>
  <unicode hex="A8E9"/>
  <outline>
    <contour>
      <point x="44" y="961"/>
      <point x="9" y="930"/>
      <point x="9" y="880" type="curve" smooth="yes"/>
      <point x="9" y="851"/>
      <point x="23" y="825"/>
      <point x="52" y="795" type="curve" smooth="yes"/>
      <point x="116" y="728" type="line" smooth="yes"/>
      <point x="139" y="705"/>
      <point x="146" y="694"/>
      <point x="146" y="681" type="curve" smooth="yes"/>
      <point x="146" y="675"/>
      <point x="144" y="669"/>
      <point x="140" y="660" type="curve"/>
      <point x="196" y="647" type="line"/>
      <point x="202" y="657"/>
      <point x="205" y="668"/>
      <point x="206" y="679" type="curve"/>
      <point x="206" y="705"/>
      <point x="198" y="718"/>
      <point x="167" y="750" type="curve" smooth="yes"/>
      <point x="124" y="795" type="line"/>
      <point x="162" y="808"/>
      <point x="186" y="839"/>
      <point x="186" y="878" type="curve" smooth="yes"/>
      <point x="186" y="929"/>
      <point x="152" y="961"/>
      <point x="97" y="961" type="curve" smooth="yes"/>
    </contour>
    <contour>
      <point x="117" y="913"/>
      <point x="129" y="900"/>
      <point x="129" y="878" type="curve" smooth="yes"/>
      <point x="129" y="853"/>
      <point x="115" y="840"/>
      <point x="86" y="836" type="curve"/>
      <point x="72" y="852"/>
      <point x="67" y="866"/>
      <point x="67" y="880" type="curve" smooth="yes"/>
      <point x="67" y="901"/>
      <point x="79" y="913"/>
      <point x="97" y="913" type="curve" smooth="yes"/>
    </contour>
    <contour>
      <point x="107" y="657" type="move" name="_top"/>
    </contour>
  </outline>
</glyph>
<glyph name="na-deva.comb" format="1">
  <advance width="326"/>
  <unicode hex="A8ED"/>
  <outline>
    <contour>
      <point x="9" y="961" type="line"/>
      <point x="9" y="913" type="line"/>
      <point x="203" y="913" type="line"/>
      <point x="203" y="822" type="line"/>
      <point x="70" y="822" type="line" smooth="yes"/>
      <point x="47" y="822"/>
      <point x="32" y="819"/>
      <point x="32" y="795" type="curve" smooth="yes"/>
      <point x="32" y="773"/>
      <point x="55" y="722"/>
      <point x="86" y="722" type="curve" smooth="yes"/>
      <point x="105" y="722"/>
      <point x="110" y="740"/>
      <point x="113" y="775" type="curve"/>
      <point x="203" y="775" type="line"/>
      <point x="203" y="654" type="line"/>
      <point x="260" y="654" type="line"/>
      <point x="260" y="913" type="line"/>
      <point x="317" y="913" type="line"/>
      <point x="317" y="961" type="line"/>
    </contour>
    <contour>
      <point x="163" y="657" type="move" name="_top"/>
    </contour>
  </outline>
</glyph>
<glyph name="ra-deva.comb" format="1">
  <advance width="228"/>
  <unicode hex="A8EF"/>
  <outline>
    <contour>
      <point x="9" y="961" type="line"/>
      <point x="9" y="913" type="line"/>
      <point x="98" y="913" type="line"/>
      <point x="116" y="891"/>
      <point x="127" y="867"/>
      <point x="127" y="850" type="curve" smooth="yes"/>
      <point x="127" y="824"/>
      <point x="114" y="809"/>
      <point x="93" y="809" type="curve" smooth="yes"/>
      <point x="81" y="809"/>
      <point x="69" y="814"/>
      <point x="57" y="822" type="curve"/>
      <point x="29" y="787" type="line"/>
      <point x="138" y="640" type="line"/>
      <point x="184" y="672" type="line"/>
      <point x="117" y="765" type="line"/>
      <point x="159" y="772"/>
      <point x="185" y="802"/>
      <point x="185" y="849" type="curve" smooth="yes"/>
      <point x="185" y="868"/>
      <point x="177" y="890"/>
      <point x="162" y="913" type="curve"/>
      <point x="219" y="913" type="line"/>
      <point x="219" y="961" type="line"/>
    </contour>
    <contour>
      <point x="114" y="657" type="move" name="_top"/>
    </contour>
  </outline>
</glyph>
<glyph name="vi-deva.comb" format="1">
  <advance width="450"/>
  <unicode hex="A8F0"/>
  <outline>
    <contour>
      <point x="95" y="1088"/>
      <point x="54" y="1056"/>
      <point x="54" y="1008" type="curve" smooth="yes"/>
      <point x="54" y="994"/>
      <point x="57" y="978"/>
      <point x="63" y="961" type="curve"/>
      <point x="9" y="961" type="line"/>
      <point x="9" y="913" type="line"/>
      <point x="66" y="913" type="line"/>
      <point x="66" y="654" type="line"/>
      <point x="123" y="654" type="line"/>
      <point x="123" y="913" type="line"/>
      <point x="327" y="913" type="line"/>
      <point x="327" y="791" type="line"/>
      <point x="311" y="762"/>
      <point x="291" y="748"/>
      <point x="264" y="748" type="curve" smooth="yes"/>
      <point x="237" y="748"/>
      <point x="221" y="763"/>
      <point x="221" y="786" type="curve" smooth="yes"/>
      <point x="221" y="813"/>
      <point x="239" y="828"/>
      <point x="267" y="828" type="curve" smooth="yes"/>
      <point x="272" y="828"/>
      <point x="276" y="827"/>
      <point x="280" y="827" type="curve"/>
      <point x="275" y="875" type="line"/>
      <point x="273" y="875"/>
      <point x="270" y="875"/>
      <point x="265" y="875" type="curve" smooth="yes"/>
      <point x="200" y="875"/>
      <point x="163" y="843"/>
      <point x="163" y="786" type="curve" smooth="yes"/>
      <point x="163" y="736"/>
      <point x="203" y="701"/>
      <point x="259" y="701" type="curve" smooth="yes"/>
      <point x="285" y="701"/>
      <point x="307" y="709"/>
      <point x="327" y="725" type="curve"/>
      <point x="327" y="654" type="line"/>
      <point x="384" y="654" type="line"/>
      <point x="384" y="913" type="line"/>
      <point x="441" y="913" type="line"/>
      <point x="441" y="961" type="line"/>
      <point x="119" y="961" type="line"/>
      <point x="114" y="973"/>
      <point x="112" y="986"/>
      <point x="112" y="1002" type="curve" smooth="yes"/>
      <point x="112" y="1025"/>
      <point x="131" y="1038"/>
      <point x="167" y="1038" type="curve" smooth="yes"/>
      <point x="202" y="1038"/>
      <point x="236" y="1024"/>
      <point x="277" y="984" type="curve"/>
      <point x="320" y="1012" type="line"/>
      <point x="266" y="1065"/>
      <point x="221" y="1088"/>
      <point x="164" y="1088" type="curve" smooth="yes"/>
    </contour>
    <contour>
      <point x="225" y="657" type="move" name="_top"/>
    </contour>
  </outline>
</glyph>
<glyph name="two_candraBindu-deva" format="1">
  <advance width="539"/>
  <unicode hex="A8F5"/>
  <outline>
    <contour>
      <point x="381" y="110"/>
      <point x="313" y="58"/>
      <point x="226" y="58" type="curve"/>
      <point x="312" y="7" type="line"/>
      <point x="245" y="93"/>
      <point x="217" y="123"/>
      <point x="176" y="123" type="curve" smooth="yes"/>
      <point x="139" y="123"/>
      <point x="111" y="101"/>
      <point x="111" y="64" type="curve" smooth="yes"/>
      <point x="111" y="11"/>
      <point x="160" y="-12"/>
      <point x="253" y="-12" type="curve" smooth="yes"/>
      <point x="367" y="-12"/>
      <point x="459" y="73"/>
      <point x="459" y="178" type="curve" smooth="yes"/>
      <point x="459" y="290"/>
      <point x="381" y="361"/>
      <point x="259" y="361" type="curve" smooth="yes"/>
      <point x="206" y="361"/>
      <point x="151" y="348"/>
      <point x="100" y="327" type="curve"/>
      <point x="121" y="258" type="line"/>
      <point x="167" y="276"/>
      <point x="214" y="288"/>
      <point x="256" y="288" type="curve" smooth="yes"/>
      <point x="337" y="288"/>
      <point x="381" y="250"/>
      <point x="381" y="178" type="curve" smooth="yes"/>
    </contour>
    <contour>
      <point x="420" y="-126" type="line"/>
      <point x="289" y="34" type="line"/>
      <point x="211" y="10" type="line"/>
      <point x="360" y="-172" type="line"/>
    </contour>
    <component base="candraBindu-deva" xOffset="52" yOffset="-305"/>
  </outline>
</glyph>
<glyph name="caret-deva" format="1">
  <advance width="463"/>
  <unicode hex="A8FA"/>
  <outline>
    <contour>
      <point x="443" y="801" type="line"/>
      <point x="382" y="839" type="line"/>
      <point x="232" y="655" type="line"/>
      <point x="82" y="839" type="line"/>
      <point x="20" y="801" type="line"/>
      <point x="185" y="598" type="line"/>
      <point x="278" y="599" type="line"/>
    </contour>
    <contour>
      <point x="232" y="599" type="move" name="_top"/>
    </contour>
  </outline>
</glyph>
<glyph name="a_compo" format="1">
  <advance width="573"/>
  <outline>
    <contour>
      <point x="259" y="344" type="line"/>
      <point x="324" y="312"/>
      <point x="364" y="270"/>
      <point x="364" y="213" type="curve" smooth="yes"/>
      <point x="364" y="155"/>
      <point x="327" y="106"/>
      <point x="249" y="106" type="curve"/>
      <point x="190" y="106"/>
      <point x="124" y="148"/>
      <point x="88" y="216" type="curve"/>
      <point x="27" y="182" type="line"/>
      <point x="76" y="85"/>
      <point x="160" y="32"/>
      <point x="249" y="32" type="curve"/>
      <point x="361" y="32"/>
      <point x="448" y="101"/>
      <point x="448" y="213" type="curve" smooth="yes"/>
      <point x="448" y="299"/>
      <point x="391" y="369"/>
      <point x="297" y="410" type="curve"/>
    </contour>
    <contour>
      <point x="178" y="659"/>
      <point x="123" y="645"/>
      <point x="69" y="625" type="curve" smooth="yes"/>
      <point x="93" y="554" type="line"/>
      <point x="136" y="571"/>
      <point x="182" y="583"/>
      <point x="220" y="583" type="curve" smooth="yes"/>
      <point x="270" y="583"/>
      <point x="307" y="563"/>
      <point x="307" y="508" type="curve"/>
      <point x="307" y="446"/>
      <point x="282" y="412"/>
      <point x="135" y="380" type="curve"/>
      <point x="155" y="309" type="line"/>
      <point x="358" y="354"/>
      <point x="391" y="429"/>
      <point x="391" y="510" type="curve"/>
      <point x="391" y="603"/>
      <point x="322" y="659"/>
      <point x="228" y="659" type="curve" smooth="yes"/>
    </contour>
    <contour>
      <point x="279" y="366" type="line"/>
      <point x="328" y="328"/>
      <point x="402" y="305"/>
      <point x="475" y="305" type="curve"/>
      <point x="536" y="305"/>
      <point x="601" y="316"/>
      <point x="647" y="336" type="curve"/>
      <point x="623" y="410" type="line"/>
      <point x="584" y="389"/>
      <point x="536" y="379"/>
      <point x="475" y="379" type="curve"/>
      <point x="411" y="379"/>
      <point x="352" y="392"/>
      <point x="307" y="416" type="curve"/>
    </contour>
  </outline>
</glyph>
<glyph name="aiMatra_reph-deva" format="1">
  <advance width="270"/>
  <note>
	dMatraAiReph
  </note>
  <outline>
    <contour>
      <point x="178" y="923"/>
      <point x="107" y="879"/>
      <point x="107" y="789" type="curve" smooth="yes"/>
      <point x="107" y="739"/>
      <point x="118" y="692"/>
      <point x="141" y="648" type="curve"/>
      <point x="218" y="648" type="line"/>
      <point x="199" y="689"/>
      <point x="186" y="734"/>
      <point x="186" y="771" type="curve" smooth="yes"/>
      <point x="186" y="817"/>
      <point x="206" y="852"/>
      <point x="257" y="852" type="curve" smooth="yes"/>
      <point x="280" y="852"/>
      <point x="305" y="846"/>
      <point x="330" y="833" type="curve"/>
      <point x="347" y="899" type="line"/>
      <point x="317" y="916"/>
      <point x="285" y="923"/>
      <point x="255" y="923" type="curve" smooth="yes"/>
    </contour>
    <component base="aiMatra-deva" xOffset="-221"/>
    <contour>
      <point x="146" y="658" type="move" name="_top"/>
    </contour>
  </outline>
</glyph>
<glyph name="aiMatra_reph_anusvara-deva" format="1">
  <advance width="270"/>
  <note>
	dMatraAiRephAnusvara
  </note>
  <outline>
    <component base="anusvara-deva" xOffset="207" yOffset="86" xScale="0.888" yScale="0.888"/>
    <component base="aiMatra_reph-deva"/>
    <contour>
      <point x="145" y="658" type="move" name="_top"/>
    </contour>
  </outline>
</glyph>
<glyph name="anusvara-deva.alt" format="1">
  <advance width="142"/>
  <outline>
    <component base="anusvara-deva" yOffset="136"/>
    <contour>
      <point x="65" y="658" type="move" name="_top"/>
    </contour>
  </outline>
</glyph>
<glyph name="auMatra_anusvara-deva" format="1">
  <advance width="306"/>
  <outline>
    <component base="aaMatra-deva"/>
    <component base="aiMatra-deva" xOffset="-217"/>
    <component base="anusvara-deva" xOffset="178"/>
    <contour>
      <point x="218" y="862" type="move" name="top"/>
    </contour>
  </outline>
</glyph>
<glyph name="auMatra_reph-deva" format="1">
  <advance width="306"/>
  <outline>
    <component base="aaMatra-deva"/>
    <component base="aiMatra-deva" xOffset="-217"/>
    <component base="reph-deva.alt" xOffset="61"/>
    <contour>
      <point x="133" y="908" type="move" name="top"/>
    </contour>
  </outline>
</glyph>
<glyph name="auMatra_reph_anusvara-deva" format="1">
  <advance width="306"/>
  <outline>
    <component base="aaMatra-deva"/>
    <component base="aiMatra-deva" xOffset="-217"/>
    <component base="reph_anusvara-deva.imatra" xOffset="76"/>
    <contour>
      <point x="137" y="904" type="move" name="top"/>
    </contour>
  </outline>
</glyph>
<glyph name="b_la-deva.loclMAR" format="1">
  <advance width="577"/>
  <outline>
    <contour>
      <point x="306" y="183" type="line"/>
      <point x="346" y="222" type="line"/>
      <point x="175" y="407" type="line"/>
      <point x="133" y="368" type="line"/>
    </contour>
    <contour>
      <point x="125" y="478"/>
      <point x="46" y="404"/>
      <point x="46" y="293" type="curve" smooth="yes"/>
      <point x="46" y="185"/>
      <point x="122" y="113"/>
      <point x="237" y="113" type="curve" smooth="yes"/>
      <point x="309" y="113"/>
      <point x="365" y="141"/>
      <point x="411" y="196" type="curve"/>
      <point x="395" y="274" type="line"/>
      <point x="359" y="227"/>
      <point x="323" y="188"/>
      <point x="247" y="188" type="curve" smooth="yes"/>
      <point x="177" y="188"/>
      <point x="130" y="230"/>
      <point x="130" y="293" type="curve" smooth="yes"/>
      <point x="130" y="359"/>
      <point x="176" y="403"/>
      <point x="244" y="403" type="curve" smooth="yes"/>
      <point x="251" y="403"/>
      <point x="273" y="403"/>
      <point x="284" y="402" type="curve"/>
      <point x="274" y="476" type="line"/>
      <point x="267" y="477"/>
      <point x="252" y="478"/>
      <point x="244" y="478" type="curve" smooth="yes"/>
    </contour>
    <contour>
      <point x="-10" y="658" type="line"/>
      <point x="-10" y="583" type="line"/>
      <point x="393" y="583" type="line"/>
      <point x="393" y="658" type="line"/>
    </contour>
    <contour>
      <point x="381" y="606" type="line"/>
      <point x="381" y="0" type="line"/>
      <point x="466" y="0" type="line"/>
      <point x="466" y="606" type="line"/>
    </contour>
    <contour>
      <point x="253" y="658" type="line"/>
      <point x="253" y="583" type="line"/>
      <point x="595" y="583" type="line"/>
      <point x="595" y="658" type="line"/>
    </contour>
    <contour>
      <point x="312" y="70"/>
      <point x="247" y="4"/>
      <point x="227" y="-120" type="curve"/>
      <point x="302" y="-133" type="line"/>
      <point x="315" y="-49"/>
      <point x="351" y="-4"/>
      <point x="410" y="-4" type="curve" smooth="yes"/>
      <point x="460" y="-4"/>
      <point x="488" y="-35"/>
      <point x="488" y="-91" type="curve" smooth="yes"/>
      <point x="488" y="-130"/>
      <point x="474" y="-166"/>
      <point x="444" y="-206" type="curve"/>
      <point x="516" y="-244" type="line"/>
      <point x="552" y="-194"/>
      <point x="572" y="-140"/>
      <point x="572" y="-91" type="curve" smooth="yes"/>
      <point x="572" y="12"/>
      <point x="514" y="70"/>
      <point x="410" y="70" type="curve" smooth="yes"/>
    </contour>
    <contour>
      <point x="54" y="70"/>
      <point x="-4" y="12"/>
      <point x="-4" y="-91" type="curve" smooth="yes"/>
      <point x="-4" y="-140"/>
      <point x="16" y="-194"/>
      <point x="52" y="-244" type="curve"/>
      <point x="124" y="-206" type="line"/>
      <point x="94" y="-166"/>
      <point x="80" y="-130"/>
      <point x="80" y="-91" type="curve" smooth="yes"/>
      <point x="80" y="-35"/>
      <point x="108" y="-4"/>
      <point x="158" y="-4" type="curve" smooth="yes"/>
      <point x="205" y="-4"/>
      <point x="238" y="-21"/>
      <point x="267" y="-61" type="curve"/>
      <point x="312" y="-9" type="line"/>
      <point x="270" y="44"/>
      <point x="218" y="70"/>
      <point x="158" y="70" type="curve" smooth="yes"/>
    </contour>
    <contour>
      <point x="464" y="658" type="move" name="imatra"/>
    </contour>
    <contour>
      <point x="424" y="0" type="move" name="bottom"/>
    </contour>
    <contour>
      <point x="424" y="658" type="move" name="top"/>
    </contour>
  </outline>
</glyph>
<glyph name="bh-deva" format="1">
  <advance width="423"/>
  <outline>
    <contour>
      <point x="91" y="659"/>
      <point x="31" y="608"/>
      <point x="31" y="535" type="curve" smooth="yes"/>
      <point x="31" y="482"/>
      <point x="61" y="439"/>
      <point x="111" y="415" type="curve"/>
      <point x="150" y="477" type="line"/>
      <point x="126" y="489"/>
      <point x="112" y="509"/>
      <point x="112" y="533" type="curve" smooth="yes"/>
      <point x="112" y="566"/>
      <point x="136" y="583"/>
      <point x="167" y="583" type="curve" smooth="yes"/>
      <point x="207" y="583"/>
      <point x="227" y="556"/>
      <point x="227" y="516" type="curve" smooth="yes"/>
      <point x="227" y="342" type="line"/>
      <point x="316" y="342" type="line"/>
      <point x="316" y="524" type="line" smooth="yes"/>
      <point x="316" y="605"/>
      <point x="260" y="659"/>
      <point x="166" y="659" type="curve" smooth="yes"/>
    </contour>
    <contour>
      <point x="182" y="362"/>
      <point x="164" y="348"/>
      <point x="164" y="312" type="curve" smooth="yes"/>
      <point x="164" y="262"/>
      <point x="224" y="201"/>
      <point x="274" y="201" type="curve"/>
      <point x="308" y="201"/>
      <point x="314" y="215"/>
      <point x="319" y="308" type="curve"/>
      <point x="232" y="308" type="line"/>
      <point x="249" y="261" type="line"/>
      <point x="308" y="283" type="line"/>
      <point x="553" y="283" type="line"/>
      <point x="543" y="357" type="line"/>
      <point x="247" y="357" type="line"/>
      <point x="228" y="362" type="line"/>
    </contour>
    <contour>
      <point x="276" y="658" type="move" name="top"/>
    </contour>
    <contour>
      <point x="276" y="0" type="move" name="bottom"/>
    </contour>
  </outline>
</glyph>
<glyph name="c_ca-deva.alt" format="1">
  <advance width="716"/>
  <outline>
    <contour>
      <point x="264" y="289"/>
      <point x="184" y="222"/>
      <point x="184" y="130" type="curve" smooth="yes"/>
      <point x="184" y="37"/>
      <point x="260" y="-25"/>
      <point x="358" y="-25" type="curve" smooth="yes"/>
      <point x="423" y="-25"/>
      <point x="481" y="-3"/>
      <point x="522" y="33" type="curve"/>
      <point x="522" y="140" type="line"/>
      <point x="488" y="88"/>
      <point x="445" y="49"/>
      <point x="368" y="49" type="curve" smooth="yes"/>
      <point x="308" y="49"/>
      <point x="268" y="73"/>
      <point x="268" y="130" type="curve" smooth="yes"/>
      <point x="268" y="187"/>
      <point x="318" y="214"/>
      <point x="382" y="214" type="curve"/>
      <point x="382" y="289" type="line"/>
    </contour>
    <contour>
      <point x="56" y="289" type="line"/>
      <point x="56" y="214" type="line"/>
      <point x="424" y="214" type="line"/>
      <point x="414" y="289" type="line"/>
    </contour>
    <contour>
      <point x="521" y="6" type="line"/>
      <point x="521" y="-35" type="line"/>
      <point x="606" y="-35" type="line"/>
      <point x="606" y="6" type="line"/>
    </contour>
    <contour>
      <point x="264" y="529"/>
      <point x="184" y="462"/>
      <point x="184" y="370" type="curve" smooth="yes"/>
      <point x="184" y="277"/>
      <point x="260" y="215"/>
      <point x="358" y="215" type="curve"/>
      <point x="368" y="289" type="line"/>
      <point x="308" y="289"/>
      <point x="268" y="313"/>
      <point x="268" y="370" type="curve" smooth="yes"/>
      <point x="268" y="427"/>
      <point x="318" y="454"/>
      <point x="382" y="454" type="curve"/>
      <point x="382" y="529" type="line"/>
    </contour>
    <contour>
      <point x="56" y="529" type="line"/>
      <point x="56" y="454" type="line"/>
      <point x="424" y="454" type="line"/>
      <point x="414" y="529" type="line"/>
    </contour>
    <contour>
      <point x="-20" y="658" type="line"/>
      <point x="-20" y="583" type="line"/>
      <point x="736" y="583" type="line"/>
      <point x="736" y="658" type="line"/>
    </contour>
    <contour>
      <point x="521" y="606" type="line"/>
      <point x="521" y="0" type="line"/>
      <point x="606" y="0" type="line"/>
      <point x="606" y="606" type="line"/>
    </contour>
    <contour>
      <point x="393" y="658" type="line"/>
      <point x="393" y="583" type="line"/>
      <point x="735" y="583" type="line"/>
      <point x="735" y="658" type="line"/>
    </contour>
    <contour>
      <point x="604" y="658" type="move" name="imatra"/>
    </contour>
    <contour>
      <point x="563" y="-35" type="move" name="bottom"/>
    </contour>
    <contour>
      <point x="563" y="658" type="move" name="top"/>
    </contour>
  </outline>
</glyph>
<glyph name="c_ra-deva" format="1">
  <advance width="655"/>
  <outline>
    <contour>
      <point x="146" y="23" type="line"/>
      <point x="196" y="-35" type="line"/>
      <point x="477" y="184" type="line"/>
      <point x="477" y="276" type="line"/>
    </contour>
    <component base="ca-deva"/>
    <contour>
      <point x="511" y="658" type="move" name="top"/>
    </contour>
    <contour>
      <point x="511" y="0" type="move" name="bottom"/>
    </contour>
  </outline>
</glyph>
<glyph name="ch-deva" format="1">
  <advance width="735"/>
  <outline>
    <contour>
      <point x="451" y="528"/>
      <point x="388" y="472"/>
      <point x="388" y="391" type="curve" smooth="yes"/>
      <point x="388" y="340"/>
      <point x="416" y="289"/>
      <point x="474" y="259" type="curve"/>
      <point x="519" y="304" type="line"/>
      <point x="488" y="327"/>
      <point x="471" y="355"/>
      <point x="471" y="383" type="curve" smooth="yes"/>
      <point x="471" y="423"/>
      <point x="500" y="448"/>
      <point x="534" y="448" type="curve" smooth="yes"/>
      <point x="574" y="448"/>
      <point x="604" y="417"/>
      <point x="604" y="359" type="curve" smooth="yes"/>
      <point x="604" y="224"/>
      <point x="474" y="134"/>
      <point x="324" y="134" type="curve" smooth="yes"/>
      <point x="224" y="134"/>
      <point x="166" y="173"/>
      <point x="166" y="238" type="curve" smooth="yes"/>
      <point x="166" y="293"/>
      <point x="208" y="331"/>
      <point x="267" y="331" type="curve" smooth="yes"/>
      <point x="281" y="331"/>
      <point x="290" y="331"/>
      <point x="302" y="329" type="curve"/>
      <point x="295" y="405" type="line"/>
      <point x="281" y="407"/>
      <point x="275" y="407"/>
      <point x="267" y="407" type="curve" smooth="yes"/>
      <point x="155" y="407"/>
      <point x="79" y="339"/>
      <point x="79" y="238" type="curve" smooth="yes"/>
      <point x="79" y="126"/>
      <point x="170" y="60"/>
      <point x="325" y="60" type="curve" smooth="yes"/>
      <point x="525" y="60"/>
      <point x="688" y="180"/>
      <point x="688" y="359" type="curve" smooth="yes"/>
      <point x="688" y="460"/>
      <point x="621" y="528"/>
      <point x="529" y="528" type="curve" smooth="yes"/>
    </contour>
    <contour>
      <point x="91" y="570"/>
      <point x="79" y="537"/>
      <point x="79" y="499" type="curve" smooth="yes"/>
      <point x="79" y="439"/>
      <point x="107" y="386"/>
      <point x="157" y="355" type="curve"/>
      <point x="216" y="399" type="line"/>
      <point x="185" y="410"/>
      <point x="166" y="449"/>
      <point x="166" y="499" type="curve" smooth="yes"/>
      <point x="166" y="531"/>
      <point x="181" y="562"/>
      <point x="207" y="585" type="curve"/>
      <point x="116" y="600" type="line"/>
    </contour>
    <contour>
      <point x="-10" y="658" type="line"/>
      <point x="-10" y="583" type="line"/>
      <point x="745" y="583" type="line"/>
      <point x="745" y="658" type="line"/>
    </contour>
    <contour>
      <point x="371" y="658" type="move" name="top"/>
    </contour>
    <contour>
      <point x="375" y="0" type="move" name="bottom"/>
    </contour>
  </outline>
</glyph>
<glyph name="d_b_ra-deva" format="1">
  <advance width="595"/>
  <outline>
    <contour>
      <point x="344" y="159" type="line"/>
      <point x="227" y="-89" type="line"/>
      <point x="299" y="-117" type="line"/>
      <point x="408" y="123" type="line"/>
    </contour>
    <component base="d_ba-deva"/>
    <contour>
      <point x="414" y="658" type="move" name="top"/>
    </contour>
    <contour>
      <point x="505" y="48" type="move" name="bottom"/>
    </contour>
  </outline>
</glyph>
<glyph name="d_bh_ya-deva" format="1">
  <advance width="1148"/>
  <outline>
    <component base="d_bha-deva" xOffset="-15"/>
    <component base="ya.connect" xOffset="605"/>
    <contour>
      <point x="996" y="658" type="move" name="top"/>
    </contour>
    <contour>
      <point x="995" y="0" type="move" name="bottom"/>
    </contour>
  </outline>
</glyph>
<glyph name="d_bha-deva" format="1">
  <advance width="681"/>
  <outline>
    <contour>
      <point x="262" y="7" type="line"/>
      <point x="247" y="-4" type="line"/>
      <point x="234" y="-21"/>
      <point x="227" y="-36"/>
      <point x="227" y="-50" type="curve" smooth="yes"/>
      <point x="227" y="-85"/>
      <point x="268" y="-103"/>
      <point x="311" y="-103" type="curve" smooth="yes"/>
      <point x="361" y="-103"/>
      <point x="413" y="-75"/>
      <point x="413" y="-42" type="curve" smooth="yes"/>
      <point x="413" y="-25"/>
      <point x="393" y="-6"/>
      <point x="345" y="35" type="curve"/>
      <point x="358" y="11" type="line"/>
      <point x="512" y="215" type="line"/>
      <point x="447" y="252" type="line"/>
    </contour>
    <contour>
      <point x="121" y="144"/>
      <point x="89" y="127"/>
      <point x="64" y="94" type="curve"/>
      <point x="23" y="39" type="line"/>
      <point x="83" y="-7" type="line"/>
      <point x="106" y="25" type="line"/>
      <point x="120" y="43"/>
      <point x="135" y="52"/>
      <point x="152" y="52" type="curve" smooth="yes"/>
      <point x="164" y="52"/>
      <point x="177" y="47"/>
      <point x="191" y="37" type="curve"/>
      <point x="268" y="-20" type="line"/>
      <point x="319" y="47" type="line"/>
      <point x="225" y="117" type="line"/>
      <point x="202" y="135"/>
      <point x="177" y="144"/>
      <point x="154" y="144" type="curve" smooth="yes"/>
    </contour>
    <contour>
      <point x="-5" y="658" type="line"/>
      <point x="-5" y="583" type="line"/>
      <point x="686" y="583" type="line"/>
      <point x="686" y="658" type="line"/>
    </contour>
    <component base="da_small" xOffset="93"/>
    <contour>
      <point x="480" y="658" type="move" name="top"/>
    </contour>
    <contour>
      <point x="583" y="50" type="move" name="bottom"/>
    </contour>
  </outline>
</glyph>
<glyph name="d_da-deva" format="1">
  <advance width="543"/>
  <outline>
    <contour>
      <point x="198" y="498" type="line" smooth="yes"/>
      <point x="118" y="498"/>
      <point x="67" y="459"/>
      <point x="67" y="379" type="curve" smooth="yes"/>
      <point x="67" y="308"/>
      <point x="124" y="249"/>
      <point x="250" y="249" type="curve"/>
      <point x="305" y="323" type="line"/>
      <point x="222" y="323" type="line" smooth="yes"/>
      <point x="182" y="323"/>
      <point x="151" y="339"/>
      <point x="151" y="379" type="curve" smooth="yes"/>
      <point x="151" y="409"/>
      <point x="174" y="424"/>
      <point x="204" y="424" type="curve" smooth="yes"/>
      <point x="411" y="424" type="line"/>
      <point x="336" y="498" type="line"/>
    </contour>
    <contour>
      <point x="-5" y="658" type="line"/>
      <point x="-5" y="583" type="line"/>
      <point x="548" y="583" type="line"/>
      <point x="548" y="658" type="line"/>
    </contour>
    <contour>
      <point x="327" y="599" type="line"/>
      <point x="327" y="455" type="line"/>
      <point x="411" y="424" type="line"/>
      <point x="411" y="599" type="line"/>
    </contour>
    <contour>
      <point x="285" y="323" type="line" smooth="yes"/>
      <point x="175" y="323"/>
      <point x="93" y="277"/>
      <point x="93" y="167" type="curve" smooth="yes"/>
      <point x="93" y="49"/>
      <point x="189" y="0"/>
      <point x="307" y="0" type="curve" smooth="yes"/>
      <point x="398" y="0"/>
      <point x="490" y="24"/>
      <point x="490" y="81" type="curve" smooth="yes"/>
      <point x="490" y="125"/>
      <point x="440" y="171"/>
      <point x="380" y="171" type="curve" smooth="yes"/>
      <point x="339" y="171"/>
      <point x="324" y="144"/>
      <point x="324" y="119" type="curve" smooth="yes"/>
      <point x="324" y="94"/>
      <point x="330" y="66"/>
      <point x="338" y="49" type="curve"/>
      <point x="427" y="103" type="line"/>
      <point x="389" y="82"/>
      <point x="363" y="74"/>
      <point x="307" y="74" type="curve" smooth="yes"/>
      <point x="237" y="74"/>
      <point x="176" y="96"/>
      <point x="176" y="166" type="curve" smooth="yes"/>
      <point x="176" y="221"/>
      <point x="219" y="249"/>
      <point x="274" y="249" type="curve" smooth="yes"/>
      <point x="381" y="249" type="line"/>
      <point x="371" y="323" type="line"/>
    </contour>
    <contour>
      <point x="343" y="39" type="line"/>
      <point x="497" y="-165" type="line"/>
      <point x="559" y="-117" type="line"/>
      <point x="411" y="81" type="line"/>
    </contour>
    <contour>
      <point x="367" y="658" type="move" name="top"/>
    </contour>
    <contour>
      <point x="390" y="0" type="move" name="bottom"/>
    </contour>
  </outline>
</glyph>
<glyph name="d_ddh_r_ya-deva" format="1">
  <advance width="1141"/>
  <outline>
    <component base="d_dha-deva"/>
    <component base="ya.connect" xOffset="598"/>
    <contour>
      <point x="989" y="658" type="move" name="top"/>
    </contour>
    <contour>
      <point x="988" y="0" type="move" name="bottom"/>
    </contour>
  </outline>
</glyph>
<glyph name="d_dh_ya-deva" format="1">
  <advance width="1163"/>
  <outline>
    <component base="d_dha-deva" xOffset="10"/>
    <component base="ya.connect" xOffset="620"/>
    <contour>
      <point x="1011" y="658" type="move" name="top"/>
    </contour>
    <contour>
      <point x="1010" y="0" type="move" name="bottom"/>
    </contour>
  </outline>
</glyph>
<glyph name="d_ga_uMatra-deva" format="1">
  <advance width="570"/>
  <outline>
    <component base="d_ga-deva"/>
    <component base="uMatra-deva" xOffset="277" yOffset="52"/>
    <contour>
      <point x="384" y="658" type="move" name="top"/>
    </contour>
    <contour>
      <point x="328" y="-93" type="move" name="bottom"/>
    </contour>
  </outline>
</glyph>
<glyph name="d_gha_uMatra-deva" format="1">
  <advance width="645"/>
  <outline>
    <component base="d_gha-deva"/>
    <component base="uMatra-deva" xOffset="376" yOffset="52"/>
    <contour>
      <point x="484" y="658" type="move" name="top"/>
    </contour>
  </outline>
</glyph>
<glyph name="d_ma-deva" format="1">
  <advance width="718"/>
  <outline>
    <contour>
      <point x="-5" y="658" type="line"/>
      <point x="-5" y="583" type="line"/>
      <point x="562" y="583" type="line"/>
      <point x="562" y="658" type="line"/>
    </contour>
    <contour>
      <point x="279" y="599" type="line"/>
      <point x="279" y="456" type="line"/>
      <point x="363" y="424" type="line"/>
      <point x="363" y="599" type="line"/>
    </contour>
    <contour>
      <point x="173" y="498" type="line" smooth="yes"/>
      <point x="93" y="498"/>
      <point x="42" y="459"/>
      <point x="42" y="379" type="curve" smooth="yes"/>
      <point x="42" y="299"/>
      <point x="105" y="249"/>
      <point x="185" y="249" type="curve" smooth="yes"/>
      <point x="243" y="249" type="line" smooth="yes"/>
      <point x="273" y="249"/>
      <point x="288" y="234"/>
      <point x="288" y="204" type="curve" smooth="yes"/>
      <point x="288" y="118" type="line"/>
      <point x="373" y="118" type="line"/>
      <point x="373" y="218" type="line" smooth="yes"/>
      <point x="373" y="288"/>
      <point x="338" y="323"/>
      <point x="268" y="323" type="curve" smooth="yes"/>
      <point x="197" y="323" type="line" smooth="yes"/>
      <point x="147" y="323"/>
      <point x="126" y="339"/>
      <point x="126" y="379" type="curve" smooth="yes"/>
      <point x="126" y="409"/>
      <point x="149" y="424"/>
      <point x="179" y="424" type="curve" smooth="yes"/>
      <point x="363" y="424" type="line"/>
      <point x="288" y="498" type="line"/>
    </contour>
    <contour>
      <point x="523" y="6" type="line"/>
      <point x="523" y="-35" type="line"/>
      <point x="608" y="-35" type="line"/>
      <point x="608" y="6" type="line"/>
    </contour>
    <contour>
      <point x="288" y="164" type="line" smooth="yes"/>
      <point x="248" y="164"/>
      <point x="214" y="154"/>
      <point x="214" y="114" type="curve" smooth="yes"/>
      <point x="214" y="72"/>
      <point x="270" y="18"/>
      <point x="328" y="18" type="curve" smooth="yes"/>
      <point x="359" y="18"/>
      <point x="368" y="44"/>
      <point x="371" y="90" type="curve"/>
      <point x="558" y="90" type="line"/>
      <point x="558" y="164" type="line"/>
    </contour>
    <contour>
      <point x="523" y="606" type="line"/>
      <point x="523" y="0" type="line"/>
      <point x="608" y="0" type="line"/>
      <point x="608" y="606" type="line"/>
    </contour>
    <contour>
      <point x="395" y="658" type="line"/>
      <point x="395" y="583" type="line"/>
      <point x="737" y="583" type="line"/>
      <point x="737" y="658" type="line"/>
    </contour>
    <contour>
      <point x="606" y="658" type="move" name="imatra"/>
    </contour>
    <contour>
      <point x="566" y="-35" type="move" name="bottom"/>
    </contour>
    <contour>
      <point x="566" y="658" type="move" name="top"/>
    </contour>
  </outline>
</glyph>
<glyph name="d_na_uMatra-deva" format="1">
  <advance width="547"/>
  <outline>
    <component base="d_na-deva"/>
    <component base="uMatra-deva" xOffset="271" yOffset="47"/>
    <contour>
      <point x="389" y="658" type="move" name="top"/>
    </contour>
    <contour>
      <point x="294" y="78" type="move" name="bottom"/>
    </contour>
  </outline>
</glyph>
<glyph name="d_ra-deva" format="1">
  <advance width="564"/>
  <outline>
    <contour>
      <point x="-5" y="583" type="line"/>
      <point x="569" y="583" type="line"/>
      <point x="569" y="658" type="line"/>
      <point x="-5" y="658" type="line"/>
    </contour>
    <contour>
      <point x="352" y="119"/>
      <point x="406" y="53"/>
      <point x="482" y="-5" type="curve"/>
      <point x="537" y="52" type="line"/>
      <point x="459" y="113"/>
      <point x="420" y="152"/>
      <point x="389" y="250" type="curve"/>
      <point x="321" y="208" type="line"/>
    </contour>
    <contour>
      <point x="39" y="23" type="line"/>
      <point x="89" y="-35" type="line"/>
      <point x="370" y="184" type="line"/>
      <point x="269" y="199" type="line"/>
    </contour>
    <component base="da-deva-compo" xOffset="8"/>
    <contour>
      <point x="390" y="658" type="move" name="top"/>
    </contour>
    <contour>
      <point x="277" y="0" type="move" name="bottom"/>
    </contour>
  </outline>
</glyph>
<glyph name="d_v_ya-deva" format="1">
  <advance width="1060"/>
  <outline>
    <component base="d_va-deva" xOffset="10"/>
    <component base="ya.connect" xOffset="517"/>
    <contour>
      <point x="908" y="657" type="move" name="top"/>
    </contour>
    <contour>
      <point x="907" y="0" type="move" name="bottom"/>
    </contour>
  </outline>
</glyph>
<glyph name="da-deva-compo" format="1">
  <advance width="559"/>
  <outline>
    <contour>
      <point x="332" y="522" type="line"/>
      <point x="245" y="522" type="line" smooth="yes"/>
      <point x="125" y="522"/>
      <point x="48" y="479"/>
      <point x="48" y="366" type="curve" smooth="yes"/>
      <point x="48" y="238"/>
      <point x="154" y="159"/>
      <point x="282" y="159" type="curve" smooth="yes"/>
      <point x="373" y="159"/>
      <point x="465" y="183"/>
      <point x="465" y="240" type="curve" smooth="yes"/>
      <point x="465" y="284"/>
      <point x="415" y="330"/>
      <point x="355" y="330" type="curve" smooth="yes"/>
      <point x="314" y="330"/>
      <point x="299" y="303"/>
      <point x="299" y="278" type="curve" smooth="yes"/>
      <point x="299" y="253"/>
      <point x="305" y="225"/>
      <point x="313" y="208" type="curve"/>
      <point x="402" y="262" type="line"/>
      <point x="364" y="241"/>
      <point x="338" y="233"/>
      <point x="282" y="233" type="curve" smooth="yes"/>
      <point x="200" y="233"/>
      <point x="131" y="283"/>
      <point x="131" y="365" type="curve" smooth="yes"/>
      <point x="131" y="424"/>
      <point x="169" y="448"/>
      <point x="234" y="448" type="curve" smooth="yes"/>
      <point x="416" y="448" type="line"/>
      <point x="416" y="633" type="line"/>
      <point x="332" y="633" type="line"/>
    </contour>
    <contour>
      <point x="381" y="658" type="move" name="top"/>
    </contour>
    <contour>
      <point x="284" y="78" type="move" name="bottom"/>
    </contour>
  </outline>
</glyph>
<glyph name="da_small" format="1">
  <advance width="570"/>
  <outline>
    <contour>
      <point x="469" y="1" type="line"/>
      <point x="537" y="48" type="line"/>
      <point x="395" y="240" type="line"/>
      <point x="327" y="208" type="line"/>
    </contour>
    <contour>
      <point x="346" y="522" type="line"/>
      <point x="259" y="522" type="line" smooth="yes"/>
      <point x="139" y="522"/>
      <point x="62" y="479"/>
      <point x="62" y="366" type="curve" smooth="yes"/>
      <point x="62" y="238"/>
      <point x="168" y="159"/>
      <point x="296" y="159" type="curve" smooth="yes"/>
      <point x="387" y="159"/>
      <point x="479" y="183"/>
      <point x="479" y="240" type="curve" smooth="yes"/>
      <point x="479" y="284"/>
      <point x="429" y="330"/>
      <point x="369" y="330" type="curve" smooth="yes"/>
      <point x="328" y="330"/>
      <point x="313" y="303"/>
      <point x="313" y="278" type="curve" smooth="yes"/>
      <point x="313" y="253"/>
      <point x="319" y="225"/>
      <point x="327" y="208" type="curve"/>
      <point x="416" y="262" type="line"/>
      <point x="378" y="241"/>
      <point x="352" y="233"/>
      <point x="296" y="233" type="curve" smooth="yes"/>
      <point x="214" y="233"/>
      <point x="145" y="283"/>
      <point x="145" y="365" type="curve" smooth="yes"/>
      <point x="145" y="424"/>
      <point x="183" y="448"/>
      <point x="248" y="448" type="curve" smooth="yes"/>
      <point x="430" y="448" type="line"/>
      <point x="430" y="633" type="line"/>
      <point x="346" y="633" type="line"/>
    </contour>
    <contour>
      <point x="391" y="658" type="move" name="top"/>
    </contour>
    <contour>
      <point x="333" y="0" type="move" name="bottom"/>
    </contour>
  </outline>
</glyph>
<glyph name="da_uMatra-deva" format="1">
  <advance width="543"/>
  <outline>
    <contour>
      <point x="474" y="-235"/>
      <point x="556" y="-188"/>
      <point x="556" y="-89" type="curve" smooth="yes"/>
      <point x="556" y="-12"/>
      <point x="484" y="32"/>
      <point x="407" y="32" type="curve" smooth="yes"/>
      <point x="369" y="32"/>
      <point x="324" y="14"/>
      <point x="286" y="-12" type="curve"/>
      <point x="323" y="-71" type="line"/>
      <point x="360" y="-49"/>
      <point x="376" y="-42"/>
      <point x="405" y="-42" type="curve" smooth="yes"/>
      <point x="452" y="-42"/>
      <point x="472" y="-66"/>
      <point x="472" y="-96" type="curve" smooth="yes"/>
      <point x="472" y="-145"/>
      <point x="424" y="-161"/>
      <point x="375" y="-161" type="curve" smooth="yes"/>
      <point x="299" y="-161"/>
      <point x="238" y="-125"/>
      <point x="184" y="-49" type="curve"/>
      <point x="127" y="-94" type="line"/>
      <point x="195" y="-193"/>
      <point x="283" y="-235"/>
      <point x="375" y="-235" type="curve" smooth="yes"/>
    </contour>
    <contour>
      <point x="337" y="594" type="line"/>
      <point x="337" y="475" type="line"/>
      <point x="261" y="475" type="line" smooth="yes"/>
      <point x="134" y="475"/>
      <point x="53" y="417"/>
      <point x="53" y="290" type="curve" smooth="yes"/>
      <point x="53" y="160"/>
      <point x="157" y="78"/>
      <point x="287" y="78" type="curve" smooth="yes"/>
      <point x="388" y="78"/>
      <point x="470" y="105"/>
      <point x="470" y="159" type="curve" smooth="yes"/>
      <point x="470" y="203"/>
      <point x="420" y="249"/>
      <point x="360" y="249" type="curve" smooth="yes"/>
      <point x="319" y="249"/>
      <point x="304" y="222"/>
      <point x="304" y="197" type="curve" smooth="yes"/>
      <point x="304" y="144"/>
      <point x="327" y="113"/>
      <point x="336" y="96" type="curve" smooth="yes"/>
      <point x="372" y="33"/>
      <point x="402" y="-4"/>
      <point x="441" y="-44" type="curve"/>
      <point x="511" y="0" type="line"/>
      <point x="461" y="45"/>
      <point x="418" y="96"/>
      <point x="391" y="153" type="curve"/>
      <point x="407" y="181" type="line"/>
      <point x="369" y="160"/>
      <point x="353" y="152"/>
      <point x="297" y="152" type="curve" smooth="yes"/>
      <point x="207" y="152"/>
      <point x="137" y="199"/>
      <point x="137" y="289" type="curve" smooth="yes"/>
      <point x="137" y="361"/>
      <point x="187" y="401"/>
      <point x="259" y="401" type="curve" smooth="yes"/>
      <point x="421" y="401" type="line"/>
      <point x="421" y="594" type="line"/>
    </contour>
    <contour>
      <point x="-20" y="658" type="line"/>
      <point x="-20" y="583" type="line"/>
      <point x="563" y="583" type="line"/>
      <point x="563" y="658" type="line"/>
    </contour>
    <contour>
      <point x="384" y="658" type="move" name="top"/>
    </contour>
    <contour>
      <point x="292" y="0" type="move" name="bottom"/>
    </contour>
  </outline>
</glyph>
<glyph name="dd_dda-deva" format="1">
  <advance width="587"/>
  <outline>
    <contour>
      <point x="-20" y="658" type="line"/>
      <point x="-20" y="583" type="line"/>
      <point x="607" y="583" type="line"/>
      <point x="607" y="658" type="line"/>
    </contour>
    <contour>
      <point x="222" y="124" type="line" smooth="yes"/>
      <point x="161" y="124"/>
      <point x="121" y="90"/>
      <point x="121" y="36" type="curve" smooth="yes"/>
      <point x="121" y="-32"/>
      <point x="175" y="-94"/>
      <point x="247" y="-94" type="curve" smooth="yes"/>
      <point x="287" y="-94"/>
      <point x="378" y="-73"/>
      <point x="408" y="-73" type="curve" smooth="yes"/>
      <point x="433" y="-73"/>
      <point x="441" y="-83"/>
      <point x="441" y="-103" type="curve" smooth="yes"/>
      <point x="441" y="-135"/>
      <point x="398" y="-161"/>
      <point x="300" y="-161" type="curve" smooth="yes"/>
      <point x="217" y="-161"/>
      <point x="150" y="-128"/>
      <point x="84" y="-48" type="curve"/>
      <point x="25" y="-82" type="line"/>
      <point x="88" y="-182"/>
      <point x="190" y="-235"/>
      <point x="306" y="-235" type="curve" smooth="yes"/>
      <point x="430" y="-235"/>
      <point x="525" y="-182"/>
      <point x="525" y="-92" type="curve" smooth="yes"/>
      <point x="525" y="-32"/>
      <point x="499" y="2"/>
      <point x="439" y="2" type="curve" smooth="yes"/>
      <point x="399" y="2"/>
      <point x="293" y="-19"/>
      <point x="263" y="-19" type="curve" smooth="yes"/>
      <point x="222" y="-19"/>
      <point x="205" y="-4"/>
      <point x="205" y="24" type="curve" smooth="yes"/>
      <point x="205" y="41"/>
      <point x="218" y="50"/>
      <point x="235" y="50" type="curve" smooth="yes"/>
      <point x="465" y="50" type="line"/>
      <point x="388" y="124" type="line"/>
    </contour>
    <contour>
      <point x="381" y="226" type="line"/>
      <point x="381" y="89" type="line"/>
      <point x="465" y="50" type="line"/>
      <point x="465" y="226" type="line"/>
    </contour>
    <contour>
      <point x="222" y="522" type="line" smooth="yes"/>
      <point x="161" y="522"/>
      <point x="121" y="488"/>
      <point x="121" y="434" type="curve" smooth="yes"/>
      <point x="121" y="366"/>
      <point x="175" y="304"/>
      <point x="247" y="304" type="curve" smooth="yes"/>
      <point x="287" y="304"/>
      <point x="378" y="325"/>
      <point x="408" y="325" type="curve" smooth="yes"/>
      <point x="433" y="325"/>
      <point x="441" y="315"/>
      <point x="441" y="295" type="curve" smooth="yes"/>
      <point x="441" y="263"/>
      <point x="398" y="237"/>
      <point x="300" y="237" type="curve" smooth="yes"/>
      <point x="217" y="237"/>
      <point x="150" y="270"/>
      <point x="84" y="350" type="curve"/>
      <point x="25" y="316" type="line"/>
      <point x="88" y="216"/>
      <point x="190" y="163"/>
      <point x="306" y="163" type="curve" smooth="yes"/>
      <point x="430" y="163"/>
      <point x="525" y="216"/>
      <point x="525" y="306" type="curve" smooth="yes"/>
      <point x="525" y="366"/>
      <point x="499" y="400"/>
      <point x="439" y="400" type="curve" smooth="yes"/>
      <point x="399" y="400"/>
      <point x="293" y="379"/>
      <point x="263" y="379" type="curve" smooth="yes"/>
      <point x="222" y="379"/>
      <point x="205" y="394"/>
      <point x="205" y="422" type="curve" smooth="yes"/>
      <point x="205" y="439"/>
      <point x="218" y="448"/>
      <point x="235" y="448" type="curve" smooth="yes"/>
      <point x="465" y="448" type="line"/>
      <point x="388" y="522" type="line"/>
    </contour>
    <contour>
      <point x="381" y="624" type="line"/>
      <point x="381" y="487" type="line"/>
      <point x="465" y="448" type="line"/>
      <point x="465" y="624" type="line"/>
    </contour>
    <contour>
      <point x="601" y="367" type="move" name="nukta"/>
    </contour>
    <contour>
      <point x="345" y="-235" type="move" name="bottom"/>
    </contour>
    <contour>
      <point x="364" y="658" type="move" name="top"/>
    </contour>
  </outline>
</glyph>
<glyph name="ddh_ddha-deva" format="1">
  <advance width="578"/>
  <outline>
    <contour>
      <point x="-20" y="658" type="line"/>
      <point x="-20" y="583" type="line"/>
      <point x="598" y="583" type="line"/>
      <point x="598" y="658" type="line"/>
    </contour>
    <contour>
      <point x="361" y="522" type="line"/>
      <point x="259" y="522" type="line" smooth="yes"/>
      <point x="143" y="522"/>
      <point x="59" y="481"/>
      <point x="59" y="370" type="curve" smooth="yes"/>
      <point x="59" y="220"/>
      <point x="213" y="184"/>
      <point x="327" y="184" type="curve" smooth="yes"/>
      <point x="455" y="184"/>
      <point x="538" y="230"/>
      <point x="538" y="303" type="curve" smooth="yes"/>
      <point x="538" y="341"/>
      <point x="507" y="396"/>
      <point x="420" y="396" type="curve" smooth="yes"/>
      <point x="334" y="396"/>
      <point x="294" y="356"/>
      <point x="294" y="306" type="curve" smooth="yes"/>
      <point x="294" y="276"/>
      <point x="309" y="242"/>
      <point x="337" y="211" type="curve"/>
      <point x="415" y="224" type="line"/>
      <point x="391" y="241"/>
      <point x="376" y="269"/>
      <point x="376" y="292" type="curve" smooth="yes"/>
      <point x="376" y="314"/>
      <point x="389" y="331"/>
      <point x="419" y="331" type="curve" smooth="yes"/>
      <point x="443" y="331"/>
      <point x="454" y="319"/>
      <point x="454" y="305" type="curve" smooth="yes"/>
      <point x="454" y="270"/>
      <point x="413" y="258"/>
      <point x="309" y="258" type="curve" smooth="yes"/>
      <point x="184" y="258"/>
      <point x="143" y="314"/>
      <point x="143" y="368" type="curve" smooth="yes"/>
      <point x="143" y="424"/>
      <point x="183" y="448"/>
      <point x="264" y="448" type="curve" smooth="yes"/>
      <point x="445" y="448" type="line"/>
      <point x="445" y="634" type="line"/>
      <point x="361" y="634" type="line"/>
    </contour>
    <contour>
      <point x="361" y="116" type="line"/>
      <point x="259" y="116" type="line" smooth="yes"/>
      <point x="143" y="116"/>
      <point x="59" y="75"/>
      <point x="59" y="-36" type="curve" smooth="yes"/>
      <point x="59" y="-186"/>
      <point x="213" y="-222"/>
      <point x="327" y="-222" type="curve" smooth="yes"/>
      <point x="455" y="-222"/>
      <point x="538" y="-176"/>
      <point x="538" y="-103" type="curve" smooth="yes"/>
      <point x="538" y="-65"/>
      <point x="507" y="-10"/>
      <point x="420" y="-10" type="curve" smooth="yes"/>
      <point x="334" y="-10"/>
      <point x="294" y="-50"/>
      <point x="294" y="-100" type="curve" smooth="yes"/>
      <point x="294" y="-130"/>
      <point x="309" y="-164"/>
      <point x="337" y="-195" type="curve"/>
      <point x="415" y="-182" type="line"/>
      <point x="391" y="-165"/>
      <point x="376" y="-137"/>
      <point x="376" y="-114" type="curve" smooth="yes"/>
      <point x="376" y="-92"/>
      <point x="389" y="-75"/>
      <point x="419" y="-75" type="curve" smooth="yes"/>
      <point x="443" y="-75"/>
      <point x="454" y="-87"/>
      <point x="454" y="-101" type="curve" smooth="yes"/>
      <point x="454" y="-136"/>
      <point x="413" y="-148"/>
      <point x="309" y="-148" type="curve" smooth="yes"/>
      <point x="184" y="-148"/>
      <point x="143" y="-92"/>
      <point x="143" y="-38" type="curve" smooth="yes"/>
      <point x="143" y="18"/>
      <point x="183" y="42"/>
      <point x="264" y="42" type="curve" smooth="yes"/>
      <point x="445" y="42" type="line"/>
      <point x="445" y="228" type="line"/>
      <point x="361" y="228" type="line"/>
    </contour>
    <contour>
      <point x="308" y="658" type="move" name="top"/>
    </contour>
    <contour>
      <point x="320" y="-222" type="move" name="bottom"/>
    </contour>
  </outline>
</glyph>
<glyph name="devaHeight" format="1">
  <advance width="319"/>
  <outline>
    <contour>
      <point x="117" y="578" type="line"/>
      <point x="117" y="0" type="line"/>
      <point x="202" y="0" type="line"/>
      <point x="202" y="578" type="line"/>
    </contour>
  </outline>
</glyph>
<glyph name="devaTecho" format="1">
  <advance width="319"/>
  <outline>
    <contour>
      <point x="-10" y="658" type="line"/>
      <point x="-10" y="583" type="line"/>
      <point x="329" y="583" type="line"/>
      <point x="329" y="658" type="line"/>
    </contour>
  </outline>
</glyph>
<glyph name="dh_ra-deva" format="1">
  <advance width="724"/>
  <outline>
    <contour>
      <point x="212" y="3" type="line"/>
      <point x="262" y="-55" type="line"/>
      <point x="543" y="164" type="line"/>
      <point x="543" y="256" type="line"/>
    </contour>
    <component base="dha-deva"/>
    <contour>
      <point x="544" y="658" type="move" name="top"/>
    </contour>
    <contour>
      <point x="543" y="0" type="move" name="bottom"/>
    </contour>
  </outline>
</glyph>
<glyph name="eMatra_anusvara-deva" format="1">
  <advance width="270"/>
  <note>
	dMatraEAnusvara
  </note>
  <outline>
    <component base="anusvara-deva" xOffset="102" yOffset="71" xScale="0.956" yScale="0.956"/>
    <component base="eMatra-deva" xOffset="-138"/>
    <contour>
      <point x="135" y="658" type="move" name="_top"/>
    </contour>
  </outline>
</glyph>
<glyph name="eMatra_reph-deva" format="1">
  <advance width="270"/>
  <note>
    dMatraEReph
  </note>
  <outline>
    <contour>
      <point x="120" y="923"/>
      <point x="49" y="879"/>
      <point x="49" y="789" type="curve" smooth="yes"/>
      <point x="49" y="739"/>
      <point x="71" y="692"/>
      <point x="113" y="648" type="curve"/>
      <point x="187" y="648" type="line"/>
      <point x="145" y="699"/>
      <point x="129" y="736"/>
      <point x="129" y="780" type="curve" smooth="yes"/>
      <point x="129" y="833"/>
      <point x="159" y="852"/>
      <point x="199" y="852" type="curve" smooth="yes"/>
      <point x="222" y="852"/>
      <point x="247" y="845"/>
      <point x="272" y="836" type="curve"/>
      <point x="289" y="902" type="line"/>
      <point x="259" y="916"/>
      <point x="227" y="923"/>
      <point x="197" y="923" type="curve" smooth="yes"/>
    </contour>
    <component base="eMatra-deva" xOffset="-137"/>
    <contour>
      <point x="137" y="658" type="move" name="_top"/>
    </contour>
  </outline>
</glyph>
<glyph name="eight-deva.loclNEP" format="1">
  <advance width="530"/>
  <outline>
    <contour>
      <point x="227" y="420" type="line" smooth="yes"/>
      <point x="122" y="330"/>
      <point x="80" y="265"/>
      <point x="80" y="193" type="curve" smooth="yes"/>
      <point x="80" y="59"/>
      <point x="174" y="8"/>
      <point x="292" y="8" type="curve" smooth="yes"/>
      <point x="350" y="8"/>
      <point x="414" y="20"/>
      <point x="475" y="41" type="curve"/>
      <point x="453" y="114" type="line"/>
      <point x="396" y="94"/>
      <point x="338" y="80"/>
      <point x="289" y="80" type="curve" smooth="yes"/>
      <point x="217" y="80"/>
      <point x="164" y="110"/>
      <point x="164" y="193" type="curve" smooth="yes"/>
      <point x="164" y="243"/>
      <point x="193" y="285"/>
      <point x="279" y="361" type="curve" smooth="yes"/>
      <point x="420" y="486" type="line"/>
      <point x="353" y="529" type="line"/>
    </contour>
    <contour>
      <point x="-20" y="548" type="line"/>
      <point x="-20" y="473" type="line"/>
      <point x="550" y="473" type="line"/>
      <point x="550" y="548" type="line"/>
    </contour>
  </outline>
</glyph>
<glyph name="g_na-deva" format="1">
  <advance width="588"/>
  <outline>
    <contour>
      <point x="126" y="52" type="line" smooth="yes"/>
      <point x="103" y="33"/>
      <point x="93" y="21"/>
      <point x="93" y="5" type="curve" smooth="yes"/>
      <point x="93" y="-26"/>
      <point x="144" y="-62"/>
      <point x="215" y="-62" type="curve" smooth="yes"/>
      <point x="267" y="-62"/>
      <point x="285" y="-47"/>
      <point x="285" y="-34" type="curve" smooth="yes"/>
      <point x="285" y="-14"/>
      <point x="266" y="17"/>
      <point x="210" y="58" type="curve"/>
      <point x="154" y="10" type="line"/>
      <point x="206" y="-52" type="line"/>
      <point x="227" y="40" type="line"/>
      <point x="432" y="214" type="line"/>
      <point x="414" y="298" type="line"/>
    </contour>
    <contour>
      <point x="393" y="606" type="line"/>
      <point x="393" y="0" type="line"/>
      <point x="478" y="0" type="line"/>
      <point x="478" y="606" type="line"/>
    </contour>
    <contour>
      <point x="265" y="658" type="line"/>
      <point x="265" y="583" type="line"/>
      <point x="607" y="583" type="line"/>
      <point x="607" y="658" type="line"/>
    </contour>
    <component base="g-deva"/>
    <contour>
      <point x="476" y="658" type="move" name="imatra"/>
    </contour>
  </outline>
</glyph>
<glyph name="gh_ra-deva" format="1">
  <advance width="654"/>
  <outline>
    <contour>
      <point x="159" y="-7" type="line"/>
      <point x="209" y="-65" type="line"/>
      <point x="490" y="154" type="line"/>
      <point x="490" y="246" type="line"/>
    </contour>
    <component base="gha-deva"/>
    <contour>
      <point x="502" y="658" type="move" name="top"/>
    </contour>
    <contour>
      <point x="501" y="0" type="move" name="bottom"/>
    </contour>
  </outline>
</glyph>
<glyph name="gha_compo" format="1">
  <advance width="523"/>
  <outline>
    <contour>
      <point x="133" y="494"/>
      <point x="53" y="449"/>
      <point x="53" y="361" type="curve" smooth="yes"/>
      <point x="53" y="284"/>
      <point x="123" y="228"/>
      <point x="221" y="228" type="curve" smooth="yes"/>
      <point x="273" y="228"/>
      <point x="353" y="242"/>
      <point x="426" y="320" type="curve"/>
      <point x="378" y="376" type="line"/>
      <point x="342" y="322"/>
      <point x="261" y="298"/>
      <point x="223" y="298" type="curve" smooth="yes"/>
      <point x="177" y="298"/>
      <point x="133" y="315"/>
      <point x="133" y="361" type="curve" smooth="yes"/>
      <point x="133" y="409"/>
      <point x="187" y="424"/>
      <point x="235" y="424" type="curve" smooth="yes"/>
      <point x="253" y="424"/>
      <point x="261" y="423"/>
      <point x="274" y="422" type="curve"/>
      <point x="264" y="493" type="line"/>
      <point x="252" y="494"/>
      <point x="245" y="494"/>
      <point x="239" y="494" type="curve" smooth="yes"/>
    </contour>
    <contour>
      <point x="73" y="646"/>
      <point x="53" y="609"/>
      <point x="53" y="559" type="curve" smooth="yes"/>
      <point x="53" y="501"/>
      <point x="93" y="453"/>
      <point x="147" y="433" type="curve"/>
      <point x="204" y="482" type="line"/>
      <point x="168" y="494"/>
      <point x="133" y="518"/>
      <point x="133" y="559" type="curve" smooth="yes"/>
      <point x="133" y="600"/>
      <point x="168" y="626"/>
      <point x="209" y="626" type="curve"/>
      <point x="107" y="669" type="line"/>
    </contour>
    <contour>
      <point x="371" y="630" type="line"/>
      <point x="371" y="198" type="line"/>
      <point x="445" y="198" type="line"/>
      <point x="445" y="630" type="line"/>
    </contour>
  </outline>
</glyph>
<glyph name="h-deva" format="1">
  <advance width="400"/>
  <outline>
    <contour>
      <point x="225" y="320"/>
      <point x="94" y="276"/>
      <point x="94" y="131" type="curve" smooth="yes"/>
      <point x="94" y="8"/>
      <point x="185" y="-70"/>
      <point x="361" y="-93" type="curve"/>
      <point x="374" y="-19" type="line"/>
      <point x="245" y="-1"/>
      <point x="179" y="50"/>
      <point x="179" y="131" type="curve" smooth="yes"/>
      <point x="179" y="215"/>
      <point x="257" y="245"/>
      <point x="331" y="245" type="curve" smooth="yes"/>
      <point x="396" y="245"/>
      <point x="471" y="222"/>
      <point x="536" y="177" type="curve"/>
      <point x="531" y="254" type="line"/>
      <point x="465" y="301"/>
      <point x="399" y="320"/>
      <point x="335" y="320" type="curve" smooth="yes"/>
    </contour>
    <contour>
      <point x="175" y="478" type="line" smooth="yes"/>
      <point x="109" y="478"/>
      <point x="70" y="444"/>
      <point x="70" y="386" type="curve" smooth="yes"/>
      <point x="70" y="322"/>
      <point x="104" y="258"/>
      <point x="166" y="207" type="curve"/>
      <point x="222" y="258" type="line"/>
      <point x="178" y="288"/>
      <point x="154" y="329"/>
      <point x="154" y="369" type="curve" smooth="yes"/>
      <point x="154" y="391"/>
      <point x="166" y="403"/>
      <point x="190" y="403" type="curve" smooth="yes"/>
      <point x="410" y="403" type="line"/>
      <point x="326" y="478" type="line"/>
    </contour>
    <contour>
      <point x="-10" y="658" type="line"/>
      <point x="-10" y="583" type="line"/>
      <point x="482" y="583" type="line"/>
      <point x="482" y="658" type="line"/>
    </contour>
    <contour>
      <point x="326" y="599" type="line"/>
      <point x="326" y="435" type="line"/>
      <point x="410" y="403" type="line"/>
      <point x="410" y="599" type="line"/>
    </contour>
    <contour>
      <point x="372" y="658" type="move" name="top"/>
    </contour>
    <contour>
      <point x="200" y="-47" type="move" name="bottom"/>
    </contour>
  </outline>
</glyph>
<glyph name="h_na-deva" format="1">
  <advance width="532"/>
  <outline>
    <contour>
      <point x="255" y="132" type="line" smooth="yes"/>
      <point x="232" y="113"/>
      <point x="222" y="101"/>
      <point x="222" y="85" type="curve" smooth="yes"/>
      <point x="222" y="54"/>
      <point x="265" y="18"/>
      <point x="324" y="18" type="curve" smooth="yes"/>
      <point x="355" y="18"/>
      <point x="374" y="35"/>
      <point x="374" y="62" type="curve" smooth="yes"/>
      <point x="374" y="82"/>
      <point x="362" y="110"/>
      <point x="339" y="138" type="curve"/>
      <point x="283" y="90" type="line"/>
      <point x="323" y="49" type="line"/>
      <point x="328" y="105" type="line"/>
      <point x="458" y="215" type="line"/>
      <point x="419" y="272" type="line"/>
    </contour>
    <contour>
      <point x="168" y="309"/>
      <point x="68" y="229"/>
      <point x="68" y="109" type="curve" smooth="yes"/>
      <point x="68" y="-33"/>
      <point x="165" y="-119"/>
      <point x="356" y="-145" type="curve"/>
      <point x="369" y="-71" type="line"/>
      <point x="227" y="-50"/>
      <point x="153" y="12"/>
      <point x="153" y="109" type="curve" smooth="yes"/>
      <point x="153" y="185"/>
      <point x="219" y="235"/>
      <point x="318" y="235" type="curve" smooth="yes"/>
      <point x="409" y="235"/>
      <point x="460" y="184"/>
      <point x="460" y="91" type="curve" smooth="yes"/>
      <point x="460" y="53" type="line"/>
      <point x="544" y="53" type="line"/>
      <point x="544" y="99" type="line" smooth="yes"/>
      <point x="544" y="234"/>
      <point x="463" y="309"/>
      <point x="318" y="309" type="curve" smooth="yes"/>
    </contour>
    <contour>
      <point x="202" y="478" type="line" smooth="yes"/>
      <point x="136" y="478"/>
      <point x="97" y="444"/>
      <point x="97" y="386" type="curve" smooth="yes"/>
      <point x="97" y="322"/>
      <point x="131" y="258"/>
      <point x="193" y="207" type="curve"/>
      <point x="249" y="258" type="line"/>
      <point x="205" y="288"/>
      <point x="181" y="329"/>
      <point x="181" y="369" type="curve" smooth="yes"/>
      <point x="181" y="391"/>
      <point x="193" y="403"/>
      <point x="217" y="403" type="curve" smooth="yes"/>
      <point x="437" y="403" type="line"/>
      <point x="353" y="478" type="line"/>
    </contour>
    <contour>
      <point x="353" y="599" type="line"/>
      <point x="353" y="435" type="line"/>
      <point x="437" y="403" type="line"/>
      <point x="437" y="599" type="line"/>
    </contour>
    <contour>
      <point x="-20" y="658" type="line"/>
      <point x="-20" y="583" type="line"/>
      <point x="610" y="583" type="line"/>
      <point x="610" y="658" type="line"/>
    </contour>
    <contour>
      <point x="394" y="658" type="move" name="top"/>
    </contour>
    <contour>
      <point x="266" y="-81" type="move" name="bottom"/>
    </contour>
  </outline>
</glyph>
<glyph name="h_ra-deva" format="1">
  <advance width="590"/>
  <outline>
    <contour>
      <point x="234" y="76" type="line"/>
      <point x="279" y="15" type="line"/>
      <point x="466" y="161" type="line"/>
      <point x="466" y="253" type="line"/>
    </contour>
    <component base="ha-deva.alt"/>
    <contour>
      <point x="404" y="658" type="move" name="top"/>
    </contour>
    <contour>
      <point x="324" y="-187" type="move" name="bottom"/>
    </contour>
  </outline>
</glyph>
<glyph name="h_ya-deva" format="1">
  <advance width="791"/>
  <outline>
    <contour>
      <point x="193" y="318"/>
      <point x="104" y="243"/>
      <point x="104" y="131" type="curve" smooth="yes"/>
      <point x="104" y="13"/>
      <point x="168" y="-74"/>
      <point x="292" y="-127" type="curve"/>
      <point x="331" y="-59" type="line"/>
      <point x="237" y="-17"/>
      <point x="189" y="47"/>
      <point x="189" y="131" type="curve" smooth="yes"/>
      <point x="189" y="199"/>
      <point x="244" y="244"/>
      <point x="327" y="244" type="curve" smooth="yes"/>
      <point x="365" y="244"/>
      <point x="393" y="225"/>
      <point x="393" y="198" type="curve" smooth="yes"/>
      <point x="393" y="173"/>
      <point x="366" y="147"/>
      <point x="320" y="129" type="curve"/>
      <point x="330" y="48"/>
      <point x="385" y="-1"/>
      <point x="466" y="-1" type="curve" smooth="yes"/>
      <point x="557" y="-1"/>
      <point x="635" y="60"/>
      <point x="672" y="159" type="curve"/>
      <point x="609" y="193" type="line"/>
      <point x="586" y="121"/>
      <point x="533" y="73"/>
      <point x="476" y="73" type="curve" smooth="yes"/>
      <point x="444" y="73"/>
      <point x="425" y="83"/>
      <point x="418" y="103" type="curve"/>
      <point x="456" y="124"/>
      <point x="478" y="159"/>
      <point x="478" y="202" type="curve" smooth="yes"/>
      <point x="478" y="271"/>
      <point x="416" y="318"/>
      <point x="327" y="318" type="curve" smooth="yes"/>
    </contour>
    <contour>
      <point x="185" y="478" type="line" smooth="yes"/>
      <point x="119" y="478"/>
      <point x="80" y="444"/>
      <point x="80" y="386" type="curve" smooth="yes"/>
      <point x="80" y="322"/>
      <point x="114" y="258"/>
      <point x="176" y="207" type="curve"/>
      <point x="232" y="258" type="line"/>
      <point x="189" y="287"/>
      <point x="164" y="328"/>
      <point x="164" y="369" type="curve" smooth="yes"/>
      <point x="164" y="391"/>
      <point x="176" y="403"/>
      <point x="200" y="403" type="curve" smooth="yes"/>
      <point x="450" y="403" type="line"/>
      <point x="366" y="478" type="line"/>
    </contour>
    <contour>
      <point x="366" y="599" type="line"/>
      <point x="366" y="435" type="line"/>
      <point x="450" y="403" type="line"/>
      <point x="450" y="599" type="line"/>
    </contour>
    <contour>
      <point x="607" y="594" type="line"/>
      <point x="607" y="-20" type="line"/>
      <point x="681" y="-20" type="line"/>
      <point x="681" y="594" type="line"/>
    </contour>
    <contour>
      <point x="-20" y="658" type="line"/>
      <point x="-20" y="583" type="line"/>
      <point x="811" y="583" type="line"/>
      <point x="811" y="658" type="line"/>
    </contour>
    <contour>
      <point x="646" y="658" type="move" name="top"/>
    </contour>
    <contour>
      <point x="489" y="-85" type="move" name="bottom"/>
    </contour>
  </outline>
</glyph>
<glyph name="iMatra-deva.00" format="1">
  <advance width="305"/>
  <outline>
    <contour>
      <point x="151" y="915"/>
      <point x="80" y="856"/>
      <point x="80" y="763" type="curve" smooth="yes"/>
      <point x="80" y="735"/>
      <point x="89" y="692"/>
      <point x="103" y="648" type="curve"/>
      <point x="188" y="648" type="line"/>
      <point x="173" y="672"/>
      <point x="165" y="709"/>
      <point x="165" y="752" type="curve" smooth="yes"/>
      <point x="165" y="806"/>
      <point x="207" y="841"/>
      <point x="272" y="841" type="curve" smooth="yes"/>
      <point x="328" y="841"/>
      <point x="390" y="790"/>
      <point x="425" y="714" type="curve"/>
      <point x="495" y="755" type="line"/>
      <point x="441" y="859"/>
      <point x="361" y="915"/>
      <point x="264" y="915" type="curve" smooth="yes"/>
    </contour>
    <contour>
      <point x="110" y="606" type="line"/>
      <point x="110" y="0" type="line"/>
      <point x="195" y="0" type="line"/>
      <point x="195" y="606" type="line"/>
    </contour>
    <contour>
      <point x="-18" y="658" type="line"/>
      <point x="-18" y="583" type="line"/>
      <point x="324" y="583" type="line"/>
      <point x="324" y="658" type="line"/>
    </contour>
    <contour>
      <point x="495" y="755" type="move" name="imatra"/>
    </contour>
    <contour>
      <point x="153" y="0" type="move" name="bottom"/>
    </contour>
    <contour>
      <point x="495" y="835" type="move" name="top"/>
    </contour>
  </outline>
</glyph>
<glyph name="iMatra-deva.02" format="1">
  <advance width="305"/>
  <outline>
    <contour>
      <point x="166" y="915"/>
      <point x="80" y="856"/>
      <point x="80" y="756" type="curve" smooth="yes"/>
      <point x="80" y="729"/>
      <point x="89" y="687"/>
      <point x="103" y="645" type="curve"/>
      <point x="188" y="645" type="line"/>
      <point x="173" y="669"/>
      <point x="165" y="705"/>
      <point x="165" y="745" type="curve" smooth="yes"/>
      <point x="165" y="806"/>
      <point x="223" y="842"/>
      <point x="342" y="842" type="curve" smooth="yes"/>
      <point x="418" y="842"/>
      <point x="555" y="793"/>
      <point x="652" y="717" type="curve"/>
      <point x="714" y="763" type="line"/>
      <point x="608" y="861"/>
      <point x="454" y="915"/>
      <point x="335" y="915" type="curve" smooth="yes"/>
    </contour>
    <contour>
      <point x="110" y="606" type="line"/>
      <point x="110" y="0" type="line"/>
      <point x="195" y="0" type="line"/>
      <point x="195" y="606" type="line"/>
    </contour>
    <contour>
      <point x="-18" y="658" type="line"/>
      <point x="-18" y="583" type="line"/>
      <point x="324" y="583" type="line"/>
      <point x="324" y="658" type="line"/>
    </contour>
    <contour>
      <point x="714" y="763" type="move" name="imatra"/>
    </contour>
    <contour>
      <point x="153" y="0" type="move" name="bottom"/>
    </contour>
    <contour>
      <point x="714" y="843" type="move" name="top"/>
    </contour>
  </outline>
</glyph>
<glyph name="iMatra_reph-deva.06" format="1">
  <advance width="305"/>
  <outline>
    <component base="iMatra-deva.06"/>
    <component base="reph-deva.imatra" xOffset="963" yOffset="130"/>
    <contour>
      <point x="1153" y="778" type="move" name="imatra"/>
    </contour>
    <contour>
      <point x="153" y="0" type="move" name="bottom"/>
    </contour>
    <contour>
      <point x="1153" y="1020" type="move" name="top"/>
    </contour>
  </outline>
</glyph>
<glyph name="iMatra_reph_anusvara-deva.07" format="1">
  <advance width="305"/>
  <outline>
    <component base="iMatra-deva.07"/>
    <component base="reph_anusvara-deva.imatra" xOffset="1111" yOffset="134"/>
    <contour>
      <point x="1263" y="782" type="move" name="imatra"/>
    </contour>
    <contour>
      <point x="153" y="0" type="move" name="bottom"/>
    </contour>
    <contour>
      <point x="1263" y="1020" type="move" name="top"/>
    </contour>
  </outline>
</glyph>
<glyph name="iiMatra_reph_anusvara-deva" format="1">
  <advance width="319"/>
  <note>
	dMatraIiRephAnusvara
  </note>
  <outline>
    <component base="iiMatra-deva"/>
    <component base="reph_anusvara-deva.imatra" xOffset="41" yOffset="10"/>
    <contour>
      <point x="185" y="908" type="move" name="top"/>
    </contour>
    <contour>
      <point x="166" y="0" type="move" name="bottom"/>
    </contour>
  </outline>
</glyph>
<glyph name="j_compo" format="1">
  <advance width="631"/>
  <outline>
    <contour>
      <point x="40" y="471" type="line"/>
      <point x="73" y="351"/>
      <point x="136" y="241"/>
      <point x="267" y="241" type="curve" smooth="yes"/>
      <point x="367" y="241"/>
      <point x="418" y="297"/>
      <point x="418" y="366" type="curve" smooth="yes"/>
      <point x="418" y="410"/>
      <point x="398" y="447"/>
      <point x="334" y="487" type="curve"/>
      <point x="285" y="438" type="line"/>
      <point x="321" y="417"/>
      <point x="336" y="395"/>
      <point x="336" y="365" type="curve" smooth="yes"/>
      <point x="336" y="330"/>
      <point x="306" y="314"/>
      <point x="271" y="314" type="curve" smooth="yes"/>
      <point x="210" y="314"/>
      <point x="149" y="363"/>
      <point x="118" y="489" type="curve"/>
    </contour>
    <contour>
      <point x="311" y="512" type="line"/>
      <point x="285" y="438" type="line"/>
      <point x="635" y="438" type="line"/>
      <point x="635" y="512" type="line"/>
    </contour>
  </outline>
</glyph>
<glyph name="j_j-deva" format="1">
  <advance width="474"/>
  <outline>
    <contour>
      <point x="-20" y="658" type="line"/>
      <point x="-20" y="583" type="line"/>
      <point x="478" y="583" type="line"/>
      <point x="478" y="658" type="line"/>
    </contour>
    <contour>
      <point x="40" y="471" type="line"/>
      <point x="73" y="351"/>
      <point x="136" y="241"/>
      <point x="267" y="241" type="curve" smooth="yes"/>
      <point x="367" y="241"/>
      <point x="418" y="297"/>
      <point x="418" y="366" type="curve" smooth="yes"/>
      <point x="418" y="410"/>
      <point x="398" y="447"/>
      <point x="334" y="487" type="curve"/>
      <point x="285" y="438" type="line"/>
      <point x="321" y="417"/>
      <point x="336" y="395"/>
      <point x="336" y="365" type="curve" smooth="yes"/>
      <point x="336" y="330"/>
      <point x="306" y="314"/>
      <point x="271" y="314" type="curve" smooth="yes"/>
      <point x="210" y="314"/>
      <point x="149" y="363"/>
      <point x="118" y="489" type="curve"/>
    </contour>
    <contour>
      <point x="311" y="512" type="line"/>
      <point x="285" y="438" type="line"/>
      <point x="590" y="438" type="line"/>
      <point x="590" y="512" type="line"/>
    </contour>
    <contour>
      <point x="84" y="60" type="line"/>
      <point x="180" y="-90"/>
      <point x="275" y="-104"/>
      <point x="337" y="-104" type="curve" smooth="yes"/>
      <point x="434" y="-104"/>
      <point x="480" y="-45"/>
      <point x="480" y="18" type="curve" smooth="yes"/>
      <point x="480" y="65"/>
      <point x="451" y="128"/>
      <point x="360" y="156" type="curve"/>
      <point x="325" y="96" type="line"/>
      <point x="360" y="86"/>
      <point x="398" y="59"/>
      <point x="398" y="22" type="curve" smooth="yes"/>
      <point x="398" y="-8"/>
      <point x="378" y="-31"/>
      <point x="334" y="-31" type="curve" smooth="yes"/>
      <point x="293" y="-31"/>
      <point x="223" y="-25"/>
      <point x="145" y="107" type="curve"/>
    </contour>
    <contour>
      <point x="312" y="172" type="line"/>
      <point x="325" y="96" type="line"/>
      <point x="630" y="223" type="line"/>
      <point x="597" y="289" type="line"/>
    </contour>
  </outline>
</glyph>
<glyph name="j_nya-deva" format="1">
  <advance width="718"/>
  <outline>
    <contour>
      <point x="209" y="401" type="line"/>
      <point x="276" y="401"/>
      <point x="323" y="356"/>
      <point x="323" y="291" type="curve" smooth="yes"/>
      <point x="323" y="227"/>
      <point x="282" y="185"/>
      <point x="218" y="185" type="curve" smooth="yes"/>
      <point x="173" y="185"/>
      <point x="140" y="202"/>
      <point x="111" y="240" type="curve"/>
      <point x="62" y="189" type="line"/>
      <point x="107" y="135"/>
      <point x="158" y="111"/>
      <point x="228" y="111" type="curve" smooth="yes"/>
      <point x="332" y="111"/>
      <point x="407" y="187"/>
      <point x="407" y="291" type="curve" smooth="yes"/>
      <point x="407" y="372"/>
      <point x="350" y="442"/>
      <point x="265" y="466" type="curve"/>
    </contour>
    <contour>
      <point x="60" y="271"/>
      <point x="34" y="240"/>
      <point x="34" y="196" type="curve" smooth="yes"/>
      <point x="34" y="139"/>
      <point x="86" y="109"/>
      <point x="185" y="109" type="curve" smooth="yes"/>
      <point x="200" y="109"/>
      <point x="210" y="109"/>
      <point x="228" y="111" type="curve"/>
      <point x="245" y="169" type="line"/>
      <point x="191" y="240"/>
      <point x="146" y="271"/>
      <point x="97" y="271" type="curve" smooth="yes"/>
    </contour>
    <contour>
      <point x="174" y="129" type="line"/>
      <point x="325" y="-50" type="line"/>
      <point x="387" y="2" type="line"/>
      <point x="247" y="167" type="line"/>
    </contour>
    <contour>
      <point x="225" y="475" type="line"/>
      <point x="199" y="401" type="line"/>
      <point x="543" y="401" type="line"/>
      <point x="522" y="475" type="line"/>
    </contour>
    <contour>
      <point x="-20" y="658" type="line"/>
      <point x="-20" y="583" type="line"/>
      <point x="454" y="583" type="line"/>
      <point x="454" y="658" type="line"/>
    </contour>
    <contour>
      <point x="522" y="606" type="line"/>
      <point x="522" y="0" type="line"/>
      <point x="607" y="0" type="line"/>
      <point x="607" y="606" type="line"/>
    </contour>
    <contour>
      <point x="394" y="658" type="line"/>
      <point x="394" y="583" type="line"/>
      <point x="736" y="583" type="line"/>
      <point x="736" y="658" type="line"/>
    </contour>
    <contour>
      <point x="605" y="658" type="move" name="imatra"/>
    </contour>
    <contour>
      <point x="565" y="0" type="move" name="bottom"/>
    </contour>
    <contour>
      <point x="565" y="658" type="move" name="top"/>
    </contour>
  </outline>
</glyph>
<glyph name="j_r-deva" format="1">
  <advance width="464"/>
  <outline>
    <contour>
      <point x="40" y="434" type="line"/>
      <point x="81" y="240"/>
      <point x="149" y="132"/>
      <point x="285" y="132" type="curve" smooth="yes"/>
      <point x="379" y="132"/>
      <point x="442" y="188"/>
      <point x="442" y="271" type="curve" smooth="yes"/>
      <point x="442" y="330"/>
      <point x="410" y="382"/>
      <point x="334" y="450" type="curve"/>
      <point x="285" y="401" type="line"/>
      <point x="333" y="348"/>
      <point x="356" y="307"/>
      <point x="356" y="271" type="curve" smooth="yes"/>
      <point x="356" y="232"/>
      <point x="329" y="206"/>
      <point x="287" y="206" type="curve" smooth="yes"/>
      <point x="197" y="206"/>
      <point x="152" y="287"/>
      <point x="118" y="452" type="curve"/>
    </contour>
    <contour>
      <point x="343" y="36" type="line"/>
      <point x="405" y="-9" type="line"/>
      <point x="606" y="232" type="line"/>
      <point x="576" y="328" type="line"/>
    </contour>
    <contour>
      <point x="-20" y="658" type="line"/>
      <point x="-20" y="583" type="line"/>
      <point x="484" y="583" type="line"/>
      <point x="484" y="658" type="line"/>
    </contour>
    <contour>
      <point x="311" y="475" type="line"/>
      <point x="285" y="401" type="line"/>
      <point x="595" y="401" type="line"/>
      <point x="574" y="475" type="line"/>
    </contour>
    <contour>
      <point x="273" y="658" type="move" name="top"/>
    </contour>
    <contour>
      <point x="277" y="0" type="move" name="bottom"/>
    </contour>
  </outline>
</glyph>
<glyph name="j_ra-deva" format="1">
  <advance width="765"/>
  <outline>
    <contour>
      <point x="-5" y="658" type="line"/>
      <point x="-5" y="583" type="line"/>
      <point x="770" y="583" type="line"/>
      <point x="770" y="658" type="line"/>
    </contour>
    <contour>
      <point x="273" y="23" type="line"/>
      <point x="323" y="-35" type="line"/>
      <point x="604" y="184" type="line"/>
      <point x="604" y="276" type="line"/>
    </contour>
    <component base="aaMatra-deva" xOffset="460"/>
    <component base="j_compo" xOffset="-7" yOffset="-33"/>
    <contour>
      <point x="612" y="658" type="move" name="top"/>
    </contour>
    <contour>
      <point x="612" y="0" type="move" name="bottom"/>
    </contour>
  </outline>
</glyph>
<glyph name="jh-deva" format="1">
  <advance width="483"/>
  <outline>
    <contour>
      <point x="173" y="476" type="line" smooth="yes"/>
      <point x="107" y="476"/>
      <point x="68" y="448"/>
      <point x="68" y="386" type="curve" smooth="yes"/>
      <point x="68" y="303"/>
      <point x="121" y="233"/>
      <point x="198" y="233" type="curve" smooth="yes"/>
      <point x="218" y="233"/>
      <point x="311" y="247"/>
      <point x="331" y="247" type="curve" smooth="yes"/>
      <point x="361" y="247"/>
      <point x="383" y="233"/>
      <point x="383" y="210" type="curve" smooth="yes"/>
      <point x="383" y="116"/>
      <point x="299" y="98"/>
      <point x="227" y="98" type="curve"/>
      <point x="222" y="29" type="line"/>
      <point x="345" y="29"/>
      <point x="467" y="71"/>
      <point x="467" y="219" type="curve" smooth="yes"/>
      <point x="467" y="279"/>
      <point x="425" y="319"/>
      <point x="360" y="319" type="curve" smooth="yes"/>
      <point x="340" y="319"/>
      <point x="232" y="306"/>
      <point x="212" y="306" type="curve" smooth="yes"/>
      <point x="176" y="306"/>
      <point x="152" y="331"/>
      <point x="152" y="369" type="curve" smooth="yes"/>
      <point x="152" y="391"/>
      <point x="159" y="402"/>
      <point x="185" y="402" type="curve" smooth="yes"/>
      <point x="408" y="402" type="line"/>
      <point x="324" y="476" type="line"/>
    </contour>
    <contour>
      <point x="93" y="189"/>
      <point x="68" y="156"/>
      <point x="68" y="114" type="curve" smooth="yes"/>
      <point x="68" y="37"/>
      <point x="158" y="29"/>
      <point x="262" y="29" type="curve"/>
      <point x="279" y="87" type="line"/>
      <point x="232" y="149"/>
      <point x="187" y="189"/>
      <point x="131" y="189" type="curve" smooth="yes"/>
    </contour>
    <contour>
      <point x="208" y="47" type="line"/>
      <point x="359" y="-132" type="line"/>
      <point x="421" y="-80" type="line"/>
      <point x="281" y="85" type="line"/>
    </contour>
    <contour>
      <point x="373" y="257" type="line"/>
      <point x="410" y="235"/>
      <point x="461" y="222"/>
      <point x="508" y="222" type="curve" smooth="yes"/>
      <point x="543" y="222"/>
      <point x="578" y="227"/>
      <point x="611" y="235" type="curve"/>
      <point x="598" y="305" type="line"/>
      <point x="572" y="299"/>
      <point x="542" y="296"/>
      <point x="508" y="296" type="curve" smooth="yes"/>
      <point x="468" y="296"/>
      <point x="429" y="301"/>
      <point x="398" y="311" type="curve"/>
    </contour>
    <contour>
      <point x="-20" y="658" type="line"/>
      <point x="-20" y="583" type="line"/>
      <point x="493" y="583" type="line"/>
      <point x="493" y="658" type="line"/>
    </contour>
    <contour>
      <point x="324" y="599" type="line"/>
      <point x="324" y="434" type="line"/>
      <point x="408" y="402" type="line"/>
      <point x="408" y="599" type="line"/>
    </contour>
    <contour>
      <point x="369" y="658" type="move" name="top"/>
    </contour>
    <contour>
      <point x="242" y="0" type="move" name="bottom"/>
    </contour>
  </outline>
</glyph>
<glyph name="jh_ra-deva" format="1">
  <advance width="822"/>
  <outline>
    <contour>
      <point x="428" y="23" type="line"/>
      <point x="478" y="-35" type="line"/>
      <point x="658" y="110" type="line"/>
      <point x="658" y="199" type="line"/>
    </contour>
    <contour>
      <point x="626" y="2" type="line"/>
      <point x="626" y="-35" type="line"/>
      <point x="711" y="-35" type="line"/>
      <point x="711" y="2" type="line"/>
    </contour>
    <component base="aaMatra-deva" xOffset="516"/>
    <component base="jh_compo" xOffset="-14"/>
    <contour>
      <point x="669" y="658" type="move" name="top"/>
    </contour>
    <contour>
      <point x="669" y="-35" type="move" name="bottom"/>
    </contour>
  </outline>
</glyph>
<glyph name="k-deva" format="1">
  <advance width="606"/>
  <outline>
    <contour>
      <point x="124" y="478"/>
      <point x="43" y="403"/>
      <point x="43" y="293" type="curve" smooth="yes"/>
      <point x="43" y="189"/>
      <point x="118" y="113"/>
      <point x="222" y="113" type="curve" smooth="yes"/>
      <point x="314" y="113"/>
      <point x="375" y="153"/>
      <point x="434" y="253" type="curve"/>
      <point x="376" y="291" type="line"/>
      <point x="333" y="216"/>
      <point x="294" y="188"/>
      <point x="232" y="188" type="curve" smooth="yes"/>
      <point x="169" y="188"/>
      <point x="127" y="230"/>
      <point x="127" y="293" type="curve" smooth="yes"/>
      <point x="127" y="358"/>
      <point x="174" y="403"/>
      <point x="241" y="403" type="curve" smooth="yes"/>
      <point x="257" y="403"/>
      <point x="275" y="402"/>
      <point x="283" y="401" type="curve"/>
      <point x="271" y="476" type="line"/>
      <point x="264" y="477"/>
      <point x="249" y="478"/>
      <point x="241" y="478" type="curve" smooth="yes"/>
    </contour>
    <contour>
      <point x="373" y="609" type="line"/>
      <point x="373" y="0" type="line"/>
      <point x="458" y="0" type="line"/>
      <point x="458" y="609" type="line"/>
    </contour>
    <contour>
      <point x="-20" y="658" type="line"/>
      <point x="-20" y="583" type="line"/>
      <point x="686" y="583" type="line"/>
      <point x="686" y="658" type="line"/>
    </contour>
    <contour>
      <point x="753" y="451" type="line"/>
      <point x="710" y="469"/>
      <point x="662" y="478"/>
      <point x="621" y="478" type="curve" smooth="yes"/>
      <point x="526" y="478"/>
      <point x="442" y="430"/>
      <point x="397" y="337" type="curve"/>
      <point x="455" y="299" type="line"/>
      <point x="486" y="368"/>
      <point x="538" y="401"/>
      <point x="606" y="401" type="curve" smooth="yes"/>
      <point x="648" y="401"/>
      <point x="700" y="389"/>
      <point x="753" y="366" type="curve"/>
    </contour>
    <contour>
      <point x="220" y="0" type="move" name="nukta"/>
    </contour>
    <contour>
      <point x="303" y="0" type="move" name="bottom"/>
    </contour>
    <contour>
      <point x="415" y="658" type="move" name="top"/>
    </contour>
  </outline>
</glyph>
<glyph name="k_ka-deva" format="1">
  <advance width="894"/>
  <outline>
    <contour>
      <point x="158" y="536"/>
      <point x="77" y="475"/>
      <point x="77" y="380" type="curve" smooth="yes"/>
      <point x="77" y="289"/>
      <point x="152" y="227"/>
      <point x="256" y="227" type="curve" smooth="yes"/>
      <point x="348" y="227"/>
      <point x="409" y="261"/>
      <point x="468" y="347" type="curve"/>
      <point x="410" y="383" type="line"/>
      <point x="367" y="322"/>
      <point x="328" y="297"/>
      <point x="266" y="297" type="curve" smooth="yes"/>
      <point x="203" y="297"/>
      <point x="161" y="330"/>
      <point x="161" y="380" type="curve" smooth="yes"/>
      <point x="161" y="432"/>
      <point x="208" y="466"/>
      <point x="275" y="466" type="curve" smooth="yes"/>
      <point x="291" y="466"/>
      <point x="309" y="465"/>
      <point x="317" y="465" type="curve"/>
      <point x="305" y="535" type="line"/>
      <point x="300" y="536"/>
      <point x="290" y="536"/>
      <point x="275" y="536" type="curve" smooth="yes"/>
    </contour>
    <contour>
      <point x="132" y="307"/>
      <point x="77" y="241"/>
      <point x="77" y="170" type="curve" smooth="yes"/>
      <point x="77" y="70"/>
      <point x="159" y="15"/>
      <point x="259" y="15" type="curve" smooth="yes"/>
      <point x="380" y="15"/>
      <point x="444" y="82"/>
      <point x="487" y="140" type="curve"/>
      <point x="424" y="196" type="line"/>
      <point x="400" y="145"/>
      <point x="353" y="85"/>
      <point x="262" y="85" type="curve" smooth="yes"/>
      <point x="198" y="85"/>
      <point x="161" y="116"/>
      <point x="161" y="170" type="curve" smooth="yes"/>
      <point x="161" y="222"/>
      <point x="206" y="262"/>
      <point x="254" y="282" type="curve"/>
      <point x="178" y="319" type="line"/>
    </contour>
    <contour>
      <point x="546" y="539"/>
      <point x="485" y="504"/>
      <point x="426" y="419" type="curve"/>
      <point x="484" y="377" type="line"/>
      <point x="527" y="440"/>
      <point x="566" y="469"/>
      <point x="628" y="469" type="curve" smooth="yes"/>
      <point x="692" y="469"/>
      <point x="733" y="436"/>
      <point x="733" y="385" type="curve" smooth="yes"/>
      <point x="733" y="350"/>
      <point x="710" y="322"/>
      <point x="674" y="309" type="curve"/>
      <point x="744" y="260" type="line"/>
      <point x="790" y="287"/>
      <point x="817" y="331"/>
      <point x="817" y="385" type="curve" smooth="yes"/>
      <point x="817" y="479"/>
      <point x="738" y="539"/>
      <point x="638" y="539" type="curve" smooth="yes"/>
    </contour>
    <contour>
      <point x="546" y="327"/>
      <point x="485" y="292"/>
      <point x="426" y="207" type="curve"/>
      <point x="484" y="162" type="line"/>
      <point x="527" y="225"/>
      <point x="566" y="257"/>
      <point x="628" y="257" type="curve" smooth="yes"/>
      <point x="692" y="257"/>
      <point x="733" y="224"/>
      <point x="733" y="173" type="curve" smooth="yes"/>
      <point x="733" y="122"/>
      <point x="686" y="88"/>
      <point x="619" y="88" type="curve" smooth="yes"/>
      <point x="609" y="88"/>
      <point x="604" y="88"/>
      <point x="600" y="89" type="curve"/>
      <point x="610" y="18" type="line"/>
      <point x="613" y="18"/>
      <point x="616" y="18"/>
      <point x="619" y="18" type="curve" smooth="yes"/>
      <point x="737" y="18"/>
      <point x="817" y="80"/>
      <point x="817" y="173" type="curve" smooth="yes"/>
      <point x="817" y="267"/>
      <point x="738" y="327"/>
      <point x="638" y="327" type="curve" smooth="yes"/>
    </contour>
    <contour>
      <point x="402" y="609" type="line"/>
      <point x="402" y="-35" type="line"/>
      <point x="487" y="-35" type="line"/>
      <point x="487" y="609" type="line"/>
    </contour>
    <contour>
      <point x="-20" y="658" type="line"/>
      <point x="-20" y="583" type="line"/>
      <point x="914" y="583" type="line"/>
      <point x="914" y="658" type="line"/>
    </contour>
    <contour>
      <point x="445" y="658" type="move" name="top"/>
    </contour>
    <contour>
      <point x="444" y="-35" type="move" name="bottom"/>
    </contour>
  </outline>
</glyph>
<glyph name="k_ra-deva" format="1">
  <advance width="849"/>
  <outline>
    <contour>
      <point x="138" y="504"/>
      <point x="57" y="429"/>
      <point x="57" y="319" type="curve" smooth="yes"/>
      <point x="57" y="215"/>
      <point x="132" y="139"/>
      <point x="236" y="139" type="curve" smooth="yes"/>
      <point x="328" y="139"/>
      <point x="389" y="179"/>
      <point x="448" y="279" type="curve"/>
      <point x="390" y="317" type="line"/>
      <point x="347" y="242"/>
      <point x="308" y="214"/>
      <point x="246" y="214" type="curve" smooth="yes"/>
      <point x="183" y="214"/>
      <point x="141" y="256"/>
      <point x="141" y="319" type="curve" smooth="yes"/>
      <point x="141" y="384"/>
      <point x="188" y="429"/>
      <point x="255" y="429" type="curve" smooth="yes"/>
      <point x="271" y="429"/>
      <point x="289" y="428"/>
      <point x="297" y="427" type="curve"/>
      <point x="285" y="502" type="line"/>
      <point x="278" y="503"/>
      <point x="263" y="504"/>
      <point x="255" y="504" type="curve" smooth="yes"/>
    </contour>
    <contour>
      <point x="387" y="612" type="line"/>
      <point x="387" y="0" type="line"/>
      <point x="472" y="0" type="line"/>
      <point x="472" y="612" type="line"/>
    </contour>
    <contour>
      <point x="531" y="503"/>
      <point x="470" y="463"/>
      <point x="411" y="363" type="curve"/>
      <point x="469" y="325" type="line"/>
      <point x="512" y="401"/>
      <point x="551" y="429"/>
      <point x="613" y="429" type="curve" smooth="yes"/>
      <point x="677" y="429"/>
      <point x="718" y="387"/>
      <point x="718" y="323" type="curve" smooth="yes"/>
      <point x="718" y="259"/>
      <point x="671" y="214"/>
      <point x="604" y="214" type="curve" smooth="yes"/>
      <point x="592" y="214"/>
      <point x="588" y="214"/>
      <point x="585" y="215" type="curve"/>
      <point x="595" y="139" type="line"/>
      <point x="598" y="139"/>
      <point x="601" y="139"/>
      <point x="604" y="139" type="curve" smooth="yes"/>
      <point x="722" y="139"/>
      <point x="802" y="215"/>
      <point x="802" y="323" type="curve" smooth="yes"/>
      <point x="802" y="431"/>
      <point x="723" y="503"/>
      <point x="623" y="503" type="curve" smooth="yes"/>
    </contour>
    <contour>
      <point x="-20" y="658" type="line"/>
      <point x="-20" y="583" type="line"/>
      <point x="869" y="583" type="line"/>
      <point x="869" y="658" type="line"/>
    </contour>
    <contour>
      <point x="79" y="48" type="line"/>
      <point x="129" y="-10" type="line"/>
      <point x="452" y="241" type="line"/>
      <point x="452" y="333" type="line"/>
    </contour>
    <contour>
      <point x="291" y="0" type="move" name="nukta"/>
    </contour>
    <contour>
      <point x="431" y="0" type="move" name="bottom"/>
    </contour>
    <contour>
      <point x="431" y="658" type="move" name="top"/>
    </contour>
  </outline>
</glyph>
<glyph name="k_ss_ra-deva" format="1">
  <advance width="797"/>
  <outline>
    <contour>
      <point x="157" y="660"/>
      <point x="100" y="609"/>
      <point x="100" y="516" type="curve"/>
      <point x="100" y="400"/>
      <point x="247" y="305"/>
      <point x="431" y="305" type="curve" smooth="yes"/>
      <point x="494" y="305"/>
      <point x="567" y="318"/>
      <point x="644" y="349" type="curve"/>
      <point x="632" y="419" type="line"/>
      <point x="577" y="392"/>
      <point x="494" y="378"/>
      <point x="417" y="378" type="curve" smooth="yes"/>
      <point x="287" y="378"/>
      <point x="184" y="443"/>
      <point x="184" y="516" type="curve"/>
      <point x="184" y="561"/>
      <point x="211" y="586"/>
      <point x="259" y="586" type="curve"/>
      <point x="307" y="586"/>
      <point x="333" y="559"/>
      <point x="333" y="512" type="curve"/>
      <point x="333" y="400"/>
      <point x="62" y="426"/>
      <point x="62" y="225" type="curve"/>
      <point x="62" y="126"/>
      <point x="150" y="52"/>
      <point x="273" y="52" type="curve"/>
      <point x="310" y="52"/>
      <point x="342" y="54"/>
      <point x="368" y="59" type="curve"/>
      <point x="338" y="133" type="line"/>
      <point x="321" y="128"/>
      <point x="298" y="126"/>
      <point x="273" y="126" type="curve"/>
      <point x="194" y="126"/>
      <point x="146" y="174"/>
      <point x="146" y="225" type="curve"/>
      <point x="146" y="365"/>
      <point x="417" y="331"/>
      <point x="417" y="511" type="curve"/>
      <point x="417" y="607"/>
      <point x="361" y="660"/>
      <point x="259" y="660" type="curve"/>
    </contour>
    <contour>
      <point x="276" y="218"/>
      <point x="261" y="191"/>
      <point x="261" y="166" type="curve" smooth="yes"/>
      <point x="261" y="113"/>
      <point x="284" y="78"/>
      <point x="296" y="62" type="curve" smooth="yes"/>
      <point x="402" y="-79" type="line"/>
      <point x="468" y="-31" type="line"/>
      <point x="348" y="122" type="line"/>
      <point x="340" y="59" type="line"/>
      <point x="380" y="70"/>
      <point x="427" y="85"/>
      <point x="427" y="128" type="curve" smooth="yes"/>
      <point x="427" y="172"/>
      <point x="377" y="218"/>
      <point x="317" y="218" type="curve" smooth="yes"/>
    </contour>
    <contour>
      <point x="429" y="74" type="line"/>
      <point x="474" y="13" type="line"/>
      <point x="661" y="159" type="line"/>
      <point x="661" y="251" type="line"/>
    </contour>
    <contour>
      <point x="601" y="606" type="line"/>
      <point x="601" y="0" type="line"/>
      <point x="686" y="0" type="line"/>
      <point x="686" y="606" type="line"/>
    </contour>
    <contour>
      <point x="473" y="658" type="line"/>
      <point x="473" y="583" type="line"/>
      <point x="815" y="583" type="line"/>
      <point x="815" y="658" type="line"/>
    </contour>
    <contour>
      <point x="684" y="658" type="move" name="imatra"/>
    </contour>
    <contour>
      <point x="261" y="0" type="move" name="bottom"/>
    </contour>
    <contour>
      <point x="289" y="660" type="move" name="top"/>
    </contour>
  </outline>
</glyph>
<glyph name="k_ssa-deva" format="1">
  <advance width="767"/>
  <outline>
    <contour>
      <point x="157" y="660"/>
      <point x="100" y="609"/>
      <point x="100" y="516" type="curve"/>
      <point x="100" y="400"/>
      <point x="247" y="305"/>
      <point x="431" y="305" type="curve" smooth="yes"/>
      <point x="478" y="305"/>
      <point x="533" y="312"/>
      <point x="591" y="329" type="curve"/>
      <point x="579" y="399" type="line"/>
      <point x="537" y="385"/>
      <point x="475" y="378"/>
      <point x="417" y="378" type="curve" smooth="yes"/>
      <point x="287" y="378"/>
      <point x="184" y="443"/>
      <point x="184" y="516" type="curve"/>
      <point x="184" y="561"/>
      <point x="211" y="586"/>
      <point x="259" y="586" type="curve"/>
      <point x="307" y="586"/>
      <point x="333" y="559"/>
      <point x="333" y="512" type="curve"/>
      <point x="333" y="400"/>
      <point x="62" y="426"/>
      <point x="62" y="225" type="curve"/>
      <point x="62" y="126"/>
      <point x="150" y="52"/>
      <point x="273" y="52" type="curve"/>
      <point x="310" y="52"/>
      <point x="342" y="54"/>
      <point x="368" y="59" type="curve"/>
      <point x="338" y="133" type="line"/>
      <point x="321" y="128"/>
      <point x="298" y="126"/>
      <point x="273" y="126" type="curve"/>
      <point x="194" y="126"/>
      <point x="146" y="174"/>
      <point x="146" y="225" type="curve"/>
      <point x="146" y="365"/>
      <point x="417" y="331"/>
      <point x="417" y="511" type="curve"/>
      <point x="417" y="607"/>
      <point x="361" y="660"/>
      <point x="259" y="660" type="curve"/>
    </contour>
    <contour>
      <point x="304" y="218"/>
      <point x="289" y="191"/>
      <point x="289" y="166" type="curve" smooth="yes"/>
      <point x="289" y="113"/>
      <point x="312" y="78"/>
      <point x="324" y="62" type="curve" smooth="yes"/>
      <point x="430" y="-79" type="line"/>
      <point x="496" y="-31" type="line"/>
      <point x="376" y="122" type="line"/>
      <point x="368" y="59" type="line"/>
      <point x="408" y="70"/>
      <point x="455" y="85"/>
      <point x="455" y="128" type="curve" smooth="yes"/>
      <point x="455" y="172"/>
      <point x="405" y="218"/>
      <point x="345" y="218" type="curve" smooth="yes"/>
    </contour>
    <contour>
      <point x="571" y="606" type="line"/>
      <point x="571" y="0" type="line"/>
      <point x="656" y="0" type="line"/>
      <point x="656" y="606" type="line"/>
    </contour>
    <contour>
      <point x="443" y="658" type="line"/>
      <point x="443" y="583" type="line"/>
      <point x="785" y="583" type="line"/>
      <point x="785" y="658" type="line"/>
    </contour>
    <contour>
      <point x="654" y="658" type="move" name="imatra"/>
    </contour>
    <contour>
      <point x="614" y="0" type="move" name="bottom"/>
    </contour>
    <contour>
      <point x="614" y="658" type="move" name="top"/>
    </contour>
  </outline>
</glyph>
<glyph name="k_ta-deva" format="1">
  <advance width="920"/>
  <outline>
    <contour>
      <point x="294" y="476" type="line" smooth="yes"/>
      <point x="178" y="476"/>
      <point x="108" y="410"/>
      <point x="108" y="299" type="curve" smooth="yes"/>
      <point x="108" y="238"/>
      <point x="127" y="177"/>
      <point x="169" y="107" type="curve" smooth="yes"/>
      <point x="239" y="-10" type="line"/>
      <point x="307" y="32" type="line"/>
      <point x="237" y="150" type="line" smooth="yes"/>
      <point x="205" y="204"/>
      <point x="194" y="240"/>
      <point x="194" y="292" type="curve" smooth="yes"/>
      <point x="194" y="361"/>
      <point x="233" y="402"/>
      <point x="300" y="402" type="curve" smooth="yes"/>
      <point x="450" y="402" type="line"/>
      <point x="450" y="476" type="line"/>
    </contour>
    <contour>
      <point x="41" y="476" type="line"/>
      <point x="41" y="403" type="line"/>
      <point x="450" y="403" type="line"/>
      <point x="450" y="476" type="line"/>
    </contour>
    <contour>
      <point x="440" y="599" type="line"/>
      <point x="440" y="0" type="line"/>
      <point x="525" y="0" type="line"/>
      <point x="525" y="599" type="line"/>
    </contour>
    <contour>
      <point x="579" y="477"/>
      <point x="520" y="431"/>
      <point x="464" y="337" type="curve"/>
      <point x="522" y="299" type="line"/>
      <point x="556" y="359"/>
      <point x="591" y="403"/>
      <point x="666" y="403" type="curve" smooth="yes"/>
      <point x="730" y="403"/>
      <point x="771" y="361"/>
      <point x="771" y="297" type="curve" smooth="yes"/>
      <point x="771" y="234"/>
      <point x="725" y="188"/>
      <point x="657" y="188" type="curve" smooth="yes"/>
      <point x="650" y="188"/>
      <point x="643" y="188"/>
      <point x="637" y="189" type="curve"/>
      <point x="627" y="115" type="line"/>
      <point x="637" y="114"/>
      <point x="647" y="113"/>
      <point x="657" y="113" type="curve" smooth="yes"/>
      <point x="775" y="113"/>
      <point x="855" y="189"/>
      <point x="855" y="297" type="curve" smooth="yes"/>
      <point x="855" y="405"/>
      <point x="776" y="477"/>
      <point x="676" y="477" type="curve" smooth="yes"/>
    </contour>
    <contour>
      <point x="-20" y="658" type="line"/>
      <point x="-20" y="583" type="line"/>
      <point x="940" y="583" type="line"/>
      <point x="940" y="658" type="line"/>
    </contour>
    <contour>
      <point x="482" y="658" type="move" name="top"/>
    </contour>
    <contour>
      <point x="484" y="0" type="move" name="bottom"/>
    </contour>
  </outline>
</glyph>
